# converted by scripts/glb-to-obj.mjs
o .art-assets/tomato-pack
v 0.660181 0.220217 -0.046455
v 0.654882 0.220946 -0.046626
v 0.667028 0.364809 -0.080361
v 0.654882 0.220946 -0.046626
v 0.648197 0.221766 -0.046818
v 0.667028 0.364809 -0.080361
v 0.640124 0.222675 -0.047031
v 0.630668 0.223669 -0.047265
v 0.373300 0.364810 -0.080361
v 0.630668 0.223669 -0.047265
v 0.623435 0.224006 -0.047344
v 0.373300 0.364810 -0.080361
v 0.623435 0.224006 -0.047344
v 0.614256 0.224354 -0.047425
v 0.373300 0.364810 -0.080361
v 0.614256 0.224354 -0.047425
v 0.603125 0.224698 -0.047506
v 0.373300 0.364810 -0.080361
v 0.603125 0.224698 -0.047506
v 0.590054 0.225041 -0.047586
v 0.373300 0.364810 -0.080361
v 0.379205 0.220217 -0.046455
v 0.373300 0.364810 -0.080361
v 0.412972 0.223663 -0.047264
v 0.461167 0.038253 -0.003785
v 0.459602 0.071429 -0.011565
v 0.579339 0.057503 -0.008300
v 0.581671 0.097403 -0.017656
v 0.457624 0.111239 -0.020901
v 0.583590 0.131413 -0.025631
v 0.454040 0.174828 -0.035811
v 0.585094 0.159528 -0.032224
v 0.455235 0.157688 -0.031793
v 0.412972 0.223663 -0.047264
v 0.373300 0.364810 -0.080361
v 0.450274 0.225043 -0.047587
v -0.337856 0.011720 0.002437
v -0.338876 0.042579 -0.004800
v -0.252857 0.011720 0.002437
v -0.340273 0.082522 -0.014166
v -0.342063 0.131540 -0.025661
v -0.250497 0.119069 -0.022736
v -0.074826 0.011720 0.002437
v 0.011576 0.059674 -0.008809
v 0.010642 0.011720 0.002437
v -0.216803 0.355126 -0.078090
v -0.211358 0.342853 -0.075212
v -0.352242 0.315241 -0.068738
v -0.211358 0.342853 -0.075212
v -0.204646 0.327999 -0.071730
v -0.352242 0.315241 -0.068738
v -0.342063 0.131540 -0.025661
v -0.344229 0.189640 -0.039285
v -0.250497 0.119069 -0.022736
v -0.112190 0.334407 -0.073232
v 0.021209 0.296649 -0.064379
v -0.118051 0.322264 -0.070385
v -0.123230 0.312167 -0.068017
v 0.018597 0.247654 -0.052890
v -0.135744 0.289767 -0.062765
v -0.189443 0.296621 -0.064372
v -0.181019 0.281476 -0.060820
v -0.346222 0.227656 -0.048200
v 0.018597 0.247654 -0.052890
v -0.146136 0.271533 -0.058488
v -0.135744 0.289767 -0.062765
v -0.713119 0.220217 -0.046455
v -0.718419 0.220946 -0.046626
v -0.706272 0.364810 -0.080361
v -0.718419 0.220946 -0.046626
v -0.725103 0.221766 -0.046818
v -0.706272 0.364810 -0.080361
v -0.733176 0.222675 -0.047031
v -0.742632 0.223669 -0.047265
v -1.000000 0.364810 -0.080361
v -0.742632 0.223669 -0.047265
v -0.749866 0.224006 -0.047344
v -1.000000 0.364810 -0.080361
v -0.749866 0.224006 -0.047344
v -0.759045 0.224354 -0.047425
v -1.000000 0.364810 -0.080361
v -0.759045 0.224354 -0.047425
v -0.770175 0.224698 -0.047506
v -1.000000 0.364810 -0.080361
v -0.770175 0.224698 -0.047506
v -0.783247 0.225041 -0.047586
v -1.000000 0.364810 -0.080361
v -0.994096 0.220217 -0.046455
v -1.000000 0.364810 -0.080361
v -0.960329 0.223663 -0.047264
v -0.912133 0.038253 -0.003785
v -0.913699 0.071429 -0.011565
v -0.793961 0.057503 -0.008300
v -0.791630 0.097403 -0.017656
v -0.915677 0.111239 -0.020901
v -0.789710 0.131413 -0.025631
v -0.919260 0.174828 -0.035811
v -0.788206 0.159528 -0.032224
v -0.918066 0.157688 -0.031793
v -0.920489 0.191767 -0.039784
v -0.785194 0.201885 -0.042156
v -0.786567 0.183105 -0.037753
v -0.960329 0.223663 -0.047264
v -1.000000 0.364810 -0.080361
v -0.923027 0.225043 -0.047587
v -1.000000 0.364810 -0.080361
v -0.783247 0.225041 -0.047586
v -0.923027 0.225043 -0.047587
v 0.841572 0.082167 -0.014083
v 0.850352 0.083754 -0.014455
v 0.957026 0.058610 -0.008559
v 0.832662 0.083737 -0.014451
v 0.705731 0.088481 -0.015564
v 0.824483 0.088409 -0.015546
v 0.850352 0.083754 -0.014455
v 0.858605 0.088522 -0.015574
v 0.957026 0.058610 -0.008559
v 0.824483 0.088409 -0.015546
v 0.705731 0.088481 -0.015564
v 0.817039 0.096196 -0.017373
v 0.817039 0.096196 -0.017373
v 0.705731 0.088481 -0.015564
v 0.810327 0.107106 -0.019931
v 0.858605 0.088522 -0.015574
v 0.866333 0.096458 -0.017434
v 0.957026 0.058610 -0.008559
v 0.810327 0.107106 -0.019931
v 0.705731 0.088481 -0.015564
v 0.805396 0.118411 -0.022582
v 0.866333 0.096458 -0.017434
v 0.873525 0.107563 -0.020038
v 0.957026 0.058610 -0.008559
v 0.805396 0.118411 -0.022582
v 0.705731 0.088481 -0.015564
v 0.801870 0.130149 -0.025335
v 0.879072 0.119212 -0.022770
v 0.883037 0.131063 -0.025549
v 0.975826 0.088223 -0.015504
v 0.997123 0.236666 -0.050312
v 0.875170 0.203057 -0.042431
v 0.988490 0.272912 -0.058812
v 0.904140 0.366702 -0.080805
v 0.930643 0.352122 -0.077386
v 0.861367 0.214979 -0.045227
v -0.531730 0.082167 -0.014083
v -0.522948 0.083754 -0.014455
v -0.416274 0.058610 -0.008559
v -0.540638 0.083737 -0.014451
v -0.667569 0.088481 -0.015564
v -0.548817 0.088409 -0.015546
v -0.522948 0.083754 -0.014455
v -0.514695 0.088522 -0.015574
v -0.416274 0.058610 -0.008559
v -0.548817 0.088409 -0.015546
v -0.667569 0.088481 -0.015564
v -0.556262 0.096196 -0.017373
v -0.556262 0.096196 -0.017373
v -0.667569 0.088481 -0.015564
v -0.562973 0.107105 -0.019931
v -0.514695 0.088522 -0.015574
v -0.506968 0.096457 -0.017434
v -0.416274 0.058610 -0.008559
v -0.562973 0.107105 -0.019931
v -0.667569 0.088481 -0.015564
v -0.567904 0.118411 -0.022582
v -0.506968 0.096457 -0.017434
v -0.499775 0.107563 -0.020038
v -0.416274 0.058610 -0.008559
v -0.567904 0.118411 -0.022582
v -0.667569 0.088481 -0.015564
v -0.571431 0.130149 -0.025335
v -0.494228 0.119212 -0.022770
v -0.490264 0.131063 -0.025549
v -0.397473 0.088223 -0.015504
v -0.376177 0.236666 -0.050312
v -0.498130 0.203057 -0.042431
v -0.384810 0.272912 -0.058812
v -0.469161 0.366702 -0.080805
v -0.442657 0.352122 -0.077386
v -0.511934 0.214979 -0.045227
v 0.660180 0.238591 0.031901
v 0.667028 0.383184 -0.002005
v 0.654881 0.239321 0.031730
v 0.654881 0.239321 0.031730
v 0.667028 0.383184 -0.002005
v 0.648198 0.240141 0.031538
v 0.640123 0.241045 0.031327
v 0.373301 0.383184 -0.002005
v 0.630665 0.242037 0.031093
v 0.630665 0.242037 0.031093
v 0.373301 0.383184 -0.002005
v 0.623435 0.242381 0.031013
v 0.623435 0.242381 0.031013
v 0.373301 0.383184 -0.002005
v 0.614256 0.242729 0.030931
v 0.614256 0.242729 0.030931
v 0.373301 0.383184 -0.002005
v 0.603125 0.243073 0.030850
v 0.603125 0.243073 0.030850
v 0.373301 0.383184 -0.002005
v 0.590054 0.243416 0.030770
v 0.379205 0.238591 0.031901
v 0.412972 0.242037 0.031093
v 0.373301 0.383184 -0.002005
v 0.461168 0.056628 0.074572
v 0.579339 0.075878 0.070056
v 0.459602 0.089804 0.066791
v 0.581670 0.115777 0.060701
v 0.583589 0.149787 0.052726
v 0.457624 0.129613 0.057456
v 0.454040 0.193203 0.042544
v 0.586733 0.201479 0.040604
v 0.452812 0.210141 0.038573
v 0.412972 0.242037 0.031093
v 0.450274 0.243416 0.030770
v 0.373301 0.383184 -0.002005
v -0.337856 0.030094 0.080794
v -0.252857 0.030094 0.080794
v -0.338876 0.060954 0.073556
v -0.340274 0.100897 0.064190
v -0.250497 0.137443 0.055621
v -0.342063 0.149914 0.052696
v 0.011576 0.078048 0.069548
v -0.074826 0.030094 0.080794
v 0.010643 0.030094 0.080794
v -0.216803 0.373500 0.000266
v -0.352242 0.333615 0.009620
v -0.211358 0.361227 0.003145
v -0.204646 0.346373 0.006627
v -0.348895 0.287897 0.020340
v -0.196662 0.328931 0.010717
v -0.342063 0.149914 0.052696
v -0.250497 0.137443 0.055621
v -0.344229 0.208014 0.039072
v -0.112190 0.352780 0.005124
v -0.118050 0.340639 0.007972
v 0.021209 0.315023 0.013978
v -0.123230 0.330541 0.010340
v 0.021209 0.315023 0.013978
v -0.118050 0.340639 0.007972
v -0.196662 0.328931 0.010717
v -0.348895 0.287897 0.020340
v -0.189443 0.314995 0.013985
v -0.146136 0.289907 0.019869
v 0.018597 0.266029 0.025467
v -0.135744 0.308140 0.015592
v -0.713120 0.238591 0.031901
v -0.706273 0.383184 -0.002005
v -0.718420 0.239321 0.031730
v -0.718420 0.239321 0.031730
v -0.706273 0.383184 -0.002005
v -0.725103 0.240141 0.031538
v -0.733178 0.241045 0.031327
v -1.000000 0.383184 -0.002005
v -0.742636 0.242037 0.031093
v -0.742636 0.242037 0.031093
v -1.000000 0.383184 -0.002005
v -0.749866 0.242381 0.031013
v -0.749866 0.242381 0.031013
v -1.000000 0.383184 -0.002005
v -0.759044 0.242729 0.030931
v -0.759044 0.242729 0.030931
v -1.000000 0.383184 -0.002005
v -0.770175 0.243073 0.030850
v -0.770175 0.243073 0.030850
v -1.000000 0.383184 -0.002005
v -0.783245 0.243416 0.030770
v -0.994096 0.238591 0.031901
v -0.960329 0.242037 0.031093
v -1.000000 0.383184 -0.002005
v -0.912133 0.056628 0.074572
v -0.793961 0.075878 0.070056
v -0.913699 0.089804 0.066791
v -0.791630 0.115777 0.060701
v -0.789710 0.149787 0.052726
v -0.915677 0.129613 0.057456
v -0.919260 0.193203 0.042544
v -0.786567 0.201479 0.040604
v -0.920489 0.210141 0.038573
v -0.960329 0.242037 0.031093
v -0.923027 0.243416 0.030770
v -1.000000 0.383184 -0.002005
v 0.841573 0.100548 0.064273
v 0.957026 0.076984 0.069797
v 0.850354 0.102135 0.063900
v 0.832662 0.102108 0.063907
v 0.824483 0.106783 0.062810
v 0.705731 0.106856 0.062793
v 0.850354 0.102135 0.063900
v 0.957026 0.076984 0.069797
v 0.858605 0.106895 0.062783
v 0.824483 0.106783 0.062810
v 0.817039 0.114572 0.060983
v 0.705731 0.106856 0.062793
v 0.817039 0.114572 0.060983
v 0.810328 0.125478 0.058426
v 0.705731 0.106856 0.062793
v 0.858605 0.106895 0.062783
v 0.957026 0.076984 0.069797
v 0.866331 0.114830 0.060923
v 0.810328 0.125478 0.058426
v 0.805395 0.136785 0.055775
v 0.705731 0.106856 0.062793
v 0.866331 0.114830 0.060923
v 0.957026 0.076984 0.069797
v 0.873525 0.125937 0.058319
v 0.805395 0.136785 0.055775
v 0.801868 0.148525 0.053022
v 0.705731 0.106856 0.062793
v 0.879073 0.137587 0.055587
v 0.975826 0.106597 0.062854
v 0.883037 0.149439 0.052807
v 0.997123 0.255041 0.028044
v 0.988490 0.291287 0.019544
v 0.875170 0.221431 0.035925
v 0.904140 0.385077 -0.002448
v 0.861367 0.233353 0.033130
v 0.930644 0.370497 0.000970
v -0.531728 0.100548 0.064273
v -0.416274 0.076984 0.069797
v -0.522947 0.102135 0.063900
v -0.540638 0.102108 0.063907
v -0.548818 0.106783 0.062810
v -0.667569 0.106856 0.062793
v -0.522947 0.102135 0.063900
v -0.416274 0.076984 0.069797
v -0.514696 0.106895 0.062783
v -0.548818 0.106783 0.062810
v -0.556261 0.114572 0.060983
v -0.667569 0.106856 0.062793
v -0.556261 0.114572 0.060983
v -0.562973 0.125478 0.058426
v -0.667569 0.106856 0.062793
v -0.514696 0.106895 0.062783
v -0.416274 0.076984 0.069797
v -0.506969 0.114830 0.060923
v -0.562973 0.125478 0.058426
v -0.567905 0.136785 0.055775
v -0.667569 0.106856 0.062793
v -0.506969 0.114830 0.060923
v -0.416274 0.076984 0.069797
v -0.499776 0.125937 0.058319
v -0.567905 0.136785 0.055775
v -0.571431 0.148525 0.053022
v -0.667569 0.106856 0.062793
v -0.494228 0.137587 0.055587
v -0.397473 0.106597 0.062854
v -0.490264 0.149439 0.052807
v -0.376178 0.255041 0.028044
v -0.384810 0.291287 0.019544
v -0.498130 0.221431 0.035925
v -0.469161 0.385077 -0.002448
v -0.511934 0.233353 0.033130
v -0.442657 0.370497 0.000970
v 0.181530 0.022882 0.005591
v 0.168434 0.049914 -0.000900
v 0.189614 0.029566 0.003985
v 0.078138 0.029361 0.004035
v 0.086490 0.061431 -0.003665
v 0.144765 0.029361 0.004035
v 0.195319 0.181506 -0.032494
v 0.337036 0.172833 -0.030412
v 0.200989 0.169309 -0.029566
v 0.205891 0.158501 -0.026971
v 0.210021 0.149077 -0.024708
v 0.213378 0.141051 -0.022781
v 0.192318 0.174030 -0.030699
v 0.188572 0.164502 -0.028411
v 0.109237 0.152476 -0.025524
v 0.184087 0.152915 -0.025630
v 0.178857 0.139270 -0.022354
v 0.175626 0.130060 -0.020142
v 0.168313 0.107051 -0.014618
v 0.164225 0.093256 -0.011306
v 0.157173 0.072476 -0.006317
v 0.217919 0.128740 -0.019825
v 0.221721 0.118264 -0.017310
v 0.347248 0.130733 -0.020304
v 0.224779 0.109619 -0.015234
v 0.227096 0.102812 -0.013600
v 0.166265 0.054339 -0.001962
v 0.175429 0.093921 -0.011466
v 0.163667 0.059578 -0.003220
v 0.160637 0.065622 -0.004671
v 0.168739 0.093420 -0.011345
v 0.181530 0.039909 0.076512
v 0.189614 0.046594 0.074907
v 0.168434 0.066942 0.070022
v 0.078138 0.046388 0.074957
v 0.144765 0.046388 0.074957
v 0.086490 0.078459 0.067257
v 0.123627 0.228469 0.031240
v 0.195319 0.198534 0.038428
v 0.328350 0.226236 0.031776
v 0.200989 0.186337 0.041356
v 0.192318 0.191058 0.040222
v 0.109237 0.169504 0.045397
v 0.188572 0.181529 0.042510
v 0.184087 0.169943 0.045292
v 0.178857 0.156298 0.048568
v 0.175626 0.147088 0.050779
v 0.205891 0.175529 0.043951
v 0.210021 0.166105 0.046214
v 0.213378 0.158078 0.048141
v 0.337036 0.189860 0.040510
v 0.168313 0.124079 0.056304
v 0.157173 0.089504 0.064605
v 0.164225 0.110284 0.059616
v 0.217919 0.145768 0.051096
v 0.221721 0.135292 0.053611
v 0.224779 0.126646 0.055687
v 0.347248 0.147760 0.050618
v 0.227096 0.119840 0.057321
v 0.175429 0.110949 0.059456
v 0.166265 0.071366 0.068959
v 0.163667 0.076606 0.067702
v 0.160637 0.082650 0.066250
v 0.168739 0.110448 0.059576
v 0.373300 0.364810 -0.080361
v 0.640124 0.222675 -0.047031
v 0.461167 0.038253 -0.003785
v 0.579339 0.057503 -0.008300
v 0.576592 0.011719 0.002437
v 0.462318 0.011719 0.002437
v 0.459602 0.071429 -0.011565
v 0.457624 0.111239 -0.020901
v 0.581671 0.097403 -0.017656
v 0.579339 0.057503 -0.008300
v 0.455235 0.157688 -0.031793
v 0.585094 0.159528 -0.032224
v 0.583590 0.131413 -0.025631
v 0.457624 0.111239 -0.020901
v 0.586733 0.183105 -0.037753
v 0.452812 0.191767 -0.039784
v 0.452812 0.191767 -0.039784
v 0.451559 0.208504 -0.043709
v 0.588106 0.201885 -0.042156
v 0.586733 0.183105 -0.037753
v 0.589213 0.215862 -0.045434
v 0.588106 0.201885 -0.042156
v 0.451559 0.208504 -0.043709
v 0.450274 0.225043 -0.047587
v 0.590054 0.225041 -0.047586
v 0.373300 0.364810 -0.080361
v -0.250497 0.119069 -0.022736
v -0.160536 0.247569 -0.052869
v -0.077191 0.119991 -0.022953
v -0.160536 0.003218 0.004430
v -0.356275 0.364809 -0.080361
v -0.220981 0.364809 -0.080361
v -0.216803 0.355126 -0.078090
v -0.352242 0.315241 -0.068738
v -0.098438 0.364810 -0.080362
v 0.025285 0.364810 -0.080362
v 0.023438 0.335701 -0.073536
v -0.105657 0.348588 -0.076558
v -0.250497 0.119069 -0.022736
v -0.340273 0.082522 -0.014166
v -0.077191 0.119991 -0.022953
v 0.012713 0.105162 -0.019475
v -0.077191 0.119991 -0.022953
v -0.160536 0.247569 -0.052869
v 0.014052 0.148178 -0.029562
v 0.012713 0.105162 -0.019475
v -0.348896 0.269523 -0.058017
v -0.196662 0.310556 -0.067639
v 0.021209 0.296649 -0.064379
v -0.112190 0.334407 -0.073232
v 0.021209 0.296649 -0.064379
v 0.018597 0.247654 -0.052890
v -0.123230 0.312167 -0.068017
v -0.118051 0.322264 -0.070385
v -0.348896 0.269523 -0.058017
v -0.196662 0.310556 -0.067639
v -0.189443 0.296621 -0.064372
v -0.346222 0.227656 -0.048200
v -0.171382 0.265125 -0.056985
v -0.344229 0.189640 -0.039285
v -0.346222 0.227656 -0.048200
v -0.181019 0.281476 -0.060820
v -0.171382 0.265125 -0.056985
v -0.160536 0.247569 -0.052869
v -0.250497 0.119069 -0.022736
v -0.344229 0.189640 -0.039285
v 0.015604 0.188720 -0.039070
v -0.154395 0.257470 -0.055191
v 0.015604 0.188720 -0.039070
v 0.014052 0.148178 -0.029562
v -0.160536 0.247569 -0.052869
v -0.154395 0.257470 -0.055191
v -1.000000 0.364810 -0.080361
v -0.733176 0.222675 -0.047031
v -0.912133 0.038253 -0.003785
v -0.793961 0.057503 -0.008300
v -0.796708 0.011719 0.002437
v -0.910982 0.011719 0.002437
v -0.913699 0.071429 -0.011565
v -0.915677 0.111239 -0.020901
v -0.791630 0.097403 -0.017656
v -0.793961 0.057503 -0.008300
v -0.918066 0.157688 -0.031793
v -0.788206 0.159528 -0.032224
v -0.789710 0.131413 -0.025631
v -0.915677 0.111239 -0.020901
v -0.786567 0.183105 -0.037753
v -0.920489 0.191767 -0.039784
v -0.921741 0.208504 -0.043709
v -0.784087 0.215862 -0.045434
v -0.923027 0.225043 -0.047587
v -0.783247 0.225041 -0.047586
v -0.784087 0.215862 -0.045434
v -0.921741 0.208504 -0.043709
v 0.807050 0.003693 0.004319
v 0.775986 0.014761 0.001723
v 0.748375 0.033225 -0.002606
v 0.841568 0.000000 0.005184
v 0.724222 0.059071 -0.008667
v 0.875170 0.003663 0.004326
v 0.724222 0.059071 -0.008667
v 0.932901 0.032967 -0.002545
v 0.905614 0.014649 0.001749
v 0.875170 0.003663 0.004326
v 0.724222 0.059071 -0.008667
v 0.705731 0.088481 -0.015564
v 0.957026 0.058610 -0.008559
v 0.932901 0.032967 -0.002545
v 0.957026 0.058610 -0.008559
v 0.705731 0.088481 -0.015564
v 0.832662 0.083737 -0.014451
v 0.841572 0.082167 -0.014083
v 0.705731 0.088481 -0.015564
v 0.692526 0.121079 -0.023208
v 0.799756 0.142316 -0.028187
v 0.801870 0.130149 -0.025335
v 0.692526 0.121079 -0.023208
v 0.684600 0.156868 -0.031600
v 0.799049 0.154907 -0.031140
v 0.799756 0.142316 -0.028187
v 0.957026 0.058610 -0.008559
v 0.873525 0.107563 -0.020038
v 0.879072 0.119212 -0.022770
v 0.975826 0.088223 -0.015504
v 0.975826 0.088223 -0.015504
v 0.883037 0.131063 -0.025549
v 0.885419 0.143116 -0.028375
v 0.989256 0.120967 -0.023181
v 0.989256 0.120967 -0.023181
v 0.885419 0.143116 -0.028375
v 0.886213 0.155367 -0.031248
v 0.997316 0.156841 -0.031593
v 0.684600 0.156868 -0.031600
v 0.681955 0.195850 -0.040741
v 0.801739 0.182928 -0.037712
v 0.799049 0.154907 -0.031140
v 0.681955 0.195850 -0.040741
v 0.684836 0.236854 -0.050356
v 0.809797 0.202940 -0.042404
v 0.801739 0.182928 -0.037712
v 0.693468 0.273200 -0.058879
v 0.707853 0.304897 -0.066312
v 0.809797 0.202940 -0.042404
v 0.684836 0.236854 -0.050356
v 0.883451 0.183186 -0.037771
v 1.000000 0.195850 -0.040741
v 0.997316 0.156841 -0.031593
v 0.886213 0.155367 -0.031248
v 1.000000 0.195850 -0.040741
v 0.883451 0.183186 -0.037771
v 0.875170 0.203057 -0.042431
v 0.997123 0.236666 -0.050312
v 0.707853 0.304897 -0.066312
v 0.727999 0.331935 -0.072653
v 0.823235 0.214951 -0.045220
v 0.809797 0.202940 -0.042404
v 0.751390 0.352250 -0.077417
v 0.778116 0.366764 -0.080819
v 0.823235 0.214951 -0.045220
v 0.727999 0.331935 -0.072653
v 0.778116 0.366764 -0.080819
v 0.808172 0.375469 -0.082861
v 0.842045 0.218951 -0.046158
v 0.823235 0.214951 -0.045220
v 0.841567 0.378369 -0.083541
v 0.874449 0.375454 -0.082857
v 0.842045 0.218951 -0.046158
v 0.808172 0.375469 -0.082861
v 0.904140 0.366702 -0.080805
v 0.861367 0.214979 -0.045227
v 0.842045 0.218951 -0.046158
v 0.874449 0.375454 -0.082857
v 0.861367 0.214979 -0.045227
v 0.930643 0.352122 -0.077386
v 0.953955 0.331704 -0.072599
v 0.974100 0.304596 -0.066241
v 0.988490 0.272912 -0.058812
v 0.875170 0.203057 -0.042431
v 0.861367 0.214979 -0.045227
v 0.974100 0.304596 -0.066241
v -0.566250 0.003693 0.004319
v -0.597314 0.014761 0.001723
v -0.624925 0.033225 -0.002606
v -0.531732 0.000000 0.005184
v -0.649078 0.059071 -0.008667
v -0.498130 0.003663 0.004326
v -0.649078 0.059071 -0.008667
v -0.440399 0.032967 -0.002545
v -0.467686 0.014649 0.001749
v -0.498130 0.003663 0.004326
v -0.649078 0.059071 -0.008667
v -0.667569 0.088481 -0.015564
v -0.416274 0.058610 -0.008559
v -0.440399 0.032967 -0.002545
v -0.416274 0.058610 -0.008559
v -0.667569 0.088481 -0.015564
v -0.540638 0.083737 -0.014451
v -0.531730 0.082167 -0.014083
v -0.667569 0.088481 -0.015564
v -0.680775 0.121079 -0.023208
v -0.573544 0.142316 -0.028187
v -0.571431 0.130149 -0.025335
v -0.680775 0.121079 -0.023208
v -0.688700 0.156868 -0.031600
v -0.574251 0.154907 -0.031140
v -0.573544 0.142316 -0.028187
v -0.416274 0.058610 -0.008559
v -0.499775 0.107563 -0.020038
v -0.494228 0.119212 -0.022770
v -0.397473 0.088223 -0.015504
v -0.397473 0.088223 -0.015504
v -0.490264 0.131063 -0.025549
v -0.487882 0.143116 -0.028375
v -0.384045 0.120967 -0.023181
v -0.384045 0.120967 -0.023181
v -0.487882 0.143116 -0.028375
v -0.487087 0.155366 -0.031248
v -0.375985 0.156841 -0.031593
v -0.688700 0.156868 -0.031600
v -0.691346 0.195850 -0.040741
v -0.571561 0.182928 -0.037712
v -0.574251 0.154907 -0.031140
v -0.691346 0.195850 -0.040741
v -0.688464 0.236854 -0.050356
v -0.563503 0.202940 -0.042404
v -0.571561 0.182928 -0.037712
v -0.679832 0.273200 -0.058879
v -0.665447 0.304897 -0.066312
v -0.563503 0.202940 -0.042404
v -0.688464 0.236854 -0.050356
v -0.489850 0.183186 -0.037771
v -0.373301 0.195850 -0.040741
v -0.375985 0.156841 -0.031593
v -0.487087 0.155366 -0.031248
v -0.373301 0.195850 -0.040741
v -0.489850 0.183186 -0.037771
v -0.498130 0.203057 -0.042431
v -0.376177 0.236666 -0.050312
v -0.665447 0.304897 -0.066312
v -0.645301 0.331935 -0.072653
v -0.550065 0.214950 -0.045220
v -0.563503 0.202940 -0.042404
v -0.621911 0.352250 -0.077417
v -0.595185 0.366764 -0.080819
v -0.550065 0.214950 -0.045220
v -0.645301 0.331935 -0.072653
v -0.595185 0.366764 -0.080819
v -0.565128 0.375469 -0.082861
v -0.531256 0.218950 -0.046158
v -0.550065 0.214950 -0.045220
v -0.531733 0.378369 -0.083541
v -0.498851 0.375454 -0.082857
v -0.531256 0.218950 -0.046158
v -0.565128 0.375469 -0.082861
v -0.469161 0.366702 -0.080805
v -0.511934 0.214979 -0.045227
v -0.531256 0.218950 -0.046158
v -0.498851 0.375454 -0.082857
v -0.511934 0.214979 -0.045227
v -0.442657 0.352122 -0.077386
v -0.419345 0.331704 -0.072599
v -0.399200 0.304596 -0.066241
v -0.384810 0.272912 -0.058812
v -0.498130 0.203057 -0.042431
v -0.511934 0.214979 -0.045227
v -0.399200 0.304596 -0.066241
v 0.373301 0.383184 -0.002005
v 0.640123 0.241045 0.031327
v 0.461168 0.056628 0.074572
v 0.462318 0.030094 0.080794
v 0.576592 0.030094 0.080794
v 0.579339 0.075878 0.070056
v 0.459602 0.089804 0.066791
v 0.579339 0.075878 0.070056
v 0.581670 0.115777 0.060701
v 0.457624 0.129613 0.057456
v 0.455235 0.176062 0.046564
v 0.457624 0.129613 0.057456
v 0.583589 0.149787 0.052726
v 0.585094 0.177903 0.046133
v 0.454040 0.193203 0.042544
v 0.455235 0.176062 0.046564
v 0.585094 0.177903 0.046133
v 0.586733 0.201479 0.040604
v 0.452812 0.210141 0.038573
v 0.586733 0.201479 0.040604
v 0.588106 0.220259 0.036200
v 0.451559 0.226878 0.034648
v 0.451559 0.226878 0.034648
v 0.588106 0.220259 0.036200
v 0.589213 0.234237 0.032923
v 0.450274 0.243416 0.030770
v 0.590054 0.243416 0.030770
v 0.373301 0.383184 -0.002005
v -0.250497 0.137443 0.055621
v -0.160536 0.021592 0.082787
v -0.077190 0.138365 0.055404
v -0.160536 0.265944 0.025488
v -0.216803 0.373500 0.000266
v -0.220981 0.383184 -0.002005
v -0.356276 0.383184 -0.002005
v -0.352242 0.333615 0.009620
v 0.023438 0.354075 0.004821
v 0.025285 0.383184 -0.002005
v -0.098438 0.383184 -0.002005
v -0.105657 0.366961 0.001800
v -0.250497 0.137443 0.055621
v -0.340274 0.100897 0.064190
v -0.077190 0.138365 0.055404
v 0.012713 0.123536 0.058881
v -0.077190 0.138365 0.055404
v 0.012713 0.123536 0.058881
v 0.014052 0.166552 0.048795
v -0.160536 0.265944 0.025488
v -0.204646 0.346373 0.006627
v -0.211358 0.361227 0.003145
v -0.352242 0.333615 0.009620
v -0.348895 0.287897 0.020340
v 0.021209 0.315023 0.013978
v -0.112190 0.352780 0.005124
v 0.018597 0.266029 0.025467
v -0.135744 0.308140 0.015592
v -0.346222 0.246030 0.030157
v -0.181019 0.299850 0.017537
v -0.171382 0.283500 0.021371
v -0.181019 0.299850 0.017537
v -0.346222 0.246030 0.030157
v -0.344229 0.208014 0.039072
v -0.171382 0.283500 0.021371
v -0.344229 0.208014 0.039072
v -0.250497 0.137443 0.055621
v -0.160536 0.265944 0.025488
v 0.015604 0.207095 0.039287
v -0.154395 0.275844 0.023166
v 0.015604 0.207095 0.039287
v -0.154395 0.275844 0.023166
v -0.160536 0.265944 0.025488
v 0.014052 0.166552 0.048795
v -1.000000 0.383184 -0.002005
v -0.733178 0.241045 0.031327
v -0.912133 0.056628 0.074572
v -0.910982 0.030094 0.080794
v -0.796708 0.030094 0.080794
v -0.793961 0.075878 0.070056
v -0.913699 0.089804 0.066791
v -0.793961 0.075878 0.070056
v -0.791630 0.115777 0.060701
v -0.915677 0.129613 0.057456
v -0.918066 0.176062 0.046564
v -0.915677 0.129613 0.057456
v -0.789710 0.149787 0.052726
v -0.788206 0.177903 0.046133
v -0.919260 0.193203 0.042544
v -0.918066 0.176062 0.046564
v -0.788206 0.177903 0.046133
v -0.786567 0.201479 0.040604
v -0.920489 0.210141 0.038573
v -0.786567 0.201479 0.040604
v -0.785195 0.220259 0.036200
v -0.921741 0.226878 0.034648
v -0.921741 0.226878 0.034648
v -0.785195 0.220259 0.036200
v -0.784087 0.234237 0.032923
v -0.923027 0.243416 0.030770
v -0.783245 0.243416 0.030770
v -1.000000 0.383184 -0.002005
v 0.748376 0.051599 0.075750
v 0.775988 0.033136 0.080079
v 0.807050 0.022067 0.082676
v 0.841567 0.018372 0.083541
v 0.724222 0.077446 0.069690
v 0.875170 0.022035 0.082684
v 0.905614 0.033023 0.080106
v 0.932901 0.051342 0.075811
v 0.724222 0.077446 0.069690
v 0.875170 0.022035 0.082684
v 0.724222 0.077446 0.069690
v 0.932901 0.051342 0.075811
v 0.957026 0.076984 0.069797
v 0.705731 0.106856 0.062793
v 0.832662 0.102108 0.063907
v 0.705731 0.106856 0.062793
v 0.957026 0.076984 0.069797
v 0.841573 0.100548 0.064273
v 0.799756 0.160690 0.050169
v 0.692526 0.139454 0.055148
v 0.705731 0.106856 0.062793
v 0.801868 0.148525 0.053022
v 0.799049 0.173281 0.047216
v 0.684600 0.175243 0.046756
v 0.692526 0.139454 0.055148
v 0.799756 0.160690 0.050169
v 0.879073 0.137587 0.055587
v 0.873525 0.125937 0.058319
v 0.957026 0.076984 0.069797
v 0.975826 0.106597 0.062854
v 0.885419 0.161490 0.049981
v 0.883037 0.149439 0.052807
v 0.975826 0.106597 0.062854
v 0.989255 0.139341 0.055175
v 0.886213 0.173740 0.047109
v 0.885419 0.161490 0.049981
v 0.989255 0.139341 0.055175
v 0.997316 0.175214 0.046763
v 0.801739 0.201302 0.040645
v 0.681955 0.214224 0.037616
v 0.684600 0.175243 0.046756
v 0.799049 0.173281 0.047216
v 0.809798 0.221315 0.035952
v 0.684836 0.255228 0.028000
v 0.681955 0.214224 0.037616
v 0.801739 0.201302 0.040645
v 0.809798 0.221315 0.035952
v 0.707854 0.323271 0.012045
v 0.693468 0.291574 0.019478
v 0.684836 0.255228 0.028000
v 0.883450 0.201561 0.040585
v 0.886213 0.173740 0.047109
v 0.997316 0.175214 0.046763
v 1.000000 0.214224 0.037616
v 0.875170 0.221431 0.035925
v 0.883450 0.201561 0.040585
v 1.000000 0.214224 0.037616
v 0.997123 0.255041 0.028044
v 0.707854 0.323271 0.012045
v 0.809798 0.221315 0.035952
v 0.823236 0.233325 0.033136
v 0.727998 0.350309 0.005703
v 0.823236 0.233325 0.033136
v 0.778115 0.385138 -0.002462
v 0.751389 0.370624 0.000940
v 0.727998 0.350309 0.005703
v 0.842045 0.237325 0.032199
v 0.808172 0.393843 -0.004504
v 0.778115 0.385138 -0.002462
v 0.823236 0.233325 0.033136
v 0.841567 0.396743 -0.005184
v 0.808172 0.393843 -0.004504
v 0.842045 0.237325 0.032199
v 0.874449 0.393829 -0.004501
v 0.904140 0.385077 -0.002448
v 0.874449 0.393829 -0.004501
v 0.842045 0.237325 0.032199
v 0.861367 0.233353 0.033130
v 0.953955 0.350078 0.005758
v 0.930644 0.370497 0.000970
v 0.861367 0.233353 0.033130
v 0.974101 0.322970 0.012115
v 0.988490 0.291287 0.019544
v 0.974101 0.322970 0.012115
v 0.861367 0.233353 0.033130
v 0.875170 0.221431 0.035925
v -0.624924 0.051599 0.075750
v -0.597313 0.033136 0.080079
v -0.566250 0.022067 0.082676
v -0.531733 0.018372 0.083541
v -0.649078 0.077446 0.069690
v -0.498131 0.022035 0.082684
v -0.467686 0.033023 0.080106
v -0.440399 0.051342 0.075811
v -0.649078 0.077446 0.069690
v -0.498131 0.022035 0.082684
v -0.649078 0.077446 0.069690
v -0.440399 0.051342 0.075811
v -0.416274 0.076984 0.069797
v -0.667569 0.106856 0.062793
v -0.540638 0.102108 0.063907
v -0.667569 0.106856 0.062793
v -0.416274 0.076984 0.069797
v -0.531728 0.100548 0.064273
v -0.573544 0.160690 0.050169
v -0.680775 0.139454 0.055148
v -0.667569 0.106856 0.062793
v -0.571431 0.148525 0.053022
v -0.574251 0.173281 0.047216
v -0.688700 0.175243 0.046756
v -0.680775 0.139454 0.055148
v -0.573544 0.160690 0.050169
v -0.494228 0.137587 0.055587
v -0.499776 0.125937 0.058319
v -0.416274 0.076984 0.069797
v -0.397473 0.106597 0.062854
v -0.487882 0.161490 0.049981
v -0.490264 0.149439 0.052807
v -0.397473 0.106597 0.062854
v -0.384045 0.139341 0.055175
v -0.487088 0.173740 0.047109
v -0.487882 0.161490 0.049981
v -0.384045 0.139341 0.055175
v -0.375985 0.175214 0.046763
v -0.571561 0.201302 0.040645
v -0.691346 0.214224 0.037616
v -0.688700 0.175243 0.046756
v -0.574251 0.173281 0.047216
v -0.563502 0.221315 0.035952
v -0.688464 0.255228 0.028000
v -0.691346 0.214224 0.037616
v -0.571561 0.201302 0.040645
v -0.563502 0.221315 0.035952
v -0.665446 0.323271 0.012045
v -0.679832 0.291574 0.019478
v -0.688464 0.255228 0.028000
v -0.489850 0.201561 0.040585
v -0.487088 0.173740 0.047109
v -0.375985 0.175214 0.046763
v -0.373301 0.214224 0.037616
v -0.498130 0.221431 0.035925
v -0.489850 0.201561 0.040585
v -0.373301 0.214224 0.037616
v -0.376178 0.255041 0.028044
v -0.665446 0.323271 0.012045
v -0.563502 0.221315 0.035952
v -0.550065 0.233325 0.033136
v -0.645301 0.350309 0.005703
v -0.550065 0.233325 0.033136
v -0.595185 0.385138 -0.002462
v -0.621912 0.370624 0.000940
v -0.645301 0.350309 0.005703
v -0.531256 0.237325 0.032199
v -0.565128 0.393843 -0.004504
v -0.595185 0.385138 -0.002462
v -0.550065 0.233325 0.033136
v -0.531733 0.396743 -0.005184
v -0.565128 0.393843 -0.004504
v -0.531256 0.237325 0.032199
v -0.498852 0.393829 -0.004501
v -0.469161 0.385077 -0.002448
v -0.498852 0.393829 -0.004501
v -0.531256 0.237325 0.032199
v -0.511934 0.233353 0.033130
v -0.419345 0.350078 0.005758
v -0.442657 0.370497 0.000970
v -0.511934 0.233353 0.033130
v -0.399200 0.322970 0.012115
v -0.384810 0.291287 0.019544
v -0.399200 0.322970 0.012115
v -0.511934 0.233353 0.033130
v -0.498130 0.221431 0.035925
v 0.667028 0.383184 -0.002005
v 0.660180 0.238591 0.031901
v 0.660181 0.220217 -0.046455
v 0.667028 0.364809 -0.080361
v 0.660180 0.238591 0.031901
v 0.654881 0.239321 0.031730
v 0.654882 0.220946 -0.046626
v 0.660181 0.220217 -0.046455
v 0.373301 0.383184 -0.002005
v 0.667028 0.383184 -0.002005
v 0.667028 0.364809 -0.080361
v 0.373300 0.364810 -0.080361
v 0.654881 0.239321 0.031730
v 0.648198 0.240141 0.031538
v 0.648197 0.221766 -0.046818
v 0.654882 0.220946 -0.046626
v 0.648198 0.240141 0.031538
v 0.640123 0.241045 0.031327
v 0.640124 0.222675 -0.047031
v 0.648197 0.221766 -0.046818
v 0.640123 0.241045 0.031327
v 0.630665 0.242037 0.031093
v 0.630668 0.223669 -0.047265
v 0.640124 0.222675 -0.047031
v 0.630665 0.242037 0.031093
v 0.623435 0.242381 0.031013
v 0.623435 0.224006 -0.047344
v 0.630668 0.223669 -0.047265
v 0.623435 0.242381 0.031013
v 0.614256 0.242729 0.030931
v 0.614256 0.224354 -0.047425
v 0.623435 0.224006 -0.047344
v 0.614256 0.242729 0.030931
v 0.603125 0.243073 0.030850
v 0.603125 0.224698 -0.047506
v 0.614256 0.224354 -0.047425
v 0.603125 0.243073 0.030850
v 0.590054 0.243416 0.030770
v 0.590054 0.225041 -0.047586
v 0.603125 0.224698 -0.047506
v 0.412972 0.242037 0.031093
v 0.379205 0.238591 0.031901
v 0.379205 0.220217 -0.046455
v 0.412972 0.223663 -0.047264
v 0.379205 0.238591 0.031901
v 0.373301 0.383184 -0.002005
v 0.373300 0.364810 -0.080361
v 0.379205 0.220217 -0.046455
v 0.462318 0.030094 0.080794
v 0.461168 0.056628 0.074572
v 0.461167 0.038253 -0.003785
v 0.462318 0.011719 0.002437
v 0.576592 0.030094 0.080794
v 0.462318 0.030094 0.080794
v 0.462318 0.011719 0.002437
v 0.576592 0.011719 0.002437
v 0.579339 0.075878 0.070056
v 0.576592 0.030094 0.080794
v 0.576592 0.011719 0.002437
v 0.579339 0.057503 -0.008300
v 0.461168 0.056628 0.074572
v 0.459602 0.089804 0.066791
v 0.459602 0.071429 -0.011565
v 0.461167 0.038253 -0.003785
v 0.581670 0.115777 0.060701
v 0.579339 0.075878 0.070056
v 0.579339 0.057503 -0.008300
v 0.581671 0.097403 -0.017656
v 0.459602 0.089804 0.066791
v 0.457624 0.129613 0.057456
v 0.457624 0.111239 -0.020901
v 0.459602 0.071429 -0.011565
v 0.583589 0.149787 0.052726
v 0.581670 0.115777 0.060701
v 0.581671 0.097403 -0.017656
v 0.583590 0.131413 -0.025631
v 0.457624 0.129613 0.057456
v 0.455235 0.176062 0.046564
v 0.455235 0.157688 -0.031793
v 0.457624 0.111239 -0.020901
v 0.585094 0.177903 0.046133
v 0.583589 0.149787 0.052726
v 0.583590 0.131413 -0.025631
v 0.585094 0.159528 -0.032224
v 0.455235 0.176062 0.046564
v 0.454040 0.193203 0.042544
v 0.454040 0.174828 -0.035811
v 0.455235 0.157688 -0.031793
v 0.586733 0.201479 0.040604
v 0.585094 0.177903 0.046133
v 0.585094 0.159528 -0.032224
v 0.586733 0.183105 -0.037753
v 0.454040 0.193203 0.042544
v 0.452812 0.210141 0.038573
v 0.452812 0.191767 -0.039784
v 0.454040 0.174828 -0.035811
v 0.588106 0.220259 0.036200
v 0.586733 0.201479 0.040604
v 0.586733 0.183105 -0.037753
v 0.588106 0.201885 -0.042156
v 0.452812 0.210141 0.038573
v 0.451559 0.226878 0.034648
v 0.451559 0.208504 -0.043709
v 0.452812 0.191767 -0.039784
v 0.589213 0.234237 0.032923
v 0.588106 0.220259 0.036200
v 0.588106 0.201885 -0.042156
v 0.589213 0.215862 -0.045434
v 0.451559 0.226878 0.034648
v 0.450274 0.243416 0.030770
v 0.450274 0.225043 -0.047587
v 0.451559 0.208504 -0.043709
v 0.590054 0.243416 0.030770
v 0.589213 0.234237 0.032923
v 0.589213 0.215862 -0.045434
v 0.590054 0.225041 -0.047586
v 0.450274 0.243416 0.030770
v 0.412972 0.242037 0.031093
v 0.412972 0.223663 -0.047264
v 0.450274 0.225043 -0.047587
v -0.160536 0.021592 0.082787
v -0.250497 0.137443 0.055621
v -0.250497 0.119069 -0.022736
v -0.160536 0.003218 0.004430
v -0.077190 0.138365 0.055404
v -0.160536 0.021592 0.082787
v -0.160536 0.003218 0.004430
v -0.077191 0.119991 -0.022953
v -0.356276 0.383184 -0.002005
v -0.220981 0.383184 -0.002005
v -0.220981 0.364809 -0.080361
v -0.356275 0.364809 -0.080361
v -0.352242 0.333615 0.009620
v -0.356276 0.383184 -0.002005
v -0.356275 0.364809 -0.080361
v -0.352242 0.315241 -0.068738
v -0.220981 0.383184 -0.002005
v -0.216803 0.373500 0.000266
v -0.216803 0.355126 -0.078090
v -0.220981 0.364809 -0.080361
v -0.098438 0.383184 -0.002005
v 0.025285 0.383184 -0.002005
v 0.025285 0.364810 -0.080362
v -0.098438 0.364810 -0.080362
v 0.025285 0.383184 -0.002005
v 0.023438 0.354075 0.004821
v 0.023438 0.335701 -0.073536
v 0.025285 0.364810 -0.080362
v -0.252857 0.030094 0.080794
v -0.337856 0.030094 0.080794
v -0.337856 0.011720 0.002437
v -0.252857 0.011720 0.002437
v -0.250497 0.137443 0.055621
v -0.252857 0.030094 0.080794
v -0.252857 0.011720 0.002437
v -0.250497 0.119069 -0.022736
v -0.337856 0.030094 0.080794
v -0.338876 0.060954 0.073556
v -0.338876 0.042579 -0.004800
v -0.337856 0.011720 0.002437
v -0.338876 0.060954 0.073556
v -0.340274 0.100897 0.064190
v -0.340273 0.082522 -0.014166
v -0.338876 0.042579 -0.004800
v -0.340274 0.100897 0.064190
v -0.342063 0.149914 0.052696
v -0.342063 0.131540 -0.025661
v -0.340273 0.082522 -0.014166
v -0.074826 0.030094 0.080794
v -0.077190 0.138365 0.055404
v -0.077191 0.119991 -0.022953
v -0.074826 0.011720 0.002437
v 0.010643 0.030094 0.080794
v -0.074826 0.030094 0.080794
v -0.074826 0.011720 0.002437
v 0.010642 0.011720 0.002437
v 0.011576 0.078048 0.069548
v 0.010643 0.030094 0.080794
v 0.010642 0.011720 0.002437
v 0.011576 0.059674 -0.008809
v 0.012713 0.123536 0.058881
v 0.011576 0.078048 0.069548
v 0.011576 0.059674 -0.008809
v 0.012713 0.105162 -0.019475
v 0.014052 0.166552 0.048795
v 0.012713 0.123536 0.058881
v 0.012713 0.105162 -0.019475
v 0.014052 0.148178 -0.029562
v -0.216803 0.373500 0.000266
v -0.211358 0.361227 0.003145
v -0.211358 0.342853 -0.075212
v -0.216803 0.355126 -0.078090
v -0.348895 0.287897 0.020340
v -0.352242 0.333615 0.009620
v -0.352242 0.315241 -0.068738
v -0.348896 0.269523 -0.058017
v -0.211358 0.361227 0.003145
v -0.204646 0.346373 0.006627
v -0.204646 0.327999 -0.071730
v -0.211358 0.342853 -0.075212
v -0.204646 0.346373 0.006627
v -0.196662 0.328931 0.010717
v -0.196662 0.310556 -0.067639
v -0.204646 0.327999 -0.071730
v -0.342063 0.149914 0.052696
v -0.344229 0.208014 0.039072
v -0.344229 0.189640 -0.039285
v -0.342063 0.131540 -0.025661
v 0.023438 0.354075 0.004821
v 0.021209 0.315023 0.013978
v 0.021209 0.296649 -0.064379
v 0.023438 0.335701 -0.073536
v -0.105657 0.366961 0.001800
v -0.098438 0.383184 -0.002005
v -0.098438 0.364810 -0.080362
v -0.105657 0.348588 -0.076558
v -0.112190 0.352780 0.005124
v -0.105657 0.366961 0.001800
v -0.105657 0.348588 -0.076558
v -0.112190 0.334407 -0.073232
v -0.118050 0.340639 0.007972
v -0.112190 0.352780 0.005124
v -0.112190 0.334407 -0.073232
v -0.118051 0.322264 -0.070385
v 0.021209 0.315023 0.013978
v 0.018597 0.266029 0.025467
v 0.018597 0.247654 -0.052890
v 0.021209 0.296649 -0.064379
v -0.123230 0.330541 0.010340
v -0.118050 0.340639 0.007972
v -0.118051 0.322264 -0.070385
v -0.123230 0.312167 -0.068017
v -0.135744 0.308140 0.015592
v -0.123230 0.330541 0.010340
v -0.123230 0.312167 -0.068017
v -0.135744 0.289767 -0.062765
v -0.346222 0.246030 0.030157
v -0.348895 0.287897 0.020340
v -0.348896 0.269523 -0.058017
v -0.346222 0.227656 -0.048200
v -0.196662 0.328931 0.010717
v -0.189443 0.314995 0.013985
v -0.189443 0.296621 -0.064372
v -0.196662 0.310556 -0.067639
v -0.189443 0.314995 0.013985
v -0.181019 0.299850 0.017537
v -0.181019 0.281476 -0.060820
v -0.189443 0.296621 -0.064372
v -0.181019 0.299850 0.017537
v -0.171382 0.283500 0.021371
v -0.171382 0.265125 -0.056985
v -0.181019 0.281476 -0.060820
v -0.344229 0.208014 0.039072
v -0.346222 0.246030 0.030157
v -0.346222 0.227656 -0.048200
v -0.344229 0.189640 -0.039285
v -0.171382 0.283500 0.021371
v -0.160536 0.265944 0.025488
v -0.160536 0.247569 -0.052869
v -0.171382 0.265125 -0.056985
v 0.018597 0.266029 0.025467
v 0.015604 0.207095 0.039287
v 0.015604 0.188720 -0.039070
v 0.018597 0.247654 -0.052890
v -0.146136 0.289907 0.019869
v -0.135744 0.308140 0.015592
v -0.135744 0.289767 -0.062765
v -0.146136 0.271533 -0.058488
v -0.154395 0.275844 0.023166
v -0.146136 0.289907 0.019869
v -0.146136 0.271533 -0.058488
v -0.154395 0.257470 -0.055191
v -0.160536 0.265944 0.025488
v -0.154395 0.275844 0.023166
v -0.154395 0.257470 -0.055191
v -0.160536 0.247569 -0.052869
v 0.015604 0.207095 0.039287
v 0.014052 0.166552 0.048795
v 0.014052 0.148178 -0.029562
v 0.015604 0.188720 -0.039070
v -0.706273 0.383184 -0.002005
v -0.713120 0.238591 0.031901
v -0.713119 0.220217 -0.046455
v -0.706272 0.364810 -0.080361
v -0.713120 0.238591 0.031901
v -0.718420 0.239321 0.031730
v -0.718419 0.220946 -0.046626
v -0.713119 0.220217 -0.046455
v -1.000000 0.383184 -0.002005
v -0.706273 0.383184 -0.002005
v -0.706272 0.364810 -0.080361
v -1.000000 0.364810 -0.080361
v -0.718420 0.239321 0.031730
v -0.725103 0.240141 0.031538
v -0.725103 0.221766 -0.046818
v -0.718419 0.220946 -0.046626
v -0.725103 0.240141 0.031538
v -0.733178 0.241045 0.031327
v -0.733176 0.222675 -0.047031
v -0.725103 0.221766 -0.046818
v -0.733178 0.241045 0.031327
v -0.742636 0.242037 0.031093
v -0.742632 0.223669 -0.047265
v -0.733176 0.222675 -0.047031
v -0.742636 0.242037 0.031093
v -0.749866 0.242381 0.031013
v -0.749866 0.224006 -0.047344
v -0.742632 0.223669 -0.047265
v -0.749866 0.242381 0.031013
v -0.759044 0.242729 0.030931
v -0.759045 0.224354 -0.047425
v -0.749866 0.224006 -0.047344
v -0.759044 0.242729 0.030931
v -0.770175 0.243073 0.030850
v -0.770175 0.224698 -0.047506
v -0.759045 0.224354 -0.047425
v -0.770175 0.243073 0.030850
v -0.783245 0.243416 0.030770
v -0.783247 0.225041 -0.047586
v -0.770175 0.224698 -0.047506
v -0.960329 0.242037 0.031093
v -0.994096 0.238591 0.031901
v -0.994096 0.220217 -0.046455
v -0.960329 0.223663 -0.047264
v -0.994096 0.238591 0.031901
v -1.000000 0.383184 -0.002005
v -1.000000 0.364810 -0.080361
v -0.994096 0.220217 -0.046455
v -0.910982 0.030094 0.080794
v -0.912133 0.056628 0.074572
v -0.912133 0.038253 -0.003785
v -0.910982 0.011719 0.002437
v -0.796708 0.030094 0.080794
v -0.910982 0.030094 0.080794
v -0.910982 0.011719 0.002437
v -0.796708 0.011719 0.002437
v -0.793961 0.075878 0.070056
v -0.796708 0.030094 0.080794
v -0.796708 0.011719 0.002437
v -0.793961 0.057503 -0.008300
v -0.912133 0.056628 0.074572
v -0.913699 0.089804 0.066791
v -0.913699 0.071429 -0.011565
v -0.912133 0.038253 -0.003785
v -0.791630 0.115777 0.060701
v -0.793961 0.075878 0.070056
v -0.793961 0.057503 -0.008300
v -0.791630 0.097403 -0.017656
v -0.913699 0.089804 0.066791
v -0.915677 0.129613 0.057456
v -0.915677 0.111239 -0.020901
v -0.913699 0.071429 -0.011565
v -0.789710 0.149787 0.052726
v -0.791630 0.115777 0.060701
v -0.791630 0.097403 -0.017656
v -0.789710 0.131413 -0.025631
v -0.915677 0.129613 0.057456
v -0.918066 0.176062 0.046564
v -0.918066 0.157688 -0.031793
v -0.915677 0.111239 -0.020901
v -0.788206 0.177903 0.046133
v -0.789710 0.149787 0.052726
v -0.789710 0.131413 -0.025631
v -0.788206 0.159528 -0.032224
v -0.918066 0.176062 0.046564
v -0.919260 0.193203 0.042544
v -0.919260 0.174828 -0.035811
v -0.918066 0.157688 -0.031793
v -0.786567 0.201479 0.040604
v -0.788206 0.177903 0.046133
v -0.788206 0.159528 -0.032224
v -0.786567 0.183105 -0.037753
v -0.919260 0.193203 0.042544
v -0.920489 0.210141 0.038573
v -0.920489 0.191767 -0.039784
v -0.919260 0.174828 -0.035811
v -0.785195 0.220259 0.036200
v -0.786567 0.201479 0.040604
v -0.786567 0.183105 -0.037753
v -0.785194 0.201885 -0.042156
v -0.920489 0.210141 0.038573
v -0.921741 0.226878 0.034648
v -0.921741 0.208504 -0.043709
v -0.920489 0.191767 -0.039784
v -0.784087 0.234237 0.032923
v -0.785195 0.220259 0.036200
v -0.785194 0.201885 -0.042156
v -0.784087 0.215862 -0.045434
v -0.921741 0.226878 0.034648
v -0.923027 0.243416 0.030770
v -0.923027 0.225043 -0.047587
v -0.921741 0.208504 -0.043709
v -0.783245 0.243416 0.030770
v -0.784087 0.234237 0.032923
v -0.784087 0.215862 -0.045434
v -0.783247 0.225041 -0.047586
v -0.923027 0.243416 0.030770
v -0.960329 0.242037 0.031093
v -0.960329 0.223663 -0.047264
v -0.923027 0.225043 -0.047587
v 0.807050 0.022067 0.082676
v 0.775988 0.033136 0.080079
v 0.775986 0.014761 0.001723
v 0.807050 0.003693 0.004319
v 0.748376 0.051599 0.075750
v 0.748375 0.033225 -0.002606
v 0.724222 0.077446 0.069690
v 0.724222 0.059071 -0.008667
v 0.841567 0.018372 0.083541
v 0.841568 0.000000 0.005184
v 0.875170 0.022035 0.082684
v 0.875170 0.003663 0.004326
v 0.905614 0.033023 0.080106
v 0.905614 0.014649 0.001749
v 0.932901 0.051342 0.075811
v 0.932901 0.032967 -0.002545
v 0.957026 0.076984 0.069797
v 0.957026 0.058610 -0.008559
v 0.705731 0.106856 0.062793
v 0.705731 0.088481 -0.015564
v 0.832662 0.102108 0.063907
v 0.841573 0.100548 0.064273
v 0.841572 0.082167 -0.014083
v 0.832662 0.083737 -0.014451
v 0.850354 0.102135 0.063900
v 0.850352 0.083754 -0.014455
v 0.824483 0.106783 0.062810
v 0.824483 0.088409 -0.015546
v 0.858605 0.106895 0.062783
v 0.858605 0.088522 -0.015574
v 0.817039 0.114572 0.060983
v 0.817039 0.096196 -0.017373
v 0.810328 0.125478 0.058426
v 0.810327 0.107106 -0.019931
v 0.866331 0.114830 0.060923
v 0.866333 0.096458 -0.017434
v 0.805395 0.136785 0.055775
v 0.805396 0.118411 -0.022582
v 0.873525 0.125937 0.058319
v 0.873525 0.107563 -0.020038
v 0.801868 0.148525 0.053022
v 0.801870 0.130149 -0.025335
v 0.692526 0.139454 0.055148
v 0.692526 0.121079 -0.023208
v 0.799756 0.160690 0.050169
v 0.799756 0.142316 -0.028187
v 0.684600 0.175243 0.046756
v 0.684600 0.156868 -0.031600
v 0.799049 0.173281 0.047216
v 0.799049 0.154907 -0.031140
v 0.975826 0.106597 0.062854
v 0.975826 0.088223 -0.015504
v 0.879073 0.137587 0.055587
v 0.879072 0.119212 -0.022770
v 0.883037 0.149439 0.052807
v 0.883037 0.131063 -0.025549
v 0.989255 0.139341 0.055175
v 0.989256 0.120967 -0.023181
v 0.885419 0.161490 0.049981
v 0.885419 0.143116 -0.028375
v 0.997316 0.175214 0.046763
v 0.997316 0.156841 -0.031593
v 0.886213 0.173740 0.047109
v 0.886213 0.155367 -0.031248
v 0.681955 0.214224 0.037616
v 0.681955 0.195850 -0.040741
v 0.801739 0.201302 0.040645
v 0.801739 0.182928 -0.037712
v 0.684836 0.255228 0.028000
v 0.684836 0.236854 -0.050356
v 0.809798 0.221315 0.035952
v 0.809797 0.202940 -0.042404
v 0.693468 0.291574 0.019478
v 0.693468 0.273200 -0.058879
v 0.707854 0.323271 0.012045
v 0.707853 0.304897 -0.066312
v 0.883450 0.201561 0.040585
v 0.883451 0.183186 -0.037771
v 1.000000 0.214224 0.037616
v 1.000000 0.195850 -0.040741
v 0.997123 0.255041 0.028044
v 0.997123 0.236666 -0.050312
v 0.875170 0.221431 0.035925
v 0.875170 0.203057 -0.042431
v 0.988490 0.291287 0.019544
v 0.988490 0.272912 -0.058812
v 0.823236 0.233325 0.033136
v 0.823235 0.214951 -0.045220
v 0.727998 0.350309 0.005703
v 0.727999 0.331935 -0.072653
v 0.751389 0.370624 0.000940
v 0.751390 0.352250 -0.077417
v 0.778115 0.385138 -0.002462
v 0.778116 0.366764 -0.080819
v 0.808172 0.393843 -0.004504
v 0.808172 0.375469 -0.082861
v 0.842045 0.237325 0.032199
v 0.842045 0.218951 -0.046158
v 0.841567 0.396743 -0.005184
v 0.841567 0.378369 -0.083541
v 0.874449 0.393829 -0.004501
v 0.874449 0.375454 -0.082857
v 0.904140 0.385077 -0.002448
v 0.904140 0.366702 -0.080805
v 0.861367 0.233353 0.033130
v 0.861367 0.214979 -0.045227
v 0.930644 0.370497 0.000970
v 0.930643 0.352122 -0.077386
v 0.953955 0.350078 0.005758
v 0.953955 0.331704 -0.072599
v 0.974101 0.322970 0.012115
v 0.974100 0.304596 -0.066241
v -0.566250 0.022067 0.082676
v -0.597313 0.033136 0.080079
v -0.597314 0.014761 0.001723
v -0.566250 0.003693 0.004319
v -0.624924 0.051599 0.075750
v -0.624925 0.033225 -0.002606
v -0.649078 0.077446 0.069690
v -0.649078 0.059071 -0.008667
v -0.531733 0.018372 0.083541
v -0.531732 0.000000 0.005184
v -0.498131 0.022035 0.082684
v -0.498130 0.003663 0.004326
v -0.467686 0.033023 0.080106
v -0.467686 0.014649 0.001749
v -0.440399 0.051342 0.075811
v -0.440399 0.032967 -0.002545
v -0.416274 0.076984 0.069797
v -0.416274 0.058610 -0.008559
v -0.667569 0.106856 0.062793
v -0.667569 0.088481 -0.015564
v -0.540638 0.102108 0.063907
v -0.531728 0.100548 0.064273
v -0.531730 0.082167 -0.014083
v -0.540638 0.083737 -0.014451
v -0.522947 0.102135 0.063900
v -0.522948 0.083754 -0.014455
v -0.548818 0.106783 0.062810
v -0.548817 0.088409 -0.015546
v -0.514696 0.106895 0.062783
v -0.514695 0.088522 -0.015574
v -0.556261 0.114572 0.060983
v -0.556262 0.096196 -0.017373
v -0.562973 0.125478 0.058426
v -0.562973 0.107105 -0.019931
v -0.506969 0.114830 0.060923
v -0.506968 0.096457 -0.017434
v -0.567905 0.136785 0.055775
v -0.567904 0.118411 -0.022582
v -0.499776 0.125937 0.058319
v -0.499775 0.107563 -0.020038
v -0.571431 0.148525 0.053022
v -0.571431 0.130149 -0.025335
v -0.680775 0.139454 0.055148
v -0.680775 0.121079 -0.023208
v -0.573544 0.160690 0.050169
v -0.573544 0.142316 -0.028187
v -0.688700 0.175243 0.046756
v -0.688700 0.156868 -0.031600
v -0.574251 0.173281 0.047216
v -0.574251 0.154907 -0.031140
v -0.397473 0.106597 0.062854
v -0.397473 0.088223 -0.015504
v -0.494228 0.137587 0.055587
v -0.494228 0.119212 -0.022770
v -0.490264 0.149439 0.052807
v -0.490264 0.131063 -0.025549
v -0.384045 0.139341 0.055175
v -0.384045 0.120967 -0.023181
v -0.487882 0.161490 0.049981
v -0.487882 0.143116 -0.028375
v -0.375985 0.175214 0.046763
v -0.375985 0.156841 -0.031593
v -0.487088 0.173740 0.047109
v -0.487087 0.155366 -0.031248
v -0.691346 0.214224 0.037616
v -0.691346 0.195850 -0.040741
v -0.571561 0.201302 0.040645
v -0.571561 0.182928 -0.037712
v -0.688464 0.255228 0.028000
v -0.688464 0.236854 -0.050356
v -0.563502 0.221315 0.035952
v -0.563503 0.202940 -0.042404
v -0.679832 0.291574 0.019478
v -0.679832 0.273200 -0.058879
v -0.665446 0.323271 0.012045
v -0.665447 0.304897 -0.066312
v -0.489850 0.201561 0.040585
v -0.489850 0.183186 -0.037771
v -0.373301 0.214224 0.037616
v -0.373301 0.195850 -0.040741
v -0.376178 0.255041 0.028044
v -0.376177 0.236666 -0.050312
v -0.498130 0.221431 0.035925
v -0.498130 0.203057 -0.042431
v -0.384810 0.291287 0.019544
v -0.384810 0.272912 -0.058812
v -0.550065 0.233325 0.033136
v -0.550065 0.214950 -0.045220
v -0.645301 0.350309 0.005703
v -0.645301 0.331935 -0.072653
v -0.621912 0.370624 0.000940
v -0.621911 0.352250 -0.077417
v -0.595185 0.385138 -0.002462
v -0.595185 0.366764 -0.080819
v -0.565128 0.393843 -0.004504
v -0.565128 0.375469 -0.082861
v -0.531256 0.237325 0.032199
v -0.531256 0.218950 -0.046158
v -0.531733 0.396743 -0.005184
v -0.531733 0.378369 -0.083541
v -0.498852 0.393829 -0.004501
v -0.498851 0.375454 -0.082857
v -0.469161 0.385077 -0.002448
v -0.469161 0.366702 -0.080805
v -0.511934 0.233353 0.033130
v -0.511934 0.214979 -0.045227
v -0.442657 0.370497 0.000970
v -0.442657 0.352122 -0.077386
v -0.419345 0.350078 0.005758
v -0.419345 0.331704 -0.072599
v -0.399200 0.322970 0.012115
v -0.399200 0.304596 -0.066241
v 0.358979 0.082909 -0.008822
v 0.372234 0.029361 0.004035
v 0.246552 0.029361 0.004035
v 0.238054 0.059074 -0.003099
v 0.096862 0.102474 -0.013519
v 0.197327 0.035556 0.002547
v 0.148402 0.333889 -0.069080
v 0.155108 0.372530 -0.078357
v 0.293194 0.372530 -0.078357
v 0.297806 0.349167 -0.072748
v 0.305203 0.314159 -0.064343
v 0.140920 0.294164 -0.059542
v 0.315381 0.267506 -0.053142
v 0.132662 0.253349 -0.049743
v 0.328350 0.209209 -0.039145
v 0.123627 0.211442 -0.039681
v 0.172115 0.119320 -0.017564
v 0.218678 0.100550 -0.013057
v 0.234421 0.057468 -0.002714
v 0.210578 0.098647 -0.012600
v 0.228802 0.054659 -0.002039
v 0.221208 0.050651 -0.001077
v 0.202792 0.097103 -0.012230
v 0.211627 0.045444 0.000173
v 0.195319 0.095920 -0.011945
v 0.184288 0.094754 -0.011666
v 0.204663 0.040850 0.001276
v 0.293194 0.372530 -0.078357
v 0.155108 0.372530 -0.078357
v 0.155108 0.389557 -0.007436
v 0.293194 0.389557 -0.007436
v 0.155108 0.372530 -0.078357
v 0.148402 0.333889 -0.069080
v 0.148402 0.350917 0.001842
v 0.155108 0.389557 -0.007436
v 0.140920 0.294164 -0.059542
v 0.140920 0.311191 0.011379
v 0.132662 0.253349 -0.049743
v 0.132662 0.270377 0.021178
v 0.123627 0.211442 -0.039681
v 0.123627 0.228469 0.031240
v 0.109237 0.152476 -0.025524
v 0.109237 0.169504 0.045397
v 0.096862 0.102474 -0.013519
v 0.096862 0.119502 0.057403
v 0.086490 0.061431 -0.003665
v 0.086490 0.078459 0.067257
v 0.078138 0.029361 0.004035
v 0.078138 0.046388 0.074957
v 0.078138 0.029361 0.004035
v 0.144765 0.029361 0.004035
v 0.144765 0.046388 0.074957
v 0.078138 0.046388 0.074957
v 0.144765 0.029361 0.004035
v 0.157173 0.072476 -0.006317
v 0.157173 0.089504 0.064605
v 0.144765 0.046388 0.074957
v 0.157173 0.072476 -0.006317
v 0.160637 0.065622 -0.004671
v 0.160637 0.082650 0.066250
v 0.157173 0.089504 0.064605
v 0.163667 0.059578 -0.003220
v 0.163667 0.076606 0.067702
v 0.166265 0.054339 -0.001962
v 0.166265 0.071366 0.068959
v 0.168434 0.049914 -0.000900
v 0.168434 0.066942 0.070022
v 0.181530 0.022882 0.005591
v 0.181530 0.039909 0.076512
v 0.181530 0.022882 0.005591
v 0.189614 0.029566 0.003985
v 0.189614 0.046594 0.074907
v 0.181530 0.039909 0.076512
v 0.197327 0.035556 0.002547
v 0.197327 0.052584 0.073469
v 0.204663 0.040850 0.001276
v 0.204663 0.057878 0.072198
v 0.211627 0.045444 0.000173
v 0.211627 0.062472 0.071095
v 0.221208 0.050651 -0.001077
v 0.221208 0.067679 0.069845
v 0.228802 0.054659 -0.002039
v 0.228802 0.071687 0.068883
v 0.234421 0.057468 -0.002714
v 0.234421 0.074496 0.068208
v 0.238054 0.059074 -0.003099
v 0.238054 0.076102 0.067822
v 0.238054 0.059074 -0.003099
v 0.246552 0.029361 0.004035
v 0.246552 0.046388 0.074957
v 0.238054 0.076102 0.067822
v 0.246552 0.029361 0.004035
v 0.372234 0.029361 0.004035
v 0.372234 0.046388 0.074957
v 0.246552 0.046388 0.074957
v 0.372234 0.029361 0.004035
v 0.358979 0.082909 -0.008822
v 0.358979 0.099936 0.062100
v 0.372234 0.046388 0.074957
v 0.347248 0.130733 -0.020304
v 0.347248 0.147760 0.050618
v 0.337036 0.172833 -0.030412
v 0.337036 0.189860 0.040510
v 0.328350 0.209209 -0.039145
v 0.328350 0.226236 0.031776
v 0.315381 0.267506 -0.053142
v 0.315381 0.284534 0.017780
v 0.305203 0.314159 -0.064343
v 0.305203 0.331187 0.006579
v 0.297806 0.349167 -0.072748
v 0.297806 0.366194 -0.001827
v 0.293194 0.372530 -0.078357
v 0.293194 0.389557 -0.007436
v 0.195319 0.181506 -0.032494
v 0.200989 0.169309 -0.029566
v 0.200989 0.186337 0.041356
v 0.195319 0.198534 0.038428
v 0.205891 0.158501 -0.026971
v 0.205891 0.175529 0.043951
v 0.210021 0.149077 -0.024708
v 0.210021 0.166105 0.046214
v 0.213378 0.141051 -0.022781
v 0.213378 0.158078 0.048141
v 0.217919 0.128740 -0.019825
v 0.217919 0.145768 0.051096
v 0.221721 0.118264 -0.017310
v 0.221721 0.135292 0.053611
v 0.224779 0.109619 -0.015234
v 0.224779 0.126646 0.055687
v 0.227096 0.102812 -0.013600
v 0.227096 0.119840 0.057321
v 0.227096 0.102812 -0.013600
v 0.218678 0.100550 -0.013057
v 0.218678 0.117577 0.057865
v 0.227096 0.119840 0.057321
v 0.210578 0.098647 -0.012600
v 0.210578 0.115674 0.058321
v 0.202792 0.097103 -0.012230
v 0.202792 0.114131 0.058692
v 0.195319 0.095920 -0.011945
v 0.195319 0.112947 0.058976
v 0.184288 0.094754 -0.011666
v 0.184288 0.111782 0.059256
v 0.175429 0.093921 -0.011466
v 0.175429 0.110949 0.059456
v 0.168739 0.093420 -0.011345
v 0.168739 0.110448 0.059576
v 0.164225 0.093256 -0.011306
v 0.164225 0.110284 0.059616
v 0.164225 0.093256 -0.011306
v 0.168313 0.107051 -0.014618
v 0.168313 0.124079 0.056304
v 0.164225 0.110284 0.059616
v 0.172115 0.119320 -0.017564
v 0.172115 0.136348 0.053358
v 0.175626 0.130060 -0.020142
v 0.175626 0.147088 0.050779
v 0.178857 0.139270 -0.022354
v 0.178857 0.156298 0.048568
v 0.184087 0.152915 -0.025630
v 0.184087 0.169943 0.045292
v 0.188572 0.164502 -0.028411
v 0.188572 0.181529 0.042510
v 0.192318 0.174030 -0.030699
v 0.192318 0.191058 0.040222
v 0.195319 0.181506 -0.032494
v 0.195319 0.198534 0.038428
v 0.096862 0.119502 0.057403
v 0.246552 0.046388 0.074957
v 0.372234 0.046388 0.074957
v 0.358979 0.099936 0.062100
v 0.238054 0.076102 0.067822
v 0.197327 0.052584 0.073469
v 0.293194 0.389557 -0.007436
v 0.155108 0.389557 -0.007436
v 0.148402 0.350917 0.001842
v 0.297806 0.366194 -0.001827
v 0.305203 0.331187 0.006579
v 0.140920 0.311191 0.011379
v 0.315381 0.284534 0.017780
v 0.132662 0.270377 0.021178
v 0.172115 0.136348 0.053358
v 0.218678 0.117577 0.057865
v 0.234421 0.074496 0.068208
v 0.210578 0.115674 0.058321
v 0.228802 0.071687 0.068883
v 0.221208 0.067679 0.069845
v 0.202792 0.114131 0.058692
v 0.211627 0.062472 0.071095
v 0.195319 0.112947 0.058976
v 0.184288 0.111782 0.059256
v 0.204663 0.057878 0.072198
f 1 2 3
f 4 5 6
f 7 8 9
f 10 11 12
f 13 14 15
f 16 17 18
f 19 20 21
f 22 23 24
f 25 26 27
f 28 29 30
f 31 32 33
f 34 35 36
f 37 38 39
f 40 41 42
f 43 44 45
f 46 47 48
f 49 50 51
f 52 53 54
f 55 56 57
f 58 59 60
f 61 62 63
f 64 65 66
f 67 68 69
f 70 71 72
f 73 74 75
f 76 77 78
f 79 80 81
f 82 83 84
f 85 86 87
f 88 89 90
f 91 92 93
f 94 95 96
f 97 98 99
f 100 101 102
f 103 104 105
f 106 107 108
f 109 110 111
f 112 113 114
f 115 116 117
f 118 119 120
f 121 122 123
f 124 125 126
f 127 128 129
f 130 131 132
f 133 134 135
f 136 137 138
f 139 140 141
f 142 143 144
f 145 146 147
f 148 149 150
f 151 152 153
f 154 155 156
f 157 158 159
f 160 161 162
f 163 164 165
f 166 167 168
f 169 170 171
f 172 173 174
f 175 176 177
f 178 179 180
f 181 182 183
f 184 185 186
f 187 188 189
f 190 191 192
f 193 194 195
f 196 197 198
f 199 200 201
f 202 203 204
f 205 206 207
f 208 209 210
f 211 212 213
f 214 215 216
f 217 218 219
f 220 221 222
f 223 224 225
f 226 227 228
f 229 230 231
f 232 233 234
f 235 236 237
f 238 239 240
f 241 242 243
f 244 245 246
f 247 248 249
f 250 251 252
f 253 254 255
f 256 257 258
f 259 260 261
f 262 263 264
f 265 266 267
f 268 269 270
f 271 272 273
f 274 275 276
f 277 278 279
f 280 281 282
f 283 284 285
f 286 287 288
f 289 290 291
f 292 293 294
f 295 296 297
f 298 299 300
f 301 302 303
f 304 305 306
f 307 308 309
f 310 311 312
f 313 314 315
f 316 317 318
f 319 320 321
f 322 323 324
f 325 326 327
f 328 329 330
f 331 332 333
f 334 335 336
f 337 338 339
f 340 341 342
f 343 344 345
f 346 347 348
f 349 350 351
f 352 353 354
f 355 356 357
f 358 359 360
f 361 362 363
f 363 362 364
f 364 362 365
f 365 362 366
f 367 368 369
f 368 370 369
f 370 371 369
f 371 372 369
f 373 374 375
f 366 362 376
f 377 378 379
f 379 378 380
f 356 381 382
f 381 383 382
f 383 384 382
f 375 374 385
f 386 387 388
f 389 390 391
f 392 393 394
f 393 395 394
f 396 397 398
f 398 397 399
f 399 397 400
f 400 397 401
f 395 402 394
f 403 404 405
f 406 407 408
f 404 409 405
f 410 411 412
f 411 413 412
f 388 414 415
f 415 414 416
f 416 414 417
f 418 408 407
f 419 6 5
f 419 5 420
f 421 422 423
f 421 423 424
f 425 426 427
f 425 427 428
f 429 430 431
f 429 431 432
f 433 32 31
f 433 31 434
f 435 436 437
f 435 437 438
f 439 440 441
f 439 441 442
f 443 439 442
f 443 442 444
f 445 446 447
f 445 447 448
f 449 450 451
f 449 451 452
f 453 454 455
f 453 455 456
f 457 39 38
f 457 38 458
f 44 43 459
f 44 459 460
f 461 462 463
f 461 463 464
f 465 51 50
f 465 50 466
f 456 455 467
f 456 467 468
f 469 470 471
f 469 471 472
f 473 474 475
f 473 475 476
f 477 478 479
f 477 479 480
f 481 482 483
f 481 483 484
f 65 64 485
f 65 485 486
f 487 488 489
f 487 489 490
f 491 72 71
f 491 71 492
f 493 494 495
f 493 495 496
f 497 498 499
f 497 499 500
f 501 502 503
f 501 503 504
f 505 98 97
f 505 97 506
f 101 100 507
f 101 507 508
f 509 510 511
f 509 511 512
f 513 514 515
f 513 515 516
f 516 515 517
f 516 517 518
f 519 520 521
f 519 521 522
f 523 524 525
f 523 525 526
f 527 528 529
f 527 529 530
f 531 532 533
f 531 533 534
f 535 536 537
f 535 537 538
f 539 540 541
f 539 541 542
f 543 544 545
f 543 545 546
f 547 548 549
f 547 549 550
f 551 552 553
f 551 553 554
f 555 556 557
f 555 557 558
f 559 560 561
f 559 561 562
f 563 564 565
f 563 565 566
f 567 568 569
f 567 569 570
f 571 572 573
f 571 573 574
f 575 576 577
f 575 577 578
f 579 580 581
f 579 581 582
f 583 584 585
f 583 585 586
f 587 588 589
f 587 589 590
f 591 592 593
f 591 593 594
f 595 596 597
f 595 597 598
f 599 600 601
f 599 601 602
f 602 601 603
f 602 603 604
f 605 606 607
f 605 607 608
f 609 610 611
f 609 611 612
f 613 614 615
f 613 615 616
f 617 618 619
f 617 619 620
f 621 622 623
f 621 623 624
f 625 626 627
f 625 627 628
f 629 630 631
f 629 631 632
f 633 634 635
f 633 635 636
f 637 638 639
f 637 639 640
f 641 642 643
f 641 643 644
f 645 646 647
f 645 647 648
f 649 650 651
f 649 651 652
f 653 654 655
f 653 655 656
f 657 658 659
f 657 659 660
f 661 662 663
f 661 663 664
f 665 666 667
f 665 667 668
f 669 670 671
f 669 671 672
f 673 674 675
f 673 675 676
f 677 678 679
f 677 679 680
f 681 682 683
f 681 683 684
f 186 185 685
f 186 685 686
f 687 688 689
f 687 689 690
f 691 692 693
f 691 693 694
f 695 696 697
f 695 697 698
f 699 700 701
f 699 701 702
f 703 704 705
f 703 705 706
f 707 708 709
f 707 709 710
f 710 709 711
f 710 711 712
f 713 714 715
f 713 715 716
f 717 718 719
f 717 719 720
f 721 722 723
f 721 723 724
f 219 218 725
f 219 725 726
f 727 224 223
f 727 223 728
f 729 730 731
f 729 731 732
f 733 734 735
f 733 735 736
f 737 721 724
f 737 724 738
f 739 239 238
f 739 238 740
f 243 242 741
f 243 741 742
f 743 744 745
f 743 745 746
f 747 748 749
f 747 749 750
f 751 245 244
f 751 244 752
f 753 754 755
f 753 755 756
f 252 251 757
f 252 757 758
f 759 760 761
f 759 761 762
f 763 764 765
f 763 765 766
f 767 768 769
f 767 769 770
f 771 772 773
f 771 773 774
f 775 776 777
f 775 777 778
f 779 780 781
f 779 781 782
f 782 781 783
f 782 783 784
f 785 786 787
f 785 787 788
f 789 785 788
f 789 788 790
f 791 792 793
f 791 793 794
f 795 796 797
f 795 797 798
f 799 800 801
f 799 801 802
f 803 804 805
f 803 805 806
f 807 808 809
f 807 809 810
f 811 812 813
f 811 813 814
f 815 816 817
f 815 817 818
f 819 820 821
f 819 821 822
f 823 824 825
f 823 825 826
f 827 828 829
f 827 829 830
f 831 832 833
f 831 833 834
f 835 836 837
f 835 837 838
f 839 840 841
f 839 841 842
f 843 844 845
f 843 845 846
f 847 848 849
f 847 849 850
f 851 852 853
f 851 853 854
f 855 856 857
f 855 857 858
f 859 860 861
f 859 861 862
f 863 864 865
f 863 865 866
f 867 868 869
f 867 869 870
f 871 872 873
f 871 873 874
f 875 871 874
f 875 874 876
f 877 878 879
f 877 879 880
f 881 882 883
f 881 883 884
f 885 886 887
f 885 887 888
f 889 890 891
f 889 891 892
f 893 894 895
f 893 895 896
f 897 898 899
f 897 899 900
f 901 902 903
f 901 903 904
f 905 906 907
f 905 907 908
f 909 910 911
f 909 911 912
f 913 914 915
f 913 915 916
f 917 918 919
f 917 919 920
f 921 922 923
f 921 923 924
f 925 926 927
f 925 927 928
f 929 930 931
f 929 931 932
f 933 934 935
f 933 935 936
f 937 938 939
f 937 939 940
f 941 942 943
f 941 943 944
f 945 946 947
f 945 947 948
f 949 950 951
f 949 951 952
f 953 954 955
f 953 955 956
f 957 958 959
f 957 959 960
f 961 962 963
f 961 963 964
f 965 966 967
f 965 967 968
f 969 970 971
f 969 971 972
f 973 974 975
f 973 975 976
f 977 978 979
f 977 979 980
f 981 982 983
f 981 983 984
f 985 986 987
f 985 987 988
f 989 990 991
f 989 991 992
f 993 994 995
f 993 995 996
f 997 998 999
f 997 999 1000
f 1001 1002 1003
f 1001 1003 1004
f 1005 1006 1007
f 1005 1007 1008
f 1009 1010 1011
f 1009 1011 1012
f 1013 1014 1015
f 1013 1015 1016
f 1017 1018 1019
f 1017 1019 1020
f 1021 1022 1023
f 1021 1023 1024
f 1025 1026 1027
f 1025 1027 1028
f 1029 1030 1031
f 1029 1031 1032
f 1033 1034 1035
f 1033 1035 1036
f 1037 1038 1039
f 1037 1039 1040
f 1041 1042 1043
f 1041 1043 1044
f 1045 1046 1047
f 1045 1047 1048
f 1049 1050 1051
f 1049 1051 1052
f 1053 1054 1055
f 1053 1055 1056
f 1057 1058 1059
f 1057 1059 1060
f 1061 1062 1063
f 1061 1063 1064
f 1065 1066 1067
f 1065 1067 1068
f 1069 1070 1071
f 1069 1071 1072
f 1073 1074 1075
f 1073 1075 1076
f 1077 1078 1079
f 1077 1079 1080
f 1081 1082 1083
f 1081 1083 1084
f 1085 1086 1087
f 1085 1087 1088
f 1089 1090 1091
f 1089 1091 1092
f 1093 1094 1095
f 1093 1095 1096
f 1097 1098 1099
f 1097 1099 1100
f 1101 1102 1103
f 1101 1103 1104
f 1105 1106 1107
f 1105 1107 1108
f 1109 1110 1111
f 1109 1111 1112
f 1113 1114 1115
f 1113 1115 1116
f 1117 1118 1119
f 1117 1119 1120
f 1121 1122 1123
f 1121 1123 1124
f 1125 1126 1127
f 1125 1127 1128
f 1129 1130 1131
f 1129 1131 1132
f 1133 1134 1135
f 1133 1135 1136
f 1137 1138 1139
f 1137 1139 1140
f 1141 1142 1143
f 1141 1143 1144
f 1145 1146 1147
f 1145 1147 1148
f 1149 1150 1151
f 1149 1151 1152
f 1153 1154 1155
f 1153 1155 1156
f 1157 1158 1159
f 1157 1159 1160
f 1161 1162 1163
f 1161 1163 1164
f 1165 1166 1167
f 1165 1167 1168
f 1169 1170 1171
f 1169 1171 1172
f 1173 1174 1175
f 1173 1175 1176
f 1177 1178 1179
f 1177 1179 1180
f 1181 1182 1183
f 1181 1183 1184
f 1185 1186 1187
f 1185 1187 1188
f 1189 1190 1191
f 1189 1191 1192
f 1193 1194 1195
f 1193 1195 1196
f 1197 1198 1199
f 1197 1199 1200
f 1201 1202 1203
f 1201 1203 1204
f 1205 1206 1207
f 1205 1207 1208
f 1209 1210 1211
f 1209 1211 1212
f 1213 1214 1215
f 1213 1215 1216
f 1217 1218 1219
f 1217 1219 1220
f 1221 1222 1223
f 1221 1223 1224
f 1225 1226 1227
f 1225 1227 1228
f 1229 1230 1231
f 1229 1231 1232
f 1233 1234 1235
f 1233 1235 1236
f 1237 1238 1239
f 1237 1239 1240
f 1241 1242 1243
f 1241 1243 1244
f 1245 1246 1247
f 1245 1247 1248
f 1249 1250 1251
f 1249 1251 1252
f 1253 1254 1255
f 1253 1255 1256
f 1257 1258 1259
f 1257 1259 1260
f 1261 1262 1263
f 1261 1263 1264
f 1265 1266 1267
f 1265 1267 1268
f 1269 1270 1271
f 1269 1271 1272
f 1273 1274 1275
f 1273 1275 1276
f 1277 1278 1279
f 1277 1279 1280
f 1281 1282 1283
f 1281 1283 1284
f 1285 1286 1287
f 1285 1287 1288
f 1289 1290 1291
f 1289 1291 1292
f 1293 1294 1295
f 1293 1295 1296
f 1297 1298 1299
f 1297 1299 1300
f 1301 1302 1303
f 1301 1303 1304
f 1305 1306 1307
f 1305 1307 1308
f 1309 1310 1311
f 1309 1311 1312
f 1313 1314 1315
f 1313 1315 1316
f 1317 1318 1319
f 1317 1319 1320
f 1321 1322 1323
f 1321 1323 1324
f 1325 1326 1327
f 1325 1327 1328
f 1329 1330 1331
f 1329 1331 1332
f 1333 1334 1335
f 1333 1335 1336
f 1337 1338 1339
f 1337 1339 1340
f 1341 1342 1343
f 1341 1343 1344
f 1345 1346 1347
f 1345 1347 1348
f 1349 1350 1351
f 1349 1351 1352
f 1353 1354 1355
f 1353 1355 1356
f 1357 1358 1359
f 1357 1359 1360
f 1358 1361 1362
f 1358 1362 1359
f 1361 1363 1364
f 1361 1364 1362
f 1365 1357 1360
f 1365 1360 1366
f 1367 1365 1366
f 1367 1366 1368
f 1369 1367 1368
f 1369 1368 1370
f 1371 1369 1370
f 1371 1370 1372
f 1373 1371 1372
f 1373 1372 1374
f 1363 1375 1376
f 1363 1376 1364
f 1377 1378 1379
f 1377 1379 1380
f 1378 1381 1382
f 1378 1382 1379
f 1383 1377 1380
f 1383 1380 1384
f 1381 1385 1386
f 1381 1386 1382
f 1387 1383 1384
f 1387 1384 1388
f 1389 1387 1388
f 1389 1388 1390
f 1385 1391 1392
f 1385 1392 1386
f 1393 1389 1390
f 1393 1390 1394
f 1391 1395 1396
f 1391 1396 1392
f 1397 1393 1394
f 1397 1394 1398
f 1375 1399 1400
f 1375 1400 1376
f 1401 1397 1398
f 1401 1398 1402
f 1399 1403 1404
f 1399 1404 1400
f 1405 1401 1402
f 1405 1402 1406
f 1407 1373 1374
f 1407 1374 1408
f 1395 1409 1410
f 1395 1410 1396
f 1409 1411 1412
f 1409 1412 1410
f 1413 1407 1408
f 1413 1408 1414
f 1411 1415 1416
f 1411 1416 1412
f 1417 1413 1414
f 1417 1414 1418
f 1415 1419 1420
f 1415 1420 1416
f 1403 1421 1422
f 1403 1422 1404
f 1423 1405 1406
f 1423 1406 1424
f 1421 1425 1426
f 1421 1426 1422
f 1427 1423 1424
f 1427 1424 1428
f 1425 1429 1430
f 1425 1430 1426
f 1429 1431 1432
f 1429 1432 1430
f 1419 1433 1434
f 1419 1434 1420
f 1435 1417 1418
f 1435 1418 1436
f 1437 1435 1436
f 1437 1436 1438
f 1433 1439 1440
f 1433 1440 1434
f 1441 1437 1438
f 1441 1438 1442
f 1443 1427 1428
f 1443 1428 1444
f 1431 1445 1446
f 1431 1446 1432
f 1445 1447 1448
f 1445 1448 1446
f 1447 1449 1450
f 1447 1450 1448
f 1449 1451 1452
f 1449 1452 1450
f 1453 1443 1444
f 1453 1444 1454
f 1451 1455 1456
f 1451 1456 1452
f 1455 1457 1458
f 1455 1458 1456
f 1457 1459 1460
f 1457 1460 1458
f 1461 1453 1454
f 1461 1454 1462
f 1459 1463 1464
f 1459 1464 1460
f 1463 1465 1466
f 1463 1466 1464
f 1465 1467 1468
f 1465 1468 1466
f 1467 1441 1442
f 1467 1442 1468
f 1439 1461 1462
f 1439 1462 1440
f 1469 1470 1471
f 1469 1471 1472
f 1470 1473 1474
f 1470 1474 1471
f 1473 1475 1476
f 1473 1476 1474
f 1477 1469 1472
f 1477 1472 1478
f 1479 1477 1478
f 1479 1478 1480
f 1481 1479 1480
f 1481 1480 1482
f 1483 1481 1482
f 1483 1482 1484
f 1485 1483 1484
f 1485 1484 1486
f 1475 1487 1488
f 1475 1488 1476
f 1489 1490 1491
f 1489 1491 1492
f 1490 1493 1494
f 1490 1494 1491
f 1495 1489 1492
f 1495 1492 1496
f 1493 1497 1498
f 1493 1498 1494
f 1499 1495 1496
f 1499 1496 1500
f 1501 1499 1500
f 1501 1500 1502
f 1497 1503 1504
f 1497 1504 1498
f 1505 1501 1502
f 1505 1502 1506
f 1503 1507 1508
f 1503 1508 1504
f 1509 1505 1506
f 1509 1506 1510
f 1487 1511 1512
f 1487 1512 1488
f 1513 1509 1510
f 1513 1510 1514
f 1511 1515 1516
f 1511 1516 1512
f 1517 1513 1514
f 1517 1514 1518
f 1519 1485 1486
f 1519 1486 1520
f 1507 1521 1522
f 1507 1522 1508
f 1521 1523 1524
f 1521 1524 1522
f 1525 1519 1520
f 1525 1520 1526
f 1523 1527 1528
f 1523 1528 1524
f 1529 1525 1526
f 1529 1526 1530
f 1527 1531 1532
f 1527 1532 1528
f 1515 1533 1534
f 1515 1534 1516
f 1535 1517 1518
f 1535 1518 1536
f 1533 1537 1538
f 1533 1538 1534
f 1539 1535 1536
f 1539 1536 1540
f 1537 1541 1542
f 1537 1542 1538
f 1541 1543 1544
f 1541 1544 1542
f 1531 1545 1546
f 1531 1546 1532
f 1547 1529 1530
f 1547 1530 1548
f 1549 1547 1548
f 1549 1548 1550
f 1545 1551 1552
f 1545 1552 1546
f 1553 1549 1550
f 1553 1550 1554
f 1555 1539 1540
f 1555 1540 1556
f 1543 1557 1558
f 1543 1558 1544
f 1557 1559 1560
f 1557 1560 1558
f 1559 1561 1562
f 1559 1562 1560
f 1561 1563 1564
f 1561 1564 1562
f 1565 1555 1556
f 1565 1556 1566
f 1563 1567 1568
f 1563 1568 1564
f 1567 1569 1570
f 1567 1570 1568
f 1569 1571 1572
f 1569 1572 1570
f 1573 1565 1566
f 1573 1566 1574
f 1571 1575 1576
f 1571 1576 1572
f 1575 1577 1578
f 1575 1578 1576
f 1577 1579 1580
f 1577 1580 1578
f 1579 1553 1554
f 1579 1554 1580
f 1551 1573 1574
f 1551 1574 1552
f 1581 1582 1583
f 1581 1583 1584
f 375 360 359
f 375 359 1585
f 378 1581 1584
f 378 1584 380
f 1586 357 356
f 1586 356 382
f 1587 1588 1589
f 1587 1589 1590
f 1587 1590 1591
f 1587 1591 1592
f 1592 1591 1593
f 1592 1593 1594
f 1594 1593 1595
f 1594 1595 1596
f 1596 1595 362
f 1596 362 361
f 369 1596 361
f 369 361 367
f 1585 369 372
f 1585 372 1597
f 375 1585 1597
f 375 1597 373
f 376 362 378
f 376 378 377
f 1598 380 1584
f 1598 1584 1599
f 1600 1598 1599
f 1600 1599 1601
f 1600 1601 1602
f 1600 1602 1603
f 1603 1602 1604
f 1603 1604 1605
f 1606 1605 1604
f 1606 1604 1607
f 382 1606 1607
f 382 1607 1586
f 382 384 375
f 382 375 385
f 1608 1609 1610
f 1608 1610 1611
f 1612 1613 1614
f 1612 1614 1615
f 1613 1616 1617
f 1613 1617 1614
f 1616 1618 1619
f 1616 1619 1617
f 1618 1620 1621
f 1618 1621 1619
f 1620 1622 1623
f 1620 1623 1621
f 1622 1624 1625
f 1622 1625 1623
f 1624 1626 1627
f 1624 1627 1625
f 1626 1628 1629
f 1626 1629 1627
f 1630 1631 1632
f 1630 1632 1633
f 1634 1635 1636
f 1634 1636 1637
f 1638 1639 1640
f 1638 1640 1641
f 1639 1642 1643
f 1639 1643 1640
f 1642 1644 1645
f 1642 1645 1643
f 1644 1646 1647
f 1644 1647 1645
f 1646 1648 1649
f 1646 1649 1647
f 1650 1651 1652
f 1650 1652 1653
f 1651 1654 1655
f 1651 1655 1652
f 1654 1656 1657
f 1654 1657 1655
f 1656 1658 1659
f 1656 1659 1657
f 1658 1660 1661
f 1658 1661 1659
f 1660 1662 1663
f 1660 1663 1661
f 1662 1664 1665
f 1662 1665 1663
f 1664 1666 1667
f 1664 1667 1665
f 1668 1669 1670
f 1668 1670 1671
f 1672 1673 1674
f 1672 1674 1675
f 1676 1677 1678
f 1676 1678 1679
f 1677 1680 1681
f 1677 1681 1678
f 1680 1682 1683
f 1680 1683 1681
f 1682 1684 1685
f 1682 1685 1683
f 1684 1686 1687
f 1684 1687 1685
f 1686 1688 1689
f 1686 1689 1687
f 1688 1690 1691
f 1688 1691 1689
f 1690 1692 1693
f 1690 1693 1691
f 1694 1695 1696
f 1694 1696 1697
f 1695 1698 1699
f 1695 1699 1696
f 1698 1700 1701
f 1698 1701 1699
f 1700 1702 1703
f 1700 1703 1701
f 1702 1704 1705
f 1702 1705 1703
f 1704 1706 1707
f 1704 1707 1705
f 1706 1708 1709
f 1706 1709 1707
f 1708 1710 1711
f 1708 1711 1709
f 1712 1713 1714
f 1712 1714 1715
f 1713 1716 1717
f 1713 1717 1714
f 1716 1718 1719
f 1716 1719 1717
f 1718 1720 1721
f 1718 1721 1719
f 1720 1722 1723
f 1720 1723 1721
f 1722 1724 1725
f 1722 1725 1723
f 1724 1726 1727
f 1724 1727 1725
f 1726 1728 1729
f 1726 1729 1727
f 1730 1731 1732
f 1730 1732 1733
f 1731 1734 1735
f 1731 1735 1732
f 1734 1736 1737
f 1734 1737 1735
f 1736 1738 1739
f 1736 1739 1737
f 1738 1740 1741
f 1738 1741 1739
f 1740 1742 1743
f 1740 1743 1741
f 1742 1744 1745
f 1742 1745 1743
f 1744 1746 1747
f 1744 1747 1745
f 391 390 407
f 391 407 1748
f 1749 1750 1751
f 1749 1751 1752
f 1752 1751 412
f 1752 412 413
f 388 387 1753
f 388 1753 414
f 1754 1755 1756
f 1754 1756 1757
f 1758 1757 1756
f 1758 1756 1759
f 1760 1758 1759
f 1760 1759 1761
f 394 1760 1761
f 394 1761 392
f 393 392 397
f 393 397 396
f 405 394 402
f 405 402 403
f 401 397 1748
f 401 1748 1762
f 1762 1748 407
f 1762 407 406
f 412 405 409
f 412 409 410
f 1752 413 1763
f 1752 1763 1764
f 1764 1763 1765
f 1764 1765 1766
f 1767 1766 1765
f 1767 1765 1768
f 1769 1767 1768
f 1769 1768 1770
f 1769 1770 1771
f 1769 1771 1772
f 1772 1771 414
f 1772 414 1753
f 407 417 414
f 407 414 418
