# converted by scripts/glb-to-obj.mjs
o .art-assets/tomato-pack
v 0.880919 1.157720 0.043522
v 0.633935 1.075256 0.121716
v 1.000000 1.060872 0.151747
v 0.690869 1.209231 -0.056239
v 0.730835 1.201826 -0.126929
v 0.594611 1.199932 -0.175619
v 0.684038 0.974163 0.400214
v 0.654070 1.032857 0.352240
v 0.542083 0.946552 0.411238
v 0.633935 1.075256 0.121716
v 0.764041 1.199179 -0.010623
v 0.654070 1.032857 0.352240
v 0.733667 1.054533 0.324984
v 0.633935 1.075256 0.121716
v 0.633935 1.075256 0.121716
v 0.859354 1.055568 0.280600
v 1.000000 1.060872 0.151747
v 0.633935 1.075256 0.121716
v 0.633935 1.075256 0.121716
v 0.084384 0.883287 -0.049942
v 0.076725 0.855190 0.020266
v -0.027672 0.832419 -0.095220
v -0.065180 0.832419 -0.081880
v -0.072381 0.832419 -0.042726
v -0.027672 0.832419 -0.095220
v -0.072381 0.832419 -0.042726
v -0.042073 0.832419 -0.016914
v -0.042073 0.832419 -0.016914
v -0.004566 0.832419 -0.030253
v 0.002636 0.832419 -0.069407
v -0.912441 1.176405 -0.069383
v -0.648488 1.154621 -0.130778
v -1.000000 1.178747 -0.235517
v -0.749388 1.142291 0.075439
v -0.800407 1.092251 0.114710
v -0.675583 1.053314 0.176632
v -0.637662 1.261938 -0.411238
v -0.622756 1.273788 -0.331979
v -0.493990 1.242259 -0.408761
v -0.648488 1.154621 -0.130778
v -0.811851 1.167528 0.020694
v -0.622756 1.273788 -0.331979
v -0.707701 1.275760 -0.313845
v -0.648488 1.154621 -0.130778
v -0.648488 1.154621 -0.130778
v -0.838765 1.252879 -0.305666
v -1.000000 1.178747 -0.235517
v -0.648488 1.154621 -0.130778
v -0.648488 1.154621 -0.130778
v -0.122129 0.874223 -0.018318
v -0.099280 0.898447 -0.086643
v 0.368882 1.131826 -0.187502
v 0.187607 1.044452 -0.137751
v 0.690869 1.209231 -0.056239
v 0.084384 0.883287 -0.049942
v 0.633935 1.075256 0.121716
v 0.154991 0.895902 0.212608
v 0.633935 1.075256 0.121716
v 0.076725 0.855190 0.020266
v 0.323200 0.907268 0.335331
v -0.019775 0.755511 -0.107393
v -0.024989 0.730367 -0.049162
v 0.075913 0.416210 -0.074564
v 0.017702 0.416210 -0.124143
v -0.027672 0.832419 -0.095220
v 0.002636 0.832419 -0.069407
v 0.017702 0.416210 -0.124143
v -0.054340 0.416210 -0.098520
v -0.065180 0.832419 -0.081880
v -0.027672 0.832419 -0.095220
v -0.054340 0.416210 -0.098520
v -0.068171 0.416210 -0.023318
v -0.072381 0.832419 -0.042726
v -0.068171 0.416210 -0.023318
v -0.009960 0.416210 0.026261
v -0.042073 0.832419 -0.016914
v -0.009960 0.416210 0.026261
v 0.062082 0.416210 0.000638
v -0.004566 0.832419 -0.030253
v 0.062082 0.416210 0.000638
v 0.075913 0.416210 -0.074564
v -0.016703 0.000000 -0.154860
v -0.111345 0.000000 -0.121200
v -0.129516 0.000000 -0.022405
v -0.053042 0.000000 0.042727
v 0.041600 0.000000 0.009066
v 0.059771 0.000000 -0.089728
v -0.016703 0.000000 -0.154860
v -0.449971 0.984520 0.186593
v -0.254930 0.943231 0.129809
v -0.749388 1.142291 0.075439
v -0.122129 0.874223 -0.018318
v -0.648488 1.154621 -0.130778
v -0.145558 1.058039 -0.217667
v -0.648488 1.154621 -0.130778
v -0.099280 0.898447 -0.086643
v -0.289397 1.153792 -0.334398
v -0.017711 0.735670 -0.037705
v 0.000310 0.754415 -0.095792
f 1 2 3
f 4 5 6
f 7 8 9
f 4 10 11
f 11 2 1
f 12 13 14
f 15 13 16
f 17 18 16
f 19 20 21
f 22 23 24
f 25 26 27
f 22 28 29
f 22 29 30
f 31 32 33
f 34 35 36
f 37 38 39
f 34 40 41
f 41 32 31
f 42 43 44
f 45 43 46
f 47 48 46
f 49 50 51
f 6 52 53
f 6 53 54
f 53 55 56
f 53 56 54
f 57 8 58
f 57 58 59
f 8 57 60
f 8 60 9
f 61 62 21
f 61 21 20
f 63 64 65
f 63 65 66
f 67 68 69
f 67 69 70
f 71 72 73
f 71 73 69
f 74 75 76
f 74 76 73
f 77 78 79
f 77 79 76
f 80 81 66
f 80 66 79
f 82 83 68
f 82 68 67
f 83 84 72
f 83 72 71
f 84 85 75
f 84 75 74
f 85 86 78
f 85 78 77
f 86 87 81
f 86 81 80
f 87 88 64
f 87 64 63
f 36 89 90
f 36 90 91
f 90 92 93
f 90 93 91
f 94 38 95
f 94 95 96
f 38 94 97
f 38 97 39
f 98 99 51
f 98 51 50
