# converted by scripts/glb-to-obj.mjs
o .art-assets/tomato-pack
v 0.006702 2.334419 0.034167
v -0.026588 2.334419 -0.014988
v -0.085801 2.334419 -0.010735
v -0.111726 2.334419 0.042672
v -0.078436 2.334419 0.091826
v -0.019222 2.334419 0.087573
v -0.317734 0.781096 -0.046954
v -0.415700 0.784407 0.085366
v -0.484266 0.760608 -0.067269
v -0.382485 0.795116 -0.197711
v -0.317734 0.781096 -0.046954
v -0.545201 0.812447 -0.216147
v -0.643167 0.815759 -0.083827
v -0.578416 0.801739 0.066929
v -0.678802 0.334825 0.029885
v -0.598466 0.475145 0.053026
v -0.687113 0.284084 -0.031306
v -0.598300 0.475847 0.134966
v -0.443133 0.553621 0.112726
v -0.598466 0.475145 0.053026
v -0.659059 0.403042 0.085836
v -0.598466 0.475145 0.053026
v -0.678802 0.334825 0.029885
v -0.443133 0.553621 0.112726
v -0.557873 0.536157 -0.013126
v -0.598466 0.475145 0.053026
v -0.621888 0.453863 -0.042484
v -0.657701 0.365702 -0.046748
v -0.598466 0.475145 0.053026
v -0.687113 0.284084 -0.031306
v -0.598466 0.475145 0.053026
v -0.657701 0.365702 -0.046748
v -0.443133 0.553621 0.112726
v -0.296281 0.552439 0.165943
v -0.285980 0.568968 0.126557
v -0.486370 0.513941 0.172878
v -0.446394 0.575582 0.023219
v -0.557873 0.536157 -0.013126
v -0.443133 0.553621 0.112726
v -0.598300 0.475847 0.134966
v -0.598466 0.475145 0.053026
v -0.659059 0.403042 0.085836
v -0.621888 0.453863 -0.042484
v 0.783124 0.658576 0.396187
v 0.676822 0.823222 0.378596
v 0.771175 0.568118 0.468337
v 0.708381 0.866937 0.266077
v 0.476377 0.922460 0.268030
v 0.676822 0.823222 0.378596
v 0.776628 0.765063 0.332544
v 0.676822 0.823222 0.378596
v 0.783124 0.658576 0.396187
v 0.476377 0.922460 0.268030
v 0.592864 0.854006 0.473871
v 0.676822 0.823222 0.378596
v 0.673442 0.751830 0.511473
v 0.723087 0.651465 0.503559
v 0.676822 0.823222 0.378596
v 0.771175 0.568118 0.468337
v 0.676822 0.823222 0.378596
v 0.723087 0.651465 0.503559
v 0.476377 0.922460 0.268030
v 0.285352 0.925886 0.146053
v 0.255280 0.923092 0.201608
v 0.561895 0.914053 0.188069
v 0.446426 0.901938 0.398554
v 0.592864 0.854006 0.473871
v 0.476377 0.922460 0.268030
v 0.708381 0.866937 0.266077
v 0.676822 0.823222 0.378596
v 0.776628 0.765063 0.332544
v 0.673442 0.751830 0.511473
v -0.333081 0.463523 -0.626243
v -0.256283 0.631222 -0.589945
v -0.282433 0.359265 -0.666823
v -0.357658 0.699368 -0.532535
v -0.170754 0.813592 -0.465756
v -0.256283 0.631222 -0.589945
v -0.367022 0.548178 -0.593619
v -0.256283 0.631222 -0.589945
v -0.333081 0.463523 -0.626243
v -0.170754 0.813592 -0.465756
v -0.139145 0.703386 -0.650238
v -0.256283 0.631222 -0.589945
v -0.174151 0.546751 -0.689457
v -0.219637 0.464714 -0.686326
v -0.256283 0.631222 -0.589945
v -0.282433 0.359265 -0.666823
v -0.256283 0.631222 -0.589945
v -0.219637 0.464714 -0.686326
v -0.170754 0.813592 -0.465756
v -0.102749 0.898597 -0.248311
v -0.045456 0.900693 -0.281218
v -0.305500 0.796398 -0.433249
v -0.086227 0.802013 -0.555016
v -0.139145 0.703386 -0.650238
v -0.170754 0.813592 -0.465756
v -0.357658 0.699368 -0.532535
v -0.256283 0.631222 -0.589945
v -0.367022 0.548178 -0.593619
v -0.174151 0.546751 -0.689457
v -0.009620 0.000000 -0.029069
v -0.082664 0.000000 -0.061084
v -0.091264 0.000000 -0.140337
v -0.009620 0.000000 -0.029069
v -0.091264 0.000000 -0.140337
v -0.026821 0.000000 -0.187577
v -0.026821 0.000000 -0.187577
v 0.046223 0.000000 -0.155562
v 0.054824 0.000000 -0.076309
v -0.459588 1.740931 -0.667639
v -0.438452 1.826793 -0.508718
v -0.389894 1.739092 -0.759129
v -0.537543 1.772611 -0.443290
v -0.394430 1.828758 -0.286481
v -0.438452 1.826793 -0.508718
v -0.509856 1.745042 -0.592254
v -0.438452 1.826793 -0.508718
v -0.459588 1.740931 -0.667639
v -0.394430 1.828758 -0.286481
v -0.355785 1.949308 -0.472715
v -0.438452 1.826793 -0.508718
v -0.347367 1.891333 -0.616938
v -0.364891 1.831301 -0.682943
v -0.438452 1.826793 -0.508718
v -0.389894 1.739092 -0.759129
v -0.438452 1.826793 -0.508718
v -0.364891 1.831301 -0.682943
v -0.394430 1.828758 -0.286481
v -0.341676 1.709734 -0.065592
v -0.294482 1.758406 -0.073796
v -0.509296 1.752338 -0.302751
v -0.327656 1.933692 -0.333355
v -0.355785 1.949308 -0.472715
v -0.394430 1.828758 -0.286481
v -0.537543 1.772611 -0.443290
v -0.438452 1.826793 -0.508718
v -0.509856 1.745042 -0.592254
v -0.347367 1.891333 -0.616938
v -0.044601 0.680601 0.970777
v -0.128064 0.789002 0.842190
v -0.063950 0.575286 1.000000
v -0.050464 0.877711 0.825384
v -0.125660 0.850619 0.612247
v -0.128064 0.789002 0.842190
v -0.043336 0.790038 0.925256
v -0.128064 0.789002 0.842190
v -0.044601 0.680601 0.970777
v -0.125660 0.850619 0.612247
v -0.236797 0.751581 0.794007
v -0.128064 0.789002 0.842190
v -0.203592 0.678568 0.895349
v -0.140759 0.614969 0.954336
v -0.128064 0.789002 0.842190
v -0.063950 0.575286 1.000000
v -0.128064 0.789002 0.842190
v -0.140759 0.614969 0.954336
v -0.125660 0.850619 0.612247
v -0.068023 0.841271 0.403990
v -0.117977 0.808342 0.396196
v -0.039293 0.900914 0.662796
v -0.228172 0.774431 0.632193
v -0.236797 0.751581 0.794007
v -0.125660 0.850619 0.612247
v -0.050464 0.877711 0.825384
v -0.128064 0.789002 0.842190
v -0.043336 0.790038 0.925256
v -0.203592 0.678568 0.895349
v -0.225892 1.241320 0.735759
v -0.310410 1.346714 0.635570
v -0.238217 1.136451 0.752840
v -0.244634 1.443569 0.642796
v -0.343900 1.464019 0.464820
v -0.310410 1.346714 0.635570
v -0.219887 1.323589 0.717846
v -0.310410 1.346714 0.635570
v -0.225892 1.241320 0.735759
v -0.343900 1.464019 0.464820
v -0.431183 1.338719 0.584971
v -0.310410 1.346714 0.635570
v -0.377984 1.228859 0.662930
v -0.321811 1.186413 0.705301
v -0.310410 1.346714 0.635570
v -0.238217 1.136451 0.752840
v -0.310410 1.346714 0.635570
v -0.321811 1.186413 0.705301
v -0.343900 1.464019 0.464820
v -0.288643 1.553539 0.267228
v -0.339141 1.526438 0.253098
v -0.249700 1.513701 0.530579
v -0.439629 1.408977 0.474455
v -0.431183 1.338719 0.584971
v -0.343900 1.464019 0.464820
v -0.244634 1.443569 0.642796
v -0.310410 1.346714 0.635570
v -0.219887 1.323589 0.717846
v -0.377984 1.228859 0.662930
v -0.743422 1.010116 -0.875377
v -0.627062 1.189535 -0.773686
v -0.710563 0.917550 -0.988442
v -0.715830 1.225437 -0.647047
v -0.471986 1.332129 -0.580112
v -0.627062 1.189535 -0.773686
v -0.762115 1.086049 -0.786235
v -0.627062 1.189535 -0.773686
v -0.743422 1.010116 -0.875377
v -0.471986 1.332129 -0.580112
v -0.505852 1.320592 -0.832276
v -0.627062 1.189535 -0.773686
v -0.574832 1.159220 -0.944472
v -0.634190 1.057836 -0.971017
v -0.627062 1.189535 -0.773686
v -0.710563 0.917550 -0.988442
v -0.627062 1.189535 -0.773686
v -0.634190 1.057836 -0.971017
v -0.471986 1.332129 -0.580112
v -0.324772 1.327112 -0.339211
v -0.270235 1.354551 -0.389232
v -0.615531 1.281178 -0.513431
v -0.405780 1.380786 -0.702056
v -0.505852 1.320592 -0.832276
v -0.471986 1.332129 -0.580112
v -0.715830 1.225437 -0.647047
v -0.627062 1.189535 -0.773686
v -0.762115 1.086049 -0.786235
v -0.574832 1.159220 -0.944472
v -0.039513 0.856966 0.361365
v 0.037994 0.941974 0.489731
v -0.118778 0.865508 0.519296
v -0.206256 0.815155 0.374003
v -0.039513 0.856966 0.361365
v -0.295494 0.858352 0.515006
v -0.217989 0.943360 0.643372
v -0.051245 0.985171 0.630734
v -0.187956 0.275912 -0.195966
v -0.323873 0.299107 -0.204204
v -0.244982 0.308409 -0.321625
v -0.105017 0.313780 -0.299727
v -0.187956 0.275912 -0.195966
v -0.157996 0.374844 -0.411727
v -0.293913 0.398039 -0.419965
v -0.376852 0.360171 -0.316203
v 0.093933 0.858996 -0.334526
v 0.005124 0.844845 -0.461340
v 0.163570 0.853649 -0.477990
v 0.242631 0.902253 -0.348195
v 0.093933 0.858996 -0.334526
v 0.302520 0.931358 -0.488678
v 0.213710 0.917206 -0.615491
v 0.065012 0.873950 -0.601821
v 0.263939 0.920346 0.026807
v 0.332314 0.914642 -0.096853
v 0.408627 0.931798 0.025416
v 0.330397 0.967902 0.142225
v 0.263939 0.920346 0.026807
v 0.465231 1.009754 0.133982
v 0.533606 1.004050 0.010322
v 0.467148 0.956493 -0.105096
v 0.124847 1.462862 0.655739
v 0.045809 1.566336 0.599890
v 0.100881 1.386992 0.698020
v 0.114044 1.619733 0.552390
v -0.033188 1.657913 0.470967
v 0.045809 1.566336 0.599890
v 0.139063 1.523331 0.621137
v 0.045809 1.566336 0.599890
v 0.124847 1.462862 0.655739
v -0.033188 1.657913 0.470967
v -0.058194 1.597219 0.620903
v 0.045809 1.566336 0.599890
v -0.011237 1.499368 0.676623
v 0.035690 1.450475 0.690717
v 0.045809 1.566336 0.599890
v 0.100881 1.386992 0.698020
v 0.045809 1.566336 0.599890
v 0.035690 1.450475 0.690717
v -0.033188 1.657913 0.470967
v -0.075643 1.697021 0.291455
v -0.121206 1.692006 0.310722
v 0.071273 1.668924 0.461866
v -0.102237 1.647729 0.532990
v -0.058194 1.597219 0.620903
v -0.033188 1.657913 0.470967
v 0.114044 1.619733 0.552390
v 0.045809 1.566336 0.599890
v 0.139063 1.523331 0.621137
v -0.011237 1.499368 0.676623
v 0.471900 1.933014 0.054236
v 0.346459 1.968697 0.109593
v 0.544348 1.895411 0.092388
v 0.295134 1.992147 0.028480
v 0.174025 1.951039 0.144271
v 0.346459 1.968697 0.109593
v 0.412262 1.961707 0.028240
v 0.346459 1.968697 0.109593
v 0.471900 1.933014 0.054236
v 0.174025 1.951039 0.144271
v 0.316918 1.990031 0.213920
v 0.346459 1.968697 0.109593
v 0.430745 1.953887 0.188988
v 0.483268 1.931050 0.150115
v 0.346459 1.968697 0.109593
v 0.544348 1.895411 0.092388
v 0.346459 1.968697 0.109593
v 0.483268 1.931050 0.150115
v 0.174025 1.951039 0.144271
v 0.005597 1.867226 0.131461
v 0.011627 1.868093 0.180809
v 0.186597 1.969798 0.041284
v 0.209188 1.970099 0.228641
v 0.316918 1.990031 0.213920
v 0.174025 1.951039 0.144271
v 0.295134 1.992147 0.028480
v 0.346459 1.968697 0.109593
v 0.412262 1.961707 0.028240
v 0.430745 1.953887 0.188988
v 0.419884 0.242982 0.646539
v 0.323951 0.402250 0.672651
v 0.386223 0.137236 0.648600
v 0.395060 0.485908 0.626625
v 0.192353 0.567345 0.562641
v 0.323951 0.402250 0.672651
v 0.432982 0.360703 0.651067
v 0.323951 0.402250 0.672651
v 0.419884 0.242982 0.646539
v 0.192353 0.567345 0.562641
v 0.209706 0.395733 0.722155
v 0.323951 0.402250 0.672651
v 0.270377 0.281943 0.730807
v 0.323845 0.196093 0.695551
v 0.323951 0.402250 0.672651
v 0.386223 0.137236 0.648600
v 0.323951 0.402250 0.672651
v 0.323845 0.196093 0.695551
v 0.192353 0.567345 0.562641
v 0.081098 0.658397 0.401048
v 0.032183 0.634698 0.427240
v 0.299690 0.584577 0.535700
v 0.113174 0.493786 0.633569
v 0.209706 0.395733 0.722155
v 0.192353 0.567345 0.562641
v 0.395060 0.485908 0.626625
v 0.323951 0.402250 0.672651
v 0.432982 0.360703 0.651067
v 0.270377 0.281943 0.730807
v 0.006702 2.334419 0.034167
v -0.019222 2.334419 0.087573
v -0.021288 0.000000 0.084823
v 0.006702 0.000000 0.034167
v -0.026588 2.334419 -0.014988
v 0.006702 2.334419 0.034167
v 0.006702 0.000000 0.034167
v -0.026588 0.000000 -0.014988
v -0.085801 2.334419 -0.010735
v -0.085801 0.000000 -0.010735
v -0.111726 2.334419 0.042672
v -0.111725 0.000000 0.042672
v -0.078436 2.334419 0.091826
v -0.078436 0.000000 0.091826
v -0.365646 0.874209 0.183661
v -0.206986 0.868846 -0.030640
v -0.206986 0.868846 -0.030640
v -0.311853 0.891552 -0.274800
v -0.575382 0.919622 -0.304659
v -0.734043 0.924985 -0.090358
v -0.629175 0.902279 0.153802
v -0.345641 1.007775 0.205243
v -0.177311 1.002085 -0.022118
v -0.177311 1.002085 -0.022118
v -0.288569 1.026175 -0.281158
v -0.568158 1.055955 -0.312837
v -0.736489 1.061645 -0.085476
v -0.625230 1.037555 0.173565
v -0.219434 1.107274 -0.023081
v -0.356352 1.111903 0.161851
v -0.219434 1.107274 -0.023081
v -0.309930 1.126869 -0.233780
v -0.537344 1.151092 -0.259548
v -0.674262 1.155720 -0.074615
v -0.583765 1.136126 0.136084
v -0.413795 1.218668 -0.041673
v -0.428245 1.219156 -0.022156
v -0.396188 1.198238 0.055013
v -0.331152 1.196039 -0.032832
v -0.423346 1.220736 -0.063909
v -0.413795 1.218668 -0.041673
v -0.331152 1.196039 -0.032832
v -0.374138 1.205347 -0.132917
v -0.447346 1.223292 -0.066629
v -0.482162 1.216853 -0.145157
v -0.461796 1.223781 -0.047111
v -0.547200 1.219052 -0.057311
v -0.452246 1.221713 -0.024876
v -0.504213 1.209744 0.042774
v -0.185734 1.468739 0.008383
v -0.301364 1.430713 -0.004784
v -0.292752 1.425457 -0.019647
v -0.180697 1.462112 -0.005113
v -0.180697 1.462112 -0.005113
v -0.292752 1.425457 -0.019647
v -0.297740 1.431881 -0.035666
v -0.182536 1.469771 -0.018876
v -0.297740 1.431881 -0.035666
v -0.311341 1.443561 -0.036819
v -0.189412 1.484057 -0.019142
v -0.311341 1.443561 -0.036819
v -0.319953 1.448817 -0.021955
v -0.194449 1.490684 -0.005646
v -0.319953 1.448817 -0.021955
v -0.314965 1.442393 -0.005937
v -0.192611 1.483026 0.008117
v -0.314965 1.442393 -0.005937
v -0.301364 1.430713 -0.004784
v -0.372022 1.360290 -0.013899
v -0.360841 1.356940 -0.030229
v -0.360841 1.356940 -0.030229
v -0.367974 1.361596 -0.048405
v -0.367974 1.361596 -0.048405
v -0.386288 1.369602 -0.050251
v -0.386288 1.369602 -0.050251
v -0.397469 1.372953 -0.033920
v -0.397469 1.372953 -0.033920
v -0.390337 1.368297 -0.015745
v -0.390337 1.368297 -0.015745
v -0.372022 1.360290 -0.013899
v -0.408550 1.282960 -0.019271
v -0.395993 1.279762 -0.037272
v -0.395993 1.279762 -0.037272
v -0.404076 1.284402 -0.057400
v -0.404076 1.284402 -0.057400
v -0.424717 1.292240 -0.059526
v -0.424717 1.292240 -0.059526
v -0.437274 1.295438 -0.041523
v -0.437274 1.295438 -0.041523
v -0.429191 1.290798 -0.021396
v -0.429191 1.290798 -0.021396
v -0.408550 1.282960 -0.019271
v -0.428245 1.219156 -0.022156
v -0.413795 1.218668 -0.041673
v -0.413795 1.218668 -0.041673
v -0.423346 1.220736 -0.063909
v -0.447346 1.223292 -0.066629
v -0.461796 1.223781 -0.047111
v -0.452246 1.221713 -0.024876
v -0.486370 0.513941 0.172878
v -0.510776 0.459492 0.214990
v -0.446196 0.475130 0.226018
v -0.351585 0.517114 0.197781
v -0.296281 0.552439 0.165943
v -0.443133 0.553621 0.112726
v -0.314629 0.573504 0.062248
v -0.446394 0.575582 0.023219
v -0.443133 0.553621 0.112726
v -0.285980 0.568968 0.126557
v -0.440776 0.563910 -0.042714
v -0.380256 0.574389 -0.016375
v -0.607007 0.426585 0.166490
v -0.570964 0.457317 0.182303
v -0.543298 0.517869 -0.065053
v -0.509573 0.550332 -0.045624
v -0.664827 0.369477 0.129493
v -0.641491 0.418561 0.146063
v -0.605134 0.458366 -0.090966
v -0.582786 0.506115 -0.068529
v -0.237126 0.540909 0.171616
v -0.228240 0.554145 0.138839
v -0.171504 0.526408 0.144032
v -0.180348 0.513236 0.176652
v 0.561895 0.914053 0.188069
v 0.613217 0.875862 0.122411
v 0.524468 0.889903 0.090477
v 0.377292 0.909670 0.110269
v 0.285352 0.925886 0.146053
v 0.476377 0.922460 0.268030
v 0.271637 0.899248 0.300802
v 0.446426 0.901938 0.398554
v 0.476377 0.922460 0.268030
v 0.255280 0.923092 0.201608
v 0.412702 0.852788 0.483968
v 0.335727 0.869413 0.430824
v 0.732983 0.826839 0.211304
v 0.687280 0.865632 0.186587
v 0.551639 0.802999 0.535153
v 0.510686 0.846085 0.506732
v 0.801760 0.749332 0.264675
v 0.774733 0.812113 0.248440
v 0.630496 0.729108 0.573915
v 0.607165 0.793545 0.549549
v 0.202245 0.906000 0.115384
v 0.176766 0.903015 0.161363
v 0.096901 0.864185 0.127447
v 0.122258 0.867157 0.081688
v 0.033524 0.783518 0.104688
v 0.058881 0.786489 0.058930
v -0.305500 0.796398 -0.433249
v -0.361495 0.711902 -0.348783
v -0.313273 0.768711 -0.284655
v -0.196546 0.864773 -0.253956
v -0.102749 0.898597 -0.248311
v -0.170754 0.813592 -0.465756
v 0.002561 0.871236 -0.364242
v -0.086227 0.802013 -0.555016
v -0.170754 0.813592 -0.465756
v -0.045456 0.900693 -0.281218
v 0.018329 0.718074 -0.553700
v 0.043521 0.776794 -0.479181
v -0.391652 0.616653 -0.454535
v -0.370765 0.668268 -0.419759
v -0.051393 0.622830 -0.638878
v -0.035694 0.675532 -0.602767
v -0.417244 0.506672 -0.524246
v -0.398532 0.570130 -0.497842
v -0.092334 0.511027 -0.699091
v -0.081777 0.576217 -0.668399
v 0.073938 0.914777 0.044912
v 0.103134 0.915190 0.029199
v 0.069212 0.955050 -0.046547
v 0.028529 0.954475 -0.024652
v -0.056036 0.939674 -0.173023
v -0.007722 0.940357 -0.199026
v 0.032626 0.960177 -0.116642
v -0.009935 0.959575 -0.093736
v -0.060592 0.145798 -0.082599
v -0.090205 0.112299 -0.052804
v -0.009620 0.000000 -0.029069
v 0.054824 0.000000 -0.076309
v -0.090205 0.112299 -0.052804
v -0.128437 0.081685 -0.074189
v -0.082664 0.000000 -0.061084
v -0.009620 0.000000 -0.029069
v -0.128437 0.081685 -0.074189
v -0.137057 0.084571 -0.125369
v -0.091264 0.000000 -0.140337
v -0.137057 0.084571 -0.125369
v -0.107445 0.118071 -0.155164
v -0.026821 0.000000 -0.187577
v -0.107445 0.118071 -0.155164
v -0.069212 0.148681 -0.133779
v 0.046223 0.000000 -0.155562
v -0.069212 0.148681 -0.133779
v -0.060592 0.145798 -0.082599
v 0.008337 1.821672 0.111817
v 0.018070 1.823518 0.119137
v -0.037725 1.747506 0.172262
v -0.047317 1.752114 0.154438
v 0.018599 1.834289 0.126491
v -0.042604 1.759048 0.189363
v -0.037725 1.747506 0.172262
v 0.009395 1.843215 0.126526
v -0.057077 1.775192 0.188642
v -0.042604 1.759048 0.189363
v -0.000337 1.841368 0.119206
v -0.066669 1.779797 0.170820
v -0.057077 1.775192 0.188642
v -0.000866 1.830596 0.111851
v -0.061790 1.768260 0.153718
v -0.066669 1.779797 0.170820
v 0.008337 1.821672 0.111817
v -0.047317 1.752114 0.154438
v -0.061790 1.768260 0.153718
v -0.111723 1.659734 0.160553
v -0.114234 1.676067 0.138669
v -0.127956 1.664026 0.181261
v -0.111723 1.659734 0.160553
v -0.146701 1.684660 0.180087
v -0.127956 1.664026 0.181261
v -0.149212 1.700995 0.158203
v -0.146701 1.684660 0.180087
v -0.132979 1.696696 0.137494
v -0.149212 1.700995 0.158203
v -0.114234 1.676067 0.138669
v -0.132979 1.696696 0.137494
v -0.165131 1.584319 0.105829
v -0.164837 1.604858 0.085866
v -0.187325 1.581219 0.121639
v -0.165131 1.584319 0.105829
v -0.209225 1.598658 0.117486
v -0.187325 1.581219 0.121639
v -0.208930 1.619198 0.097523
v -0.209225 1.598658 0.117486
v -0.186737 1.622298 0.081713
v -0.208930 1.619198 0.097523
v -0.164837 1.604858 0.085866
v -0.186737 1.622298 0.081713
v -0.178106 1.500333 0.036456
v -0.177714 1.523477 0.013180
v -0.205486 1.487777 0.046818
v -0.178106 1.500333 0.036456
v -0.232474 1.498361 0.033903
v -0.205486 1.487777 0.046818
v -0.232082 1.521500 0.010627
v -0.232474 1.498361 0.033903
v -0.204701 1.534055 0.000265
v -0.232082 1.521500 0.010627
v -0.177714 1.523477 0.013180
v -0.204701 1.534055 0.000265
v -0.148139 1.410065 -0.028432
v -0.146701 1.433477 -0.057296
v -0.177345 1.388111 -0.022358
v -0.148139 1.410065 -0.028432
v -0.205113 1.389553 -0.045148
v -0.177345 1.388111 -0.022358
v -0.203674 1.412965 -0.074013
v -0.205113 1.389553 -0.045148
v -0.174468 1.434921 -0.080086
v -0.203674 1.412965 -0.074013
v -0.146701 1.433477 -0.057296
v -0.174468 1.434921 -0.080086
v -0.088204 1.321902 -0.068812
v -0.081822 1.341359 -0.105340
v -0.118920 1.292416 -0.064133
v -0.088204 1.321902 -0.068812
v -0.143254 1.282386 -0.095983
v -0.118920 1.292416 -0.064133
v -0.136873 1.301832 -0.132511
v -0.143254 1.282386 -0.095983
v -0.106157 1.331319 -0.137189
v -0.136873 1.301832 -0.132511
v -0.081822 1.341359 -0.105340
v -0.106157 1.331319 -0.137189
v -0.016494 1.232348 -0.078123
v -0.001958 1.241570 -0.115651
v -0.047359 1.203024 -0.073565
v -0.016494 1.232348 -0.078123
v -0.063688 1.182929 -0.106533
v -0.047359 1.203024 -0.073565
v -0.049151 1.192143 -0.144061
v -0.063688 1.182929 -0.106533
v -0.018286 1.221468 -0.148620
v -0.049151 1.192143 -0.144061
v -0.001958 1.241570 -0.115651
v -0.018286 1.221468 -0.148620
v 0.052196 1.139767 -0.048788
v 0.075433 1.137207 -0.082629
v 0.017898 1.115149 -0.045810
v 0.052196 1.139767 -0.048788
v 0.006839 1.087982 -0.076671
v 0.017898 1.115149 -0.045810
v 0.030075 1.085423 -0.110511
v 0.006839 1.087982 -0.076671
v 0.064372 1.110040 -0.113490
v 0.030075 1.085423 -0.110511
v 0.075433 1.137207 -0.082629
v 0.064372 1.110040 -0.113490
v 0.098610 1.042901 0.013997
v 0.127346 1.028915 -0.012491
v 0.060267 1.026908 0.011359
v 0.098610 1.042901 0.013997
v 0.050662 0.996918 -0.017767
v 0.060267 1.026908 0.011359
v 0.079399 0.982932 -0.044255
v 0.050662 0.996918 -0.017767
v 0.117740 0.998929 -0.041616
v 0.079399 0.982932 -0.044255
v 0.127346 1.028915 -0.012491
v 0.117740 0.998929 -0.041616
v 0.107257 0.941350 0.095437
v 0.136863 0.918195 0.076281
v 0.068042 0.936418 0.083926
v 0.107257 0.941350 0.095437
v 0.058434 0.908337 0.053258
v 0.068042 0.936418 0.083926
v 0.088041 0.885186 0.034102
v 0.058434 0.908337 0.053258
v 0.127255 0.890114 0.045613
v 0.088041 0.885186 0.034102
v 0.136863 0.918195 0.076281
v 0.127255 0.890114 0.045613
v 0.071959 0.835573 0.173173
v 0.099874 0.806896 0.158154
v 0.036635 0.842323 0.153053
v 0.071959 0.835573 0.173173
v 0.029225 0.820393 0.117916
v 0.036635 0.842323 0.153053
v 0.057140 0.791722 0.102897
v 0.029225 0.820393 0.117916
v 0.092464 0.784973 0.123016
v 0.057140 0.791722 0.102897
v 0.099874 0.806896 0.158154
v 0.092464 0.784973 0.123016
v -0.000107 0.726353 0.223863
v 0.027134 0.696494 0.209550
v -0.028385 0.743851 0.198654
v -0.000107 0.726353 0.223863
v -0.029421 0.731495 0.159130
v -0.028385 0.743851 0.198654
v -0.002180 0.701637 0.144817
v -0.029421 0.731495 0.159130
v 0.026097 0.684137 0.170026
v -0.002180 0.701637 0.144817
v 0.027134 0.696494 0.209550
v 0.026097 0.684137 0.170026
v -0.089487 0.615111 0.231315
v -0.059427 0.588736 0.216933
v -0.111265 0.640700 0.205429
v -0.089487 0.615111 0.231315
v -0.102983 0.639916 0.165161
v -0.111265 0.640700 0.205429
v -0.072923 0.613541 0.150780
v -0.102983 0.639916 0.165161
v -0.051145 0.587956 0.176666
v -0.072923 0.613541 0.150780
v -0.059427 0.588736 0.216933
v -0.051145 0.587956 0.176666
v -0.170425 0.503753 0.192463
v -0.134880 0.485023 0.180867
v -0.189188 0.533416 0.167875
v -0.170425 0.503753 0.192463
v -0.172407 0.544350 0.131691
v -0.189188 0.533416 0.167875
v -0.136863 0.525615 0.120094
v -0.172407 0.544350 0.131691
v -0.118099 0.495952 0.144682
v -0.136863 0.525615 0.120094
v -0.134880 0.485023 0.180867
v -0.118099 0.495952 0.144682
v -0.219741 0.394322 0.119262
v -0.179605 0.385970 0.114622
v -0.238654 0.423392 0.094201
v -0.219741 0.394322 0.119262
v -0.217432 0.444112 0.064502
v -0.238654 0.423392 0.094201
v -0.177296 0.435763 0.059862
v -0.217432 0.444112 0.064502
v -0.158383 0.406694 0.084922
v -0.177296 0.435763 0.059862
v -0.179605 0.385970 0.114622
v -0.158383 0.406694 0.084922
v -0.224954 0.287497 0.033567
v -0.185126 0.293369 0.041538
v -0.244009 0.311595 0.004530
v -0.224954 0.287497 0.033567
v -0.222355 0.339185 -0.019691
v -0.244009 0.311595 0.004530
v -0.181648 0.342685 -0.014873
v -0.222355 0.339185 -0.019691
v -0.162592 0.318588 0.014164
v -0.181648 0.342685 -0.014873
v -0.185126 0.293369 0.041538
v -0.162592 0.318588 0.014164
v -0.189046 0.184183 -0.040661
v -0.150681 0.199423 -0.027165
v -0.205606 0.200507 -0.077420
v -0.189046 0.184183 -0.040661
v -0.183800 0.232071 -0.100685
v -0.205606 0.200507 -0.077420
v -0.145435 0.247311 -0.087190
v -0.183800 0.232071 -0.100685
v -0.128876 0.230989 -0.050430
v -0.145435 0.247311 -0.087190
v -0.150681 0.199423 -0.027165
v -0.128876 0.230989 -0.050430
v -0.416065 1.665154 -0.124075
v -0.509296 1.752338 -0.302751
v -0.528353 1.615958 -0.322870
v -0.495665 1.604543 -0.233746
v -0.416065 1.665154 -0.124075
v -0.341676 1.709734 -0.065592
v -0.394430 1.828758 -0.286481
v -0.509296 1.752338 -0.302751
v -0.251478 1.830287 -0.150698
v -0.327656 1.933692 -0.333355
v -0.394430 1.828758 -0.286481
v -0.294482 1.758406 -0.073796
v -0.212223 1.922962 -0.374805
v -0.327656 1.933692 -0.333355
v -0.251478 1.830287 -0.150698
v -0.199503 1.895909 -0.282108
v -0.509296 1.752338 -0.302751
v -0.537543 1.772611 -0.443290
v -0.538206 1.649989 -0.462086
v -0.530813 1.652874 -0.399558
v -0.255249 1.926029 -0.508610
v -0.355785 1.949308 -0.472715
v -0.327656 1.933692 -0.333355
v -0.252622 1.926618 -0.445412
v -0.537543 1.772611 -0.443290
v -0.509856 1.745042 -0.592254
v -0.536864 1.646111 -0.589238
v -0.535355 1.661804 -0.523584
v -0.266147 1.907859 -0.634066
v -0.347367 1.891333 -0.616938
v -0.355785 1.949308 -0.472715
v -0.271944 1.918025 -0.566007
v -0.298560 1.669068 0.008441
v -0.258314 1.708011 0.001799
v -0.213963 1.649353 0.038286
v -0.254017 1.610596 0.044897
v -0.167630 1.586872 0.066324
v -0.207684 1.548114 0.072935
v -0.039293 0.900914 0.662796
v 0.042087 0.910814 0.693293
v 0.043106 0.907133 0.602384
v -0.012523 0.870192 0.475995
v -0.068023 0.841271 0.403990
v -0.125660 0.850619 0.612247
v -0.183982 0.755793 0.447202
v -0.228172 0.774431 0.632193
v -0.125660 0.850619 0.612247
v -0.117977 0.808342 0.396196
v -0.281765 0.691031 0.639224
v -0.262312 0.701251 0.551277
v 0.017437 0.873614 0.836298
v 0.010156 0.900678 0.781138
v -0.271542 0.673622 0.786905
v -0.276812 0.707085 0.733942
v 0.024084 0.811042 0.928005
v 0.002778 0.860212 0.887733
v -0.252633 0.622735 0.882055
v -0.267349 0.677525 0.842081
v -0.051267 0.811134 0.324519
v -0.092423 0.783149 0.317670
v -0.063658 0.739788 0.243375
v -0.022700 0.767639 0.250192
v -0.021283 0.663059 0.194691
v 0.019675 0.690910 0.201506
v -0.227347 1.555246 0.341908
v -0.249700 1.513701 0.530579
v -0.139265 1.488787 0.529868
v -0.148089 1.524027 0.450051
v -0.227347 1.555246 0.341908
v -0.288643 1.553539 0.267228
v -0.343900 1.464019 0.464820
v -0.249700 1.513701 0.530579
v -0.400144 1.461219 0.290483
v -0.439629 1.408977 0.474455
v -0.343900 1.464019 0.464820
v -0.339141 1.526438 0.253098
v -0.463421 1.305870 0.429725
v -0.439629 1.408977 0.474455
v -0.400144 1.461219 0.290483
v -0.454627 1.353516 0.356740
v -0.249700 1.513701 0.530579
v -0.244634 1.443569 0.642796
v -0.150324 1.410128 0.632672
v -0.159978 1.446749 0.588077
v -0.441405 1.246601 0.543295
v -0.431183 1.338719 0.584971
v -0.439629 1.408977 0.474455
v -0.447923 1.286317 0.500716
v -0.244634 1.443569 0.642796
v -0.219887 1.323589 0.717846
v -0.137208 1.325490 0.713837
v -0.154987 1.370188 0.673138
v -0.413897 1.168416 0.628096
v -0.377984 1.228859 0.662930
v -0.431183 1.338719 0.584971
v -0.425468 1.218405 0.589219
v -0.175021 1.475033 0.007690
v -0.209163 1.455679 -0.002891
v -0.260212 1.506348 0.053555
v -0.219249 1.529568 0.066250
v -0.277327 1.567072 0.185503
v -0.318486 1.543741 0.172748
v -0.290840 1.528778 0.111356
v -0.249878 1.551999 0.124051
v -0.615531 1.281178 -0.513431
v -0.661772 1.125514 -0.457578
v -0.581278 1.155817 -0.379189
v -0.435891 1.283693 -0.332552
v -0.324772 1.327112 -0.339211
v -0.471986 1.332129 -0.580112
v -0.245191 1.375559 -0.502811
v -0.405780 1.380786 -0.702056
v -0.471986 1.332129 -0.580112
v -0.270235 1.354551 -0.389232
v -0.296973 1.290166 -0.780308
v -0.238974 1.314420 -0.683121
v -0.739106 1.077614 -0.603780
v -0.699069 1.117940 -0.548280
v -0.412474 1.226350 -0.893303
v -0.377745 1.266708 -0.834205
v -0.801760 0.990450 -0.723868
v -0.765452 1.049647 -0.669508
v -0.489666 1.129941 -1.000000
v -0.461019 1.187850 -0.937811
v -0.026863 1.152128 -0.100801
v 0.001183 1.164689 -0.125604
v -0.056074 1.255678 -0.167738
v -0.095153 1.238175 -0.133176
v -0.238895 1.316634 -0.257513
v -0.192482 1.337419 -0.298558
v -0.118436 1.302363 -0.222247
v -0.159320 1.284052 -0.186091
v 0.115331 1.058126 0.437817
v -0.010195 0.920450 0.229921
v -0.010195 0.920450 0.229921
v -0.280247 0.852734 0.250388
v -0.424773 0.922694 0.478751
v -0.299247 1.060371 0.686649
v -0.029195 1.128087 0.666181
v 0.096203 1.185911 0.376165
v -0.036972 1.039844 0.155599
v -0.036972 1.039844 0.155599
v -0.323483 0.968001 0.177313
v -0.476817 1.042225 0.419595
v -0.343641 1.188292 0.640161
v -0.057131 1.260134 0.618447
v -0.091860 1.144991 0.156216
v 0.016464 1.263800 0.335621
v -0.091860 1.144991 0.156216
v -0.324903 1.086555 0.173879
v -0.449622 1.146928 0.370947
v -0.341300 1.265736 0.550352
v -0.108256 1.324172 0.532690
v -0.227077 1.281211 0.292324
v -0.215646 1.293750 0.311259
v -0.125935 1.302806 0.310854
v -0.177389 1.246371 0.225634
v -0.251672 1.275044 0.294188
v -0.227077 1.281211 0.292324
v -0.177389 1.246371 0.225634
v -0.288088 1.218613 0.234024
v -0.264834 1.281415 0.314986
v -0.347331 1.247291 0.327635
v -0.253402 1.293954 0.333920
v -0.295876 1.303726 0.412855
v -0.228808 1.300121 0.332055
v -0.185178 1.331484 0.404464
v -0.176180 1.482992 0.000866
v -0.222053 1.467555 0.119531
v -0.230033 1.454058 0.109149
v -0.183916 1.469650 -0.005269
v -0.183916 1.469650 -0.005269
v -0.230033 1.454058 0.109149
v -0.248700 1.453719 0.106905
v -0.199700 1.470779 -0.010278
v -0.248700 1.453719 0.106905
v -0.259388 1.466877 0.115045
v -0.207749 1.485252 -0.009149
v -0.259388 1.466877 0.115045
v -0.251410 1.480374 0.125428
v -0.200013 1.498594 -0.003012
v -0.251410 1.480374 0.125428
v -0.232742 1.480713 0.127671
v -0.184229 1.497464 0.001996
v -0.232742 1.480713 0.127671
v -0.222053 1.467555 0.119531
v -0.234550 1.414421 0.209062
v -0.243459 1.401435 0.195153
v -0.243459 1.401435 0.195153
v -0.264323 1.398962 0.194955
v -0.264323 1.398962 0.194955
v -0.276279 1.409474 0.208667
v -0.276279 1.409474 0.208667
v -0.267370 1.422460 0.222577
v -0.267370 1.422460 0.222577
v -0.246505 1.424933 0.222774
v -0.246505 1.424933 0.222774
v -0.234550 1.414421 0.209062
v -0.227296 1.349172 0.270182
v -0.237196 1.335261 0.254450
v -0.237196 1.335261 0.254450
v -0.260196 1.332090 0.254595
v -0.260196 1.332090 0.254595
v -0.273296 1.342832 0.270472
v -0.273296 1.342832 0.270472
v -0.263396 1.356744 0.286205
v -0.263396 1.356744 0.286205
v -0.240396 1.359914 0.286060
v -0.240396 1.359914 0.286060
v -0.227296 1.349172 0.270182
v -0.215646 1.293750 0.311259
v -0.227077 1.281211 0.292324
v -0.227077 1.281211 0.292324
v -0.251672 1.275044 0.294188
v -0.264834 1.281415 0.314986
v -0.253402 1.293954 0.333920
v -0.228808 1.300121 0.332055
v -0.364719 0.350039 -0.104340
v -0.144593 0.312473 -0.091000
v -0.144593 0.312473 -0.091000
v -0.010268 0.373804 -0.259048
v -0.096070 0.472700 -0.440438
v -0.316196 0.510266 -0.453780
v -0.450521 0.448936 -0.285731
v -0.358464 0.448237 -0.045354
v -0.124922 0.408381 -0.031199
v -0.124922 0.408381 -0.031199
v 0.017588 0.473449 -0.209489
v -0.073442 0.578373 -0.401934
v -0.306984 0.618229 -0.416089
v -0.449495 0.553161 -0.237799
v -0.131248 0.503220 -0.031124
v -0.321207 0.535638 -0.042637
v -0.131248 0.503220 -0.031124
v -0.015332 0.556146 -0.176142
v -0.089375 0.641489 -0.332673
v -0.279334 0.673907 -0.344187
v -0.395250 0.620982 -0.199169
v -0.187874 0.647333 -0.138725
v -0.207922 0.650754 -0.139940
v -0.252214 0.620867 -0.091300
v -0.161981 0.605468 -0.085831
v -0.175642 0.652919 -0.154030
v -0.187874 0.647333 -0.138725
v -0.161981 0.605468 -0.085831
v -0.106920 0.630608 -0.154717
v -0.183455 0.661925 -0.170549
v -0.142091 0.671148 -0.229071
v -0.203503 0.665347 -0.171765
v -0.232324 0.686547 -0.234540
v -0.215736 0.659761 -0.156460
v -0.287386 0.661406 -0.165654
v -0.027110 0.707327 0.187477
v -0.102239 0.757208 0.105871
v -0.089044 0.751653 0.101170
v -0.017851 0.702781 0.179079
v -0.017851 0.702781 0.179079
v -0.089044 0.751653 0.101170
v -0.078228 0.760977 0.096358
v -0.006998 0.710050 0.176576
v -0.078228 0.760977 0.096358
v -0.080608 0.775857 0.096248
v -0.005403 0.721867 0.182471
v -0.080608 0.775857 0.096248
v -0.093803 0.781412 0.100949
v -0.014661 0.726413 0.190869
v -0.093803 0.781412 0.100949
v -0.104619 0.772088 0.105761
v -0.025515 0.719143 0.193372
v -0.104619 0.772088 0.105761
v -0.102239 0.757208 0.105871
v -0.167304 0.750923 -0.008273
v -0.152270 0.744020 -0.011410
v -0.152270 0.744020 -0.011410
v -0.140626 0.752711 -0.019917
v -0.140626 0.752711 -0.019917
v -0.144015 0.768305 -0.025286
v -0.144015 0.768305 -0.025286
v -0.159049 0.775208 -0.022150
v -0.159049 0.775208 -0.022150
v -0.170693 0.766517 -0.013643
v -0.170693 0.766517 -0.013643
v -0.167304 0.750923 -0.008273
v -0.195349 0.695184 -0.108144
v -0.177456 0.690087 -0.108288
v -0.177456 0.690087 -0.108288
v -0.165870 0.697160 -0.121011
v -0.165870 0.697160 -0.121011
v -0.172177 0.709332 -0.133590
v -0.172177 0.709332 -0.133590
v -0.190069 0.714430 -0.133447
v -0.190069 0.714430 -0.133447
v -0.201656 0.707356 -0.120724
v -0.201656 0.707356 -0.120724
v -0.195349 0.695184 -0.108144
v -0.207922 0.650754 -0.139940
v -0.187874 0.647333 -0.138725
v -0.187874 0.647333 -0.138725
v -0.175642 0.652919 -0.154030
v -0.183455 0.661925 -0.170549
v -0.203503 0.665347 -0.171765
v -0.215736 0.659761 -0.156460
v -0.112390 0.907767 -0.445105
v 0.031442 0.930686 -0.239723
v 0.031442 0.930686 -0.239723
v 0.272268 1.000743 -0.261860
v 0.369261 1.047880 -0.489380
v 0.225429 1.024961 -0.694762
v -0.015397 0.954904 -0.672625
v -0.161852 1.026435 -0.433114
v -0.009254 1.050751 -0.215216
v -0.009254 1.050751 -0.215216
v 0.246249 1.125077 -0.238702
v 0.349153 1.175087 -0.480087
v 0.196555 1.150771 -0.697987
v -0.058947 1.076445 -0.674500
v -0.015731 1.150848 -0.252405
v -0.139852 1.131070 -0.429641
v -0.015731 1.150848 -0.252405
v 0.192090 1.211304 -0.271510
v 0.275791 1.251981 -0.467849
v 0.151670 1.232203 -0.645084
v -0.056152 1.171747 -0.625981
v 0.036008 1.268973 -0.420949
v 0.022909 1.266886 -0.439654
v -0.050351 1.232087 -0.433673
v 0.008608 1.241482 -0.349485
v 0.057940 1.275353 -0.422965
v 0.036008 1.268973 -0.420949
v 0.008608 1.241482 -0.349485
v 0.107326 1.270200 -0.358559
v 0.066774 1.279646 -0.443686
v 0.147085 1.289522 -0.451823
v 0.053675 1.277559 -0.462391
v 0.088126 1.280127 -0.536012
v 0.031742 1.271178 -0.460374
v -0.010592 1.251410 -0.526937
v -0.145105 1.418087 -0.123131
v -0.160241 1.421702 -0.125971
v -0.122856 1.457544 -0.221972
v -0.109062 1.452572 -0.213447
v -0.135945 1.427575 -0.114397
v -0.145105 1.418087 -0.123131
v -0.109062 1.452572 -0.213447
v -0.096945 1.463807 -0.209629
v -0.141921 1.440679 -0.108502
v -0.135945 1.427575 -0.114397
v -0.096945 1.463807 -0.209629
v -0.098621 1.480015 -0.214334
v -0.157057 1.444295 -0.111341
v -0.141921 1.440679 -0.108502
v -0.098621 1.480015 -0.214334
v -0.112414 1.484988 -0.222859
v -0.166216 1.434807 -0.120076
v -0.157057 1.444295 -0.111341
v -0.112414 1.484988 -0.222859
v -0.124531 1.473752 -0.226678
v -0.160241 1.421702 -0.125971
v -0.166216 1.434807 -0.120076
v -0.124531 1.473752 -0.226678
v -0.122856 1.457544 -0.221972
v -0.066711 1.441703 -0.292967
v -0.079961 1.446018 -0.303744
v -0.033355 1.389449 -0.375531
v -0.021589 1.388527 -0.360705
v -0.052978 1.452540 -0.290890
v -0.066711 1.441703 -0.292967
v -0.021589 1.388527 -0.360705
v -0.004404 1.396447 -0.361740
v -0.052495 1.467691 -0.299592
v -0.052978 1.452540 -0.290890
v -0.004404 1.396447 -0.361740
v 0.001015 1.405289 -0.377601
v -0.065745 1.472005 -0.310370
v -0.052495 1.467691 -0.299592
v 0.001015 1.405289 -0.377601
v -0.010751 1.406211 -0.392427
v -0.079478 1.461169 -0.312446
v -0.065745 1.472005 -0.310370
v -0.010751 1.406211 -0.392427
v -0.027936 1.398291 -0.391393
v -0.079961 1.446018 -0.303744
v -0.079478 1.461169 -0.312446
v -0.027936 1.398291 -0.391393
v -0.033355 1.389449 -0.375531
v 0.002893 1.324258 -0.422647
v 0.015706 1.323687 -0.406092
v 0.015706 1.323687 -0.406092
v 0.034885 1.331991 -0.407406
v 0.034885 1.331991 -0.407406
v 0.041250 1.340866 -0.425272
v 0.041250 1.340866 -0.425272
v 0.028437 1.341438 -0.441826
v 0.028437 1.341438 -0.441826
v 0.009259 1.333134 -0.440512
v 0.009259 1.333134 -0.440512
v 0.002893 1.324258 -0.422647
v 0.022909 1.266886 -0.439654
v 0.036008 1.268973 -0.420949
v 0.036008 1.268973 -0.420949
v 0.057940 1.275353 -0.422965
v 0.066774 1.279646 -0.443686
v 0.053675 1.277559 -0.462391
v 0.031742 1.271178 -0.460374
v -0.181173 1.362565 -0.051653
v -0.174120 1.356864 -0.063565
v -0.173263 1.368180 -0.040251
v -0.158302 1.368093 -0.040759
v -0.151249 1.362392 -0.052669
v -0.159159 1.356777 -0.064073
v -0.159159 1.356777 -0.064073
v 0.265475 0.964345 -0.186205
v 0.154737 0.973584 0.014071
v 0.154737 0.973584 0.014071
v 0.262370 1.050604 0.200998
v 0.480742 1.118386 0.187649
v 0.591480 1.109147 -0.012626
v 0.483847 1.032127 -0.199554
v 0.223751 1.068128 -0.222045
v 0.106264 1.077929 -0.009563
v 0.106264 1.077929 -0.009563
v 0.220456 1.159643 0.188756
v 0.452136 1.231556 0.174593
v 0.569624 1.221754 -0.037888
v 0.455430 1.140040 -0.236207
v 0.123536 1.171437 -0.030256
v 0.219099 1.163464 -0.203085
v 0.123536 1.171437 -0.030256
v 0.216419 1.237902 0.131054
v 0.404864 1.296394 0.119533
v 0.500426 1.288422 -0.053295
v 0.407543 1.221957 -0.214604
v 0.268713 1.295881 -0.056815
v 0.278798 1.295040 -0.075055
v 0.248044 1.259487 -0.132176
v 0.202651 1.263274 -0.050081
v 0.278515 1.302896 -0.039791
v 0.268713 1.295881 -0.056815
v 0.202651 1.263274 -0.050081
v 0.246771 1.294846 0.026544
v 0.298402 1.309069 -0.041007
v 0.336285 1.322631 0.021072
v 0.308488 1.308227 -0.059246
v 0.381678 1.318844 -0.061024
v 0.298685 1.301213 -0.076270
v 0.337558 1.287272 -0.137649
v -0.060450 1.395081 -0.084180
v -0.064608 1.397869 -0.097670
v 0.024479 1.440717 -0.106243
v 0.023634 1.436126 -0.091538
v -0.064804 1.403318 -0.073214
v -0.060450 1.395081 -0.084180
v 0.023634 1.436126 -0.091538
v 0.024270 1.446528 -0.080159
v -0.073318 1.414342 -0.075738
v -0.064804 1.403318 -0.073214
v 0.024270 1.446528 -0.080159
v 0.025749 1.461520 -0.083488
v -0.077477 1.417130 -0.089229
v -0.073318 1.414342 -0.075738
v 0.025749 1.461520 -0.083488
v 0.026593 1.466111 -0.098193
v -0.073122 1.408894 -0.100195
v -0.077477 1.417130 -0.089229
v 0.026593 1.466111 -0.098193
v 0.025958 1.455709 -0.109570
v -0.064608 1.397869 -0.097670
v -0.073122 1.408894 -0.100195
v 0.025958 1.455709 -0.109570
v 0.024479 1.440717 -0.106243
v 0.106150 1.435512 -0.089225
v 0.109104 1.439736 -0.104398
v 0.191740 1.397324 -0.095327
v 0.184565 1.395730 -0.079733
v 0.108886 1.445787 -0.077236
v 0.106150 1.435512 -0.089225
v 0.184565 1.395730 -0.079733
v 0.191506 1.403817 -0.066183
v 0.114576 1.460288 -0.080421
v 0.108886 1.445787 -0.077236
v 0.191506 1.403817 -0.066183
v 0.205621 1.413499 -0.068228
v 0.117530 1.464513 -0.095594
v 0.114576 1.460288 -0.080421
v 0.205621 1.413499 -0.068228
v 0.212796 1.415094 -0.083821
v 0.114794 1.454237 -0.107583
v 0.117530 1.464513 -0.095594
v 0.212796 1.415094 -0.083821
v 0.205855 1.407007 -0.097370
v 0.109104 1.439736 -0.104398
v 0.114794 1.454237 -0.107583
v 0.205855 1.407007 -0.097370
v 0.191740 1.397324 -0.095327
v 0.251118 1.344397 -0.084666
v 0.242931 1.343015 -0.067522
v 0.242931 1.343015 -0.067522
v 0.250860 1.351571 -0.052462
v 0.250860 1.351571 -0.052462
v 0.266977 1.361510 -0.054547
v 0.266977 1.361510 -0.054547
v 0.275164 1.362892 -0.071691
v 0.275164 1.362892 -0.071691
v 0.267235 1.354336 -0.086751
v 0.267235 1.354336 -0.086751
v 0.251118 1.344397 -0.084666
v 0.278798 1.295040 -0.075055
v 0.268713 1.295881 -0.056815
v 0.268713 1.295881 -0.056815
v 0.278515 1.302896 -0.039791
v 0.298402 1.309069 -0.041007
v 0.308488 1.308227 -0.059246
v 0.298685 1.301213 -0.076270
v -0.127145 1.336715 -0.084402
v -0.114083 1.332975 -0.083465
v -0.133767 1.341149 -0.073360
v -0.127329 1.341844 -0.061380
v -0.114268 1.338104 -0.060442
v -0.107646 1.333670 -0.071484
v -0.107646 1.333670 -0.071484
v 0.001056 1.682430 0.314473
v 0.071273 1.668924 0.461866
v 0.135341 1.613025 0.418676
v 0.098154 1.638440 0.360125
v 0.001056 1.682430 0.314473
v -0.075643 1.697021 0.291455
v -0.033188 1.657913 0.470967
v 0.071273 1.668924 0.461866
v -0.156692 1.664091 0.378634
v -0.102237 1.647729 0.532990
v -0.033188 1.657913 0.470967
v -0.121206 1.692006 0.310722
v -0.163950 1.573365 0.538129
v -0.102237 1.647729 0.532990
v -0.156692 1.664091 0.378634
v -0.183597 1.602920 0.473431
v 0.071273 1.668924 0.461866
v 0.114044 1.619733 0.552390
v 0.161145 1.562041 0.512009
v 0.141342 1.590880 0.477295
v -0.107164 1.527021 0.619470
v -0.058194 1.597219 0.620903
v -0.102237 1.647729 0.532990
v -0.123236 1.557328 0.583989
v 0.114044 1.619733 0.552390
v 0.139063 1.523331 0.621137
v 0.190124 1.497145 0.581495
v 0.168995 1.535144 0.551049
v -0.065693 1.462549 0.683507
v -0.011237 1.499368 0.676623
v -0.058194 1.597219 0.620903
v -0.080718 1.502682 0.650278
v -0.106069 1.698884 0.227966
v -0.144115 1.693764 0.243132
v -0.160693 1.669414 0.193055
v -0.122828 1.674509 0.177962
v -0.175336 1.638520 0.145890
v -0.137471 1.643616 0.130796
v 0.050972 1.881110 0.065326
v 0.186597 1.969798 0.041284
v 0.205128 1.909522 -0.030258
v 0.136506 1.888624 -0.012614
v 0.050972 1.881110 0.065326
v 0.005597 1.867226 0.131461
v 0.174025 1.951039 0.144271
v 0.186597 1.969798 0.041284
v 0.070561 1.881811 0.235482
v 0.209188 1.970099 0.228641
v 0.174025 1.951039 0.144271
v 0.011627 1.868093 0.180809
v 0.243614 1.905666 0.292110
v 0.209188 1.970099 0.228641
v 0.070561 1.881811 0.235482
v 0.172246 1.886931 0.291036
v 0.186597 1.969798 0.041284
v 0.295134 1.992147 0.028480
v 0.312616 1.929623 -0.025950
v 0.263964 1.928366 -0.018183
v 0.347064 1.926809 0.263133
v 0.316918 1.990031 0.213920
v 0.209188 1.970099 0.228641
v 0.297866 1.926798 0.267053
v 0.295134 1.992147 0.028480
v 0.412262 1.961707 0.028240
v 0.411772 1.924924 -0.031017
v 0.360291 1.933223 -0.021111
v 0.445031 1.921027 0.244528
v 0.430745 1.953887 0.188988
v 0.316918 1.990031 0.213920
v 0.391686 1.930235 0.247706
v -0.050418 1.825897 0.142147
v -0.045492 1.825333 0.183124
v -0.072398 1.773664 0.180703
v -0.076152 1.774093 0.149474
v -0.091917 1.718829 0.183224
v -0.095891 1.719283 0.150166
v 0.299690 0.584577 0.535700
v 0.374181 0.576308 0.490605
v 0.311045 0.617048 0.439292
v 0.175804 0.647374 0.404309
v 0.081098 0.658397 0.401048
v 0.192353 0.567345 0.562641
v 0.005962 0.565813 0.492717
v 0.113174 0.493786 0.633569
v 0.192353 0.567345 0.562641
v 0.032183 0.634698 0.427240
v 0.052126 0.418861 0.656735
v 0.007795 0.469835 0.596288
v 0.442340 0.475231 0.577666
v 0.410862 0.525789 0.560901
v 0.152638 0.331902 0.724210
v 0.126437 0.386941 0.708820
v 0.484356 0.375947 0.604996
v 0.463311 0.439012 0.613561
v 0.209141 0.240846 0.746940
v 0.194558 0.308507 0.752005
v 0.024881 0.670041 0.336174
v -0.016053 0.649975 0.357283
v -0.066654 0.647226 0.282055
v -0.025916 0.667197 0.261047
v -0.104670 0.602533 0.200750
v -0.063932 0.622504 0.179741
f 1 2 3
f 1 3 4
f 1 4 5
f 1 5 6
f 7 8 9
f 10 11 9
f 12 10 9
f 13 12 9
f 14 13 9
f 8 14 9
f 15 16 17
f 18 19 20
f 21 22 23
f 24 25 26
f 27 28 29
f 30 31 32
f 33 34 35
f 36 19 18
f 37 38 39
f 40 41 42
f 25 43 26
f 44 45 46
f 47 48 49
f 50 51 52
f 53 54 55
f 56 57 58
f 59 60 61
f 62 63 64
f 65 48 47
f 66 67 68
f 69 70 71
f 54 72 55
f 73 74 75
f 76 77 78
f 79 80 81
f 82 83 84
f 85 86 87
f 88 89 90
f 91 92 93
f 94 77 76
f 95 96 97
f 98 99 100
f 83 101 84
f 102 103 104
f 105 106 107
f 102 108 109
f 102 109 110
f 111 112 113
f 114 115 116
f 117 118 119
f 120 121 122
f 123 124 125
f 126 127 128
f 129 130 131
f 132 115 114
f 133 134 135
f 136 137 138
f 121 139 122
f 140 141 142
f 143 144 145
f 146 147 148
f 149 150 151
f 152 153 154
f 155 156 157
f 158 159 160
f 161 144 143
f 162 163 164
f 165 166 167
f 150 168 151
f 169 170 171
f 172 173 174
f 175 176 177
f 178 179 180
f 181 182 183
f 184 185 186
f 187 188 189
f 190 173 172
f 191 192 193
f 194 195 196
f 179 197 180
f 198 199 200
f 201 202 203
f 204 205 206
f 207 208 209
f 210 211 212
f 213 214 215
f 216 217 218
f 219 202 201
f 220 221 222
f 223 224 225
f 208 226 209
f 227 228 229
f 230 231 229
f 232 230 229
f 233 232 229
f 234 233 229
f 228 234 229
f 235 236 237
f 238 239 237
f 240 238 237
f 241 240 237
f 242 241 237
f 236 242 237
f 243 244 245
f 246 247 245
f 248 246 245
f 249 248 245
f 250 249 245
f 244 250 245
f 251 252 253
f 254 255 253
f 256 254 253
f 257 256 253
f 258 257 253
f 252 258 253
f 259 260 261
f 262 263 264
f 265 266 267
f 268 269 270
f 271 272 273
f 274 275 276
f 277 278 279
f 280 263 262
f 281 282 283
f 284 285 286
f 269 287 270
f 288 289 290
f 291 292 293
f 294 295 296
f 297 298 299
f 300 301 302
f 303 304 305
f 306 307 308
f 309 292 291
f 310 311 312
f 313 314 315
f 298 316 299
f 317 318 319
f 320 321 322
f 323 324 325
f 326 327 328
f 329 330 331
f 332 333 334
f 335 336 337
f 338 321 320
f 339 340 341
f 342 343 344
f 327 345 328
f 346 347 348
f 346 348 349
f 350 351 352
f 350 352 353
f 354 350 353
f 354 353 355
f 356 354 355
f 356 355 357
f 358 356 357
f 358 357 359
f 347 358 359
f 347 359 348
f 360 8 7
f 360 7 361
f 362 11 10
f 362 10 363
f 363 10 12
f 363 12 364
f 364 12 13
f 364 13 365
f 365 13 14
f 365 14 366
f 366 14 8
f 366 8 360
f 367 360 361
f 367 361 368
f 369 362 363
f 369 363 370
f 370 363 364
f 370 364 371
f 371 364 365
f 371 365 372
f 372 365 366
f 372 366 373
f 373 366 360
f 373 360 367
f 374 375 367
f 374 367 368
f 376 369 370
f 376 370 377
f 377 370 371
f 377 371 378
f 378 371 372
f 378 372 379
f 379 372 373
f 379 373 380
f 380 373 367
f 380 367 375
f 381 382 383
f 381 383 384
f 385 386 387
f 385 387 388
f 389 385 388
f 389 388 390
f 391 389 390
f 391 390 392
f 393 391 392
f 393 392 394
f 382 393 394
f 382 394 383
f 395 396 397
f 395 397 398
f 399 400 401
f 399 401 402
f 402 403 404
f 402 404 405
f 405 406 407
f 405 407 408
f 408 409 410
f 408 410 411
f 411 412 413
f 411 413 395
f 387 376 377
f 387 377 388
f 388 377 378
f 388 378 390
f 390 378 379
f 390 379 392
f 392 379 380
f 392 380 394
f 394 380 375
f 394 375 383
f 384 383 375
f 384 375 374
f 397 396 414
f 397 414 415
f 401 400 416
f 401 416 417
f 404 403 418
f 404 418 419
f 407 406 420
f 407 420 421
f 410 409 422
f 410 422 423
f 413 412 424
f 413 424 425
f 415 414 426
f 415 426 427
f 417 416 428
f 417 428 429
f 419 418 430
f 419 430 431
f 421 420 432
f 421 432 433
f 423 422 434
f 423 434 435
f 425 424 436
f 425 436 437
f 427 426 438
f 427 438 439
f 429 428 440
f 429 440 441
f 431 430 441
f 431 441 442
f 433 432 442
f 433 442 443
f 435 434 443
f 435 443 444
f 437 436 444
f 437 444 438
f 445 446 447
f 445 447 448
f 448 449 450
f 448 450 445
f 451 452 453
f 451 453 454
f 455 452 451
f 455 451 456
f 18 457 458
f 18 458 36
f 459 38 37
f 459 37 460
f 42 461 462
f 42 462 40
f 463 43 25
f 463 25 464
f 465 466 35
f 465 35 34
f 467 466 465
f 467 465 468
f 469 470 471
f 469 471 472
f 472 473 474
f 472 474 469
f 475 476 477
f 475 477 478
f 479 476 475
f 479 475 480
f 47 481 482
f 47 482 65
f 483 67 66
f 483 66 484
f 71 485 486
f 71 486 69
f 487 72 54
f 487 54 488
f 489 490 64
f 489 64 63
f 491 490 489
f 491 489 492
f 493 491 492
f 493 492 494
f 495 496 497
f 495 497 498
f 498 499 500
f 498 500 495
f 501 502 503
f 501 503 504
f 505 502 501
f 505 501 506
f 76 507 508
f 76 508 94
f 509 96 95
f 509 95 510
f 100 511 512
f 100 512 98
f 513 101 83
f 513 83 514
f 515 516 517
f 515 517 518
f 519 520 93
f 519 93 92
f 521 520 519
f 521 519 522
f 517 521 522
f 517 522 518
f 523 524 525
f 523 525 526
f 527 528 529
f 527 529 530
f 531 532 533
f 531 533 529
f 534 535 536
f 534 536 533
f 537 538 539
f 537 539 536
f 540 541 526
f 540 526 539
f 542 543 544
f 542 544 545
f 543 546 547
f 543 547 548
f 546 549 550
f 546 550 551
f 549 552 553
f 549 553 554
f 552 555 556
f 552 556 557
f 555 558 559
f 555 559 560
f 545 544 561
f 545 561 562
f 548 547 563
f 548 563 564
f 551 550 565
f 551 565 566
f 554 553 567
f 554 567 568
f 557 556 569
f 557 569 570
f 560 559 571
f 560 571 572
f 562 561 573
f 562 573 574
f 564 563 575
f 564 575 576
f 566 565 577
f 566 577 578
f 568 567 579
f 568 579 580
f 570 569 581
f 570 581 582
f 572 571 583
f 572 583 584
f 574 573 585
f 574 585 586
f 576 575 587
f 576 587 588
f 578 577 589
f 578 589 590
f 580 579 591
f 580 591 592
f 582 581 593
f 582 593 594
f 584 583 595
f 584 595 596
f 586 585 597
f 586 597 598
f 588 587 599
f 588 599 600
f 590 589 601
f 590 601 602
f 592 591 603
f 592 603 604
f 594 593 605
f 594 605 606
f 596 595 607
f 596 607 608
f 598 597 609
f 598 609 610
f 600 599 611
f 600 611 612
f 602 601 613
f 602 613 614
f 604 603 615
f 604 615 616
f 606 605 617
f 606 617 618
f 608 607 619
f 608 619 620
f 610 609 621
f 610 621 622
f 612 611 623
f 612 623 624
f 614 613 625
f 614 625 626
f 616 615 627
f 616 627 628
f 618 617 629
f 618 629 630
f 620 619 631
f 620 631 632
f 622 621 633
f 622 633 634
f 624 623 635
f 624 635 636
f 626 625 637
f 626 637 638
f 628 627 639
f 628 639 640
f 630 629 641
f 630 641 642
f 632 631 643
f 632 643 644
f 634 633 645
f 634 645 646
f 636 635 647
f 636 647 648
f 638 637 649
f 638 649 650
f 640 639 651
f 640 651 652
f 642 641 653
f 642 653 654
f 644 643 655
f 644 655 656
f 646 645 657
f 646 657 658
f 648 647 659
f 648 659 660
f 650 649 661
f 650 661 662
f 652 651 663
f 652 663 664
f 654 653 665
f 654 665 666
f 656 655 667
f 656 667 668
f 658 657 669
f 658 669 670
f 660 659 671
f 660 671 672
f 662 661 673
f 662 673 674
f 664 663 675
f 664 675 676
f 666 665 677
f 666 677 678
f 668 667 679
f 668 679 680
f 670 669 681
f 670 681 682
f 672 671 683
f 672 683 684
f 674 673 685
f 674 685 686
f 676 675 687
f 676 687 688
f 678 677 689
f 678 689 690
f 680 679 691
f 680 691 692
f 682 681 693
f 682 693 694
f 684 683 695
f 684 695 696
f 686 685 697
f 686 697 698
f 688 687 699
f 688 699 700
f 690 689 701
f 690 701 702
f 692 691 703
f 692 703 704
f 694 693 705
f 694 705 706
f 696 695 707
f 696 707 708
f 698 697 709
f 698 709 710
f 700 699 711
f 700 711 712
f 702 701 713
f 702 713 714
f 704 703 715
f 704 715 716
f 706 705 717
f 706 717 718
f 708 707 719
f 708 719 720
f 710 709 721
f 710 721 722
f 712 711 723
f 712 723 724
f 714 713 725
f 714 725 726
f 716 715 727
f 716 727 728
f 718 717 729
f 718 729 730
f 720 719 731
f 720 731 732
f 722 721 733
f 722 733 734
f 724 723 735
f 724 735 736
f 726 725 737
f 726 737 738
f 728 727 739
f 728 739 740
f 730 729 741
f 730 741 742
f 732 731 743
f 732 743 744
f 734 733 745
f 734 745 746
f 736 735 747
f 736 747 748
f 738 737 749
f 738 749 750
f 740 739 751
f 740 751 752
f 742 741 528
f 742 528 527
f 744 743 532
f 744 532 531
f 746 745 535
f 746 535 534
f 748 747 538
f 748 538 537
f 750 749 541
f 750 541 540
f 752 751 524
f 752 524 523
f 753 754 755
f 753 755 756
f 757 758 759
f 757 759 760
f 761 762 763
f 761 763 764
f 765 766 767
f 765 767 768
f 769 770 771
f 769 771 772
f 773 774 775
f 773 775 776
f 777 778 779
f 777 779 780
f 781 782 783
f 781 783 784
f 785 786 131
f 785 131 130
f 787 786 785
f 787 785 788
f 789 787 788
f 789 788 790
f 791 792 793
f 791 793 794
f 794 795 796
f 794 796 791
f 797 798 799
f 797 799 800
f 801 798 797
f 801 797 802
f 143 803 804
f 143 804 161
f 805 163 162
f 805 162 806
f 167 807 808
f 167 808 165
f 809 168 150
f 809 150 810
f 811 812 160
f 811 160 159
f 813 812 811
f 813 811 814
f 815 813 814
f 815 814 816
f 817 818 819
f 817 819 820
f 821 822 823
f 821 823 824
f 825 826 827
f 825 827 828
f 829 830 831
f 829 831 832
f 833 834 835
f 833 835 836
f 837 838 839
f 837 839 840
f 841 842 843
f 841 843 844
f 845 846 847
f 845 847 848
f 849 850 851
f 849 851 852
f 853 854 189
f 853 189 188
f 855 854 853
f 855 853 856
f 851 855 856
f 851 856 852
f 857 858 859
f 857 859 860
f 860 861 862
f 860 862 857
f 863 864 865
f 863 865 866
f 867 864 863
f 867 863 868
f 201 869 870
f 201 870 219
f 871 221 220
f 871 220 872
f 225 873 874
f 225 874 223
f 875 226 208
f 875 208 876
f 877 878 879
f 877 879 880
f 881 882 218
f 881 218 217
f 883 882 881
f 883 881 884
f 879 883 884
f 879 884 880
f 885 228 227
f 885 227 886
f 887 231 230
f 887 230 888
f 888 230 232
f 888 232 889
f 889 232 233
f 889 233 890
f 890 233 234
f 890 234 891
f 891 234 228
f 891 228 885
f 892 885 886
f 892 886 893
f 894 887 888
f 894 888 895
f 895 888 889
f 895 889 896
f 896 889 890
f 896 890 897
f 897 890 891
f 897 891 898
f 898 891 885
f 898 885 892
f 899 900 892
f 899 892 893
f 901 894 895
f 901 895 902
f 902 895 896
f 902 896 903
f 903 896 897
f 903 897 904
f 904 897 898
f 904 898 905
f 905 898 892
f 905 892 900
f 906 907 908
f 906 908 909
f 910 911 912
f 910 912 913
f 914 910 913
f 914 913 915
f 916 914 915
f 916 915 917
f 918 916 917
f 918 917 919
f 907 918 919
f 907 919 908
f 920 921 922
f 920 922 923
f 924 925 926
f 924 926 927
f 927 928 929
f 927 929 930
f 930 931 932
f 930 932 933
f 933 934 935
f 933 935 936
f 936 937 938
f 936 938 920
f 912 901 902
f 912 902 913
f 913 902 903
f 913 903 915
f 915 903 904
f 915 904 917
f 917 904 905
f 917 905 919
f 919 905 900
f 919 900 908
f 909 908 900
f 909 900 899
f 922 921 939
f 922 939 940
f 926 925 941
f 926 941 942
f 929 928 943
f 929 943 944
f 932 931 945
f 932 945 946
f 935 934 947
f 935 947 948
f 938 937 949
f 938 949 950
f 940 939 951
f 940 951 952
f 942 941 953
f 942 953 954
f 944 943 955
f 944 955 956
f 946 945 957
f 946 957 958
f 948 947 959
f 948 959 960
f 950 949 961
f 950 961 962
f 952 951 963
f 952 963 964
f 954 953 965
f 954 965 966
f 956 955 966
f 956 966 967
f 958 957 967
f 958 967 968
f 960 959 968
f 960 968 969
f 962 961 969
f 962 969 963
f 970 236 235
f 970 235 971
f 972 239 238
f 972 238 973
f 973 238 240
f 973 240 974
f 974 240 241
f 974 241 975
f 975 241 242
f 975 242 976
f 976 242 236
f 976 236 970
f 977 970 971
f 977 971 978
f 979 972 973
f 979 973 980
f 980 973 974
f 980 974 981
f 981 974 975
f 981 975 982
f 982 975 976
f 982 976 983
f 983 976 970
f 983 970 977
f 984 985 977
f 984 977 978
f 986 979 980
f 986 980 987
f 987 980 981
f 987 981 988
f 988 981 982
f 988 982 989
f 989 982 983
f 989 983 990
f 990 983 977
f 990 977 985
f 991 992 993
f 991 993 994
f 995 996 997
f 995 997 998
f 999 995 998
f 999 998 1000
f 1001 999 1000
f 1001 1000 1002
f 1003 1001 1002
f 1003 1002 1004
f 992 1003 1004
f 992 1004 993
f 1005 1006 1007
f 1005 1007 1008
f 1009 1010 1011
f 1009 1011 1012
f 1012 1013 1014
f 1012 1014 1015
f 1015 1016 1017
f 1015 1017 1018
f 1018 1019 1020
f 1018 1020 1021
f 1021 1022 1023
f 1021 1023 1005
f 997 986 987
f 997 987 998
f 998 987 988
f 998 988 1000
f 1000 988 989
f 1000 989 1002
f 1002 989 990
f 1002 990 1004
f 1004 990 985
f 1004 985 993
f 994 993 985
f 994 985 984
f 1007 1006 1024
f 1007 1024 1025
f 1011 1010 1026
f 1011 1026 1027
f 1014 1013 1028
f 1014 1028 1029
f 1017 1016 1030
f 1017 1030 1031
f 1020 1019 1032
f 1020 1032 1033
f 1023 1022 1034
f 1023 1034 1035
f 1025 1024 1036
f 1025 1036 1037
f 1027 1026 1038
f 1027 1038 1039
f 1029 1028 1040
f 1029 1040 1041
f 1031 1030 1042
f 1031 1042 1043
f 1033 1032 1044
f 1033 1044 1045
f 1035 1034 1046
f 1035 1046 1047
f 1037 1036 1048
f 1037 1048 1049
f 1039 1038 1050
f 1039 1050 1051
f 1041 1040 1051
f 1041 1051 1052
f 1043 1042 1052
f 1043 1052 1053
f 1045 1044 1053
f 1045 1053 1054
f 1047 1046 1054
f 1047 1054 1048
f 1055 244 243
f 1055 243 1056
f 1057 247 246
f 1057 246 1058
f 1058 246 248
f 1058 248 1059
f 1059 248 249
f 1059 249 1060
f 1060 249 250
f 1060 250 1061
f 1061 250 244
f 1061 244 1055
f 1062 1055 1056
f 1062 1056 1063
f 1064 1057 1058
f 1064 1058 1065
f 1065 1058 1059
f 1065 1059 1066
f 1066 1059 1060
f 1066 1060 1067
f 1067 1060 1061
f 1067 1061 1068
f 1068 1061 1055
f 1068 1055 1062
f 1069 1070 1062
f 1069 1062 1063
f 1071 1064 1065
f 1071 1065 1072
f 1072 1065 1066
f 1072 1066 1073
f 1073 1066 1067
f 1073 1067 1074
f 1074 1067 1068
f 1074 1068 1075
f 1075 1068 1062
f 1075 1062 1070
f 1076 1077 1078
f 1076 1078 1079
f 1080 1081 1082
f 1080 1082 1083
f 1084 1080 1083
f 1084 1083 1085
f 1086 1084 1085
f 1086 1085 1087
f 1088 1086 1087
f 1088 1087 1089
f 1077 1088 1089
f 1077 1089 1078
f 1090 1091 1092
f 1090 1092 1093
f 1094 1095 1096
f 1094 1096 1097
f 1098 1099 1100
f 1098 1100 1101
f 1102 1103 1104
f 1102 1104 1105
f 1106 1107 1108
f 1106 1108 1109
f 1110 1111 1112
f 1110 1112 1113
f 1082 1071 1072
f 1082 1072 1083
f 1083 1072 1073
f 1083 1073 1085
f 1085 1073 1074
f 1085 1074 1087
f 1087 1074 1075
f 1087 1075 1089
f 1089 1075 1070
f 1089 1070 1078
f 1079 1078 1070
f 1079 1070 1069
f 1114 1115 1116
f 1114 1116 1117
f 1118 1119 1120
f 1118 1120 1121
f 1122 1123 1124
f 1122 1124 1125
f 1126 1127 1128
f 1126 1128 1129
f 1130 1131 1132
f 1130 1132 1133
f 1134 1135 1136
f 1134 1136 1137
f 1117 1116 1138
f 1117 1138 1139
f 1121 1120 1140
f 1121 1140 1141
f 1125 1124 1142
f 1125 1142 1143
f 1129 1128 1144
f 1129 1144 1145
f 1133 1132 1146
f 1133 1146 1147
f 1137 1136 1148
f 1137 1148 1149
f 1139 1138 1150
f 1139 1150 1151
f 1141 1140 1152
f 1141 1152 1153
f 1143 1142 1153
f 1143 1153 1154
f 1145 1144 1154
f 1145 1154 1155
f 1147 1146 1155
f 1147 1155 1156
f 1149 1148 1156
f 1149 1156 1150
f 1157 1111 1110
f 1157 1110 1158
f 1159 1107 1106
f 1159 1106 1157
f 1160 1103 1102
f 1160 1102 1159
f 1161 1099 1098
f 1161 1098 1160
f 1162 1095 1094
f 1162 1094 1161
f 1158 1091 1090
f 1158 1090 1163
f 1113 1112 1135
f 1113 1135 1134
f 1109 1108 1131
f 1109 1131 1130
f 1105 1104 1127
f 1105 1127 1126
f 1101 1100 1123
f 1101 1123 1122
f 1097 1096 1119
f 1097 1119 1118
f 1093 1092 1115
f 1093 1115 1114
f 1164 252 251
f 1164 251 1165
f 1166 255 254
f 1166 254 1167
f 1167 254 256
f 1167 256 1168
f 1168 256 257
f 1168 257 1169
f 1169 257 258
f 1169 258 1170
f 1170 258 252
f 1170 252 1164
f 1171 1164 1165
f 1171 1165 1172
f 1173 1166 1167
f 1173 1167 1174
f 1174 1167 1168
f 1174 1168 1175
f 1175 1168 1169
f 1175 1169 1176
f 1176 1169 1170
f 1176 1170 1177
f 1177 1170 1164
f 1177 1164 1171
f 1178 1179 1171
f 1178 1171 1172
f 1180 1173 1174
f 1180 1174 1181
f 1181 1174 1175
f 1181 1175 1182
f 1182 1175 1176
f 1182 1176 1183
f 1183 1176 1177
f 1183 1177 1184
f 1184 1177 1171
f 1184 1171 1179
f 1185 1186 1187
f 1185 1187 1188
f 1189 1190 1191
f 1189 1191 1192
f 1193 1189 1192
f 1193 1192 1194
f 1195 1193 1194
f 1195 1194 1196
f 1197 1195 1196
f 1197 1196 1198
f 1186 1197 1198
f 1186 1198 1187
f 1199 1200 1201
f 1199 1201 1202
f 1203 1204 1205
f 1203 1205 1206
f 1207 1208 1209
f 1207 1209 1210
f 1211 1212 1213
f 1211 1213 1214
f 1215 1216 1217
f 1215 1217 1218
f 1219 1220 1221
f 1219 1221 1222
f 1191 1180 1181
f 1191 1181 1192
f 1192 1181 1182
f 1192 1182 1194
f 1194 1182 1183
f 1194 1183 1196
f 1196 1183 1184
f 1196 1184 1198
f 1198 1184 1179
f 1198 1179 1187
f 1188 1187 1179
f 1188 1179 1178
f 1223 1224 1225
f 1223 1225 1226
f 1227 1228 1229
f 1227 1229 1230
f 1231 1232 1233
f 1231 1233 1234
f 1235 1236 1237
f 1235 1237 1238
f 1239 1240 1241
f 1239 1241 1242
f 1243 1244 1245
f 1243 1245 1246
f 1226 1225 1247
f 1226 1247 1248
f 1230 1229 1249
f 1230 1249 1250
f 1234 1233 1251
f 1234 1251 1252
f 1238 1237 1253
f 1238 1253 1254
f 1242 1241 1255
f 1242 1255 1256
f 1246 1245 1257
f 1246 1257 1258
f 1248 1247 1259
f 1248 1259 1260
f 1250 1249 1261
f 1250 1261 1262
f 1252 1251 1262
f 1252 1262 1263
f 1254 1253 1263
f 1254 1263 1264
f 1256 1255 1264
f 1256 1264 1265
f 1258 1257 1265
f 1258 1265 1259
f 1266 1220 1219
f 1266 1219 1267
f 1268 1216 1215
f 1268 1215 1266
f 1269 1212 1211
f 1269 1211 1268
f 1270 1208 1207
f 1270 1207 1269
f 1271 1204 1203
f 1271 1203 1270
f 1267 1200 1199
f 1267 1199 1272
f 1222 1221 1244
f 1222 1244 1243
f 1218 1217 1240
f 1218 1240 1239
f 1214 1213 1236
f 1214 1236 1235
f 1210 1209 1232
f 1210 1232 1231
f 1206 1205 1228
f 1206 1228 1227
f 1202 1201 1224
f 1202 1224 1223
f 1273 1274 1275
f 1273 1275 1276
f 1277 1278 1279
f 1277 1279 1280
f 1281 1282 1283
f 1281 1283 1284
f 1285 1286 1287
f 1285 1287 1288
f 1289 1290 1291
f 1289 1291 1292
f 1293 1294 1295
f 1293 1295 1296
f 1297 1298 1299
f 1297 1299 1300
f 1301 1302 1303
f 1301 1303 1304
f 1305 1306 279
f 1305 279 278
f 1307 1306 1305
f 1307 1305 1308
f 1309 1307 1308
f 1309 1308 1310
f 1311 1312 1313
f 1311 1313 1314
f 1315 1316 1317
f 1315 1317 1318
f 1319 1320 1321
f 1319 1321 1322
f 1323 1324 1325
f 1323 1325 1326
f 1327 1328 1329
f 1327 1329 1330
f 1331 1332 1333
f 1331 1333 1334
f 1335 1336 1337
f 1335 1337 1338
f 1339 1340 1341
f 1339 1341 1342
f 1343 1344 308
f 1343 308 307
f 1345 1344 1343
f 1345 1343 1346
f 1347 1345 1346
f 1347 1346 1348
f 1349 1350 1351
f 1349 1351 1352
f 1352 1353 1354
f 1352 1354 1349
f 1355 1356 1357
f 1355 1357 1358
f 1359 1356 1355
f 1359 1355 1360
f 320 1361 1362
f 320 1362 338
f 1363 340 339
f 1363 339 1364
f 344 1365 1366
f 344 1366 342
f 1367 345 327
f 1367 327 1368
f 1369 1370 337
f 1369 337 336
f 1371 1370 1369
f 1371 1369 1372
f 1373 1371 1372
f 1373 1372 1374
