# converted by scripts/glb-to-obj.mjs
o .art-assets/tomato-pack
v -0.407040 0.359886 0.565286
v -0.316658 0.528180 0.521875
v -0.463325 0.299030 0.517144
v -0.251104 0.529021 0.595092
v -0.129957 0.622300 0.451327
v -0.316658 0.528180 0.521875
v -0.344708 0.441702 0.599611
v -0.316658 0.528180 0.521875
v -0.407040 0.359886 0.565286
v -0.129957 0.622300 0.451327
v -0.333123 0.601354 0.430257
v -0.316658 0.528180 0.521875
v -0.413861 0.502655 0.455073
v -0.449323 0.396918 0.479845
v -0.316658 0.528180 0.521875
v -0.463325 0.299030 0.517144
v -0.316658 0.528180 0.521875
v -0.449323 0.396918 0.479845
v -0.129957 0.622300 0.451327
v 0.043977 0.620882 0.381746
v 0.021759 0.640705 0.338266
v -0.120646 0.574709 0.539685
v -0.204322 0.648639 0.373807
v -0.333123 0.601354 0.430257
v -0.129957 0.622300 0.451327
v -0.251104 0.529021 0.595092
v -0.316658 0.528180 0.521875
v -0.344708 0.441702 0.599611
v -0.413861 0.502655 0.455073
v 0.737615 1.753166 -0.816324
v 0.683917 1.753136 -0.599740
v 0.838586 1.677494 -0.889321
v 0.552154 1.844153 -0.595142
v 0.539583 1.700839 -0.364513
v 0.683917 1.753136 -0.599740
v 0.659547 1.808493 -0.752568
v 0.683917 1.753136 -0.599740
v 0.737615 1.753166 -0.816324
v 0.539583 1.700839 -0.364513
v 0.780685 1.724513 -0.452738
v 0.683917 1.753136 -0.599740
v 0.854620 1.695449 -0.632046
v 0.855501 1.689966 -0.743315
v 0.683917 1.753136 -0.599740
v 0.838586 1.677494 -0.889321
v 0.683917 1.753136 -0.599740
v 0.855501 1.689966 -0.743315
v 0.539583 1.700839 -0.364513
v 0.322592 1.556629 -0.240269
v 0.384272 1.527033 -0.201840
v 0.444594 1.790686 -0.466454
v 0.677153 1.673649 -0.321889
v 0.780685 1.724513 -0.452738
v 0.539583 1.700839 -0.364513
v 0.552154 1.844153 -0.595142
v 0.683917 1.753136 -0.599740
v 0.659547 1.808493 -0.752568
v 0.854620 1.695449 -0.632046
v 0.966062 0.842804 -0.227630
v 0.887033 0.985717 -0.177617
v 1.000000 0.764286 -0.173986
v 0.842478 1.023661 -0.268743
v 0.693305 1.071854 -0.133453
v 0.887033 0.985717 -0.177617
v 0.925087 0.935234 -0.265108
v 0.887033 0.985717 -0.177617
v 0.966062 0.842804 -0.227630
v 0.693305 1.071854 -0.133453
v 0.887681 1.012437 -0.067393
v 0.887033 0.985717 -0.177617
v 0.961605 0.923749 -0.089581
v 0.989195 0.836632 -0.123387
v 0.887033 0.985717 -0.177617
v 1.000000 0.764286 -0.173986
v 0.887033 0.985717 -0.177617
v 0.989195 0.836632 -0.123387
v 0.693305 1.071854 -0.133453
v 0.499086 1.074828 -0.102123
v 0.511697 1.072403 -0.048760
v 0.702515 1.064557 -0.234658
v 0.749302 1.054042 -0.031592
v 0.887681 1.012437 -0.067393
v 0.693305 1.071854 -0.133453
v 0.842478 1.023661 -0.268743
v 0.887033 0.985717 -0.177617
v 0.925087 0.935234 -0.265108
v 0.961605 0.923749 -0.089581
v -0.441776 1.387050 0.164884
v -0.456983 1.401448 0.116291
v -0.711339 1.324666 0.203684
v -0.459733 1.357852 0.086430
v -0.459733 1.357852 0.086430
v -0.446227 1.316511 0.116568
v -0.435130 1.334556 0.165054
v -0.424910 1.639178 0.226941
v -0.428650 1.556000 0.150205
v -0.417446 1.546796 0.256753
v -0.462618 1.203151 -0.115961
v -0.430750 1.227263 -0.007241
v -0.476144 1.286526 -0.078117
v -0.501465 1.538957 -0.095733
v -0.468788 1.442624 -0.044063
v -0.486653 1.541377 0.006014
v -0.341222 1.356346 0.410447
v -0.367858 1.407287 0.309904
v -0.365953 1.297629 0.334922
v -0.364012 1.081753 0.189098
v -0.369965 1.194147 0.202356
v -0.402662 1.136901 0.124982
v -0.464997 1.386580 -0.056982
v -0.490275 1.331074 -0.156118
v -0.476144 1.286526 -0.078117
v -0.413495 1.189163 0.037895
v -0.400239 1.077746 0.053826
v -0.402662 1.136901 0.124982
v -0.440633 1.560604 0.108876
v -0.479276 1.638415 0.033135
v -0.486653 1.541377 0.006014
v -0.358909 1.222953 0.250647
v -0.332977 1.207176 0.360700
v -0.365953 1.297629 0.334922
v -0.376527 1.454308 0.292269
v -0.380195 1.552388 0.347743
v -0.417446 1.546796 0.256753
v -0.287367 1.250270 0.495757
v -0.508334 1.687198 -0.105948
v -0.383968 1.686812 0.344850
v -0.490100 1.226634 -0.250072
v -0.355532 0.962998 0.118598
v -0.007916 2.140046 0.652608
v -0.058995 2.132203 0.634214
v -0.136784 2.221352 0.898932
v -0.075921 2.083021 0.651639
v -0.075921 2.083021 0.651639
v -0.035303 2.060469 0.680802
v 0.006727 2.095712 0.681402
v 0.002770 2.366000 0.505662
v -0.044248 2.261168 0.529714
v 0.049262 2.305208 0.571465
v -0.208132 1.855047 0.668957
v -0.106242 1.918223 0.675771
v -0.203029 1.946691 0.640997
v -0.282536 2.148345 0.490933
v -0.201847 2.085557 0.550408
v -0.192811 2.197619 0.520756
v 0.257101 2.203374 0.702019
v 0.150355 2.201968 0.647079
v 0.192878 2.127214 0.725840
v 0.120606 1.878367 0.801957
v 0.105346 1.977050 0.740055
v 0.034287 1.904353 0.767812
v -0.198721 2.032700 0.578097
v -0.282662 1.946918 0.590552
v -0.203029 1.946691 0.640997
v -0.051962 1.904584 0.706388
v -0.009072 1.819008 0.774504
v 0.034287 1.904353 0.767812
v -0.085590 2.248038 0.518263
v -0.185565 2.285919 0.464905
v -0.192811 2.197619 0.520756
v 0.145089 2.020757 0.733752
v 0.252055 2.055378 0.770711
v 0.192878 2.127214 0.725840
v 0.121632 2.233614 0.616018
v 0.144137 2.342156 0.578974
v 0.049262 2.305208 0.571465
v 0.379899 2.141829 0.766551
v -0.324023 2.263555 0.397202
v 0.113138 2.448966 0.494862
v -0.336691 1.814550 0.618293
v 0.093289 1.743539 0.842583
v -0.666370 0.505137 0.139831
v -0.593391 0.706268 0.068745
v -0.690741 0.380095 0.065907
v -0.571369 0.787997 0.206726
v -0.417988 0.924993 0.024688
v -0.593391 0.706268 0.068745
v -0.643936 0.606668 0.191646
v -0.593391 0.706268 0.068745
v -0.666370 0.505137 0.139831
v -0.417988 0.924993 0.024688
v -0.612046 0.792817 -0.088157
v -0.593391 0.706268 0.068745
v -0.670790 0.604957 -0.065258
v -0.686337 0.506565 -0.012832
v -0.593391 0.706268 0.068745
v -0.690741 0.380095 0.065907
v -0.593391 0.706268 0.068745
v -0.686337 0.506565 -0.012832
v -0.417988 0.924993 0.024688
v -0.145135 1.026943 0.039410
v -0.158099 1.029457 -0.038765
v -0.437936 0.904371 0.189730
v -0.482862 0.911106 -0.107711
v -0.612046 0.792817 -0.088157
v -0.417988 0.924993 0.024688
v -0.571369 0.787997 0.206726
v -0.593391 0.706268 0.068745
v -0.643936 0.606668 0.191646
v -0.670790 0.604957 -0.065258
v 0.129171 0.000000 -0.003174
v 0.038230 0.000000 0.026473
v -0.032729 0.000000 -0.037606
v 0.129171 0.000000 -0.003174
v -0.032729 0.000000 -0.037606
v -0.012749 0.000000 -0.131332
v -0.012749 0.000000 -0.131332
v 0.078191 0.000000 -0.160979
v 0.149151 0.000000 -0.096900
v 0.202752 3.391234 0.027072
v 0.119133 3.391234 0.005962
v 0.059042 3.391234 0.067823
v 0.202752 3.391234 0.027072
v 0.059042 3.391234 0.067823
v 0.082570 3.391234 0.150793
v 0.082570 3.391234 0.150793
v 0.166188 3.391234 0.171903
v 0.226279 3.391234 0.110043
v -0.778934 2.191718 0.005015
v -0.605132 2.237697 0.125029
v -0.802514 2.210014 -0.129174
v -0.640460 2.171254 0.255659
v -0.377661 2.185441 0.260172
v -0.605132 2.237697 0.125029
v -0.753181 2.179018 0.109629
v -0.605132 2.237697 0.125029
v -0.778934 2.191718 0.005015
v -0.377661 2.185441 0.260172
v -0.479711 2.347550 0.099964
v -0.605132 2.237697 0.125029
v -0.610758 2.324752 -0.030245
v -0.695549 2.281900 -0.076365
v -0.605132 2.237697 0.125029
v -0.802514 2.210014 -0.129174
v -0.605132 2.237697 0.125029
v -0.695549 2.281900 -0.076365
v -0.377661 2.185441 0.260172
v -0.172184 2.014262 0.366207
v -0.130289 2.062920 0.325807
v -0.501232 2.117032 0.337154
v -0.340523 2.298193 0.181422
v -0.479711 2.347550 0.099964
v -0.377661 2.185441 0.260172
v -0.640460 2.171254 0.255659
v -0.605132 2.237697 0.125029
v -0.753181 2.179018 0.109629
v -0.610758 2.324752 -0.030245
v 0.906700 0.800655 0.863822
v 0.729348 0.930665 0.815336
v 0.912706 0.674345 0.905424
v 0.785397 1.037059 0.738351
v 0.547956 1.004565 0.607583
v 0.729348 0.930665 0.815336
v 0.871498 0.931908 0.822064
v 0.729348 0.930665 0.815336
v 0.906700 0.800655 0.863822
v 0.547956 1.004565 0.607583
v 0.593555 0.885785 0.858997
v 0.729348 0.930665 0.815336
v 0.704171 0.798216 0.923210
v 0.807500 0.721939 0.925859
v 0.729348 0.930665 0.815336
v 0.912706 0.674345 0.905424
v 0.729348 0.930665 0.815336
v 0.807500 0.721939 0.925859
v 0.547956 1.004565 0.607583
v 0.433317 0.993354 0.375155
v 0.382380 0.953861 0.408052
v 0.665617 1.064887 0.583894
v 0.472113 0.913189 0.707265
v 0.593555 0.885785 0.858997
v 0.547956 1.004565 0.607583
v 0.785397 1.037059 0.738351
v 0.729348 0.930665 0.815336
v 0.871498 0.931908 0.822064
v 0.704171 0.798216 0.923210
v 0.611344 1.430158 0.908558
v 0.455715 1.556562 0.886337
v 0.613945 1.304383 0.933685
v 0.520364 1.672726 0.840302
v 0.289442 1.697253 0.760221
v 0.455715 1.556562 0.886337
v 0.602420 1.528828 0.887730
v 0.455715 1.556562 0.886337
v 0.611344 1.430158 0.908558
v 0.289442 1.697253 0.760221
v 0.307216 1.546974 0.937445
v 0.455715 1.556562 0.886337
v 0.417065 1.415213 0.964767
v 0.501169 1.364305 0.957857
v 0.455715 1.556562 0.886337
v 0.613945 1.304383 0.933685
v 0.455715 1.556562 0.886337
v 0.501169 1.364305 0.957857
v 0.289442 1.697253 0.760221
v 0.181186 1.804619 0.539239
v 0.124702 1.772115 0.566899
v 0.426255 1.756839 0.743894
v 0.211441 1.631238 0.845258
v 0.307216 1.546974 0.937445
v 0.289442 1.697253 0.760221
v 0.520364 1.672726 0.840302
v 0.455715 1.556562 0.886337
v 0.602420 1.528828 0.887730
v 0.417065 1.415213 0.964767
v -0.987334 1.171405 -0.799074
v -0.850068 1.346131 -0.655895
v -0.972555 1.125071 -0.964767
v -0.914770 1.317460 -0.479802
v -0.632006 1.464607 -0.434247
v -0.850068 1.346131 -0.655895
v -0.991248 1.212729 -0.669349
v -0.850068 1.346131 -0.655895
v -0.987334 1.171405 -0.799074
v -0.632006 1.464607 -0.434247
v -0.752910 1.526341 -0.707837
v -0.850068 1.346131 -0.655895
v -0.842646 1.385189 -0.869072
v -0.902604 1.278070 -0.917520
v -0.850068 1.346131 -0.655895
v -0.972555 1.125071 -0.964767
v -0.850068 1.346131 -0.655895
v -0.902604 1.278070 -0.917520
v -0.632006 1.464607 -0.434247
v -0.372531 1.396699 -0.222167
v -0.331574 1.454269 -0.282567
v -0.764972 1.355245 -0.339738
v -0.605232 1.569577 -0.569927
v -0.752910 1.526341 -0.707837
v -0.632006 1.464607 -0.434247
v -0.914770 1.317460 -0.479802
v -0.850068 1.346131 -0.655895
v -0.991248 1.212729 -0.669349
v -0.842646 1.385189 -0.869072
v -0.045265 1.517333 0.550067
v -0.089953 1.499425 0.545717
v -0.059701 1.433576 0.790746
v -0.086277 1.451949 0.537400
v -0.086277 1.451949 0.537400
v -0.039316 1.440514 0.536611
v -0.013969 1.480924 0.544440
v -0.140041 1.735177 0.558235
v -0.145785 1.634752 0.534108
v -0.066466 1.685368 0.562334
v -0.135616 1.235347 0.467995
v -0.067701 1.315657 0.479639
v -0.160731 1.312145 0.492912
v -0.320573 1.480030 0.508440
v -0.223184 1.444098 0.499024
v -0.249944 1.537362 0.531950
v 0.163683 1.643383 0.552154
v 0.060749 1.622669 0.539122
v 0.139229 1.556697 0.546178
v 0.163135 1.326037 0.492608
v 0.107522 1.412805 0.502502
v 0.078791 1.324497 0.502584
v -0.199430 1.397766 0.491167
v -0.241577 1.301130 0.477308
v -0.160731 1.312145 0.492912
v -0.011503 1.315100 0.481002
v 0.065065 1.245648 0.475280
v 0.078791 1.324497 0.502584
v -0.179258 1.614205 0.529594
v -0.284017 1.623063 0.535492
v -0.249944 1.537362 0.531950
v 0.126714 1.460883 0.510315
v 0.216150 1.511754 0.527363
v 0.139229 1.556697 0.546178
v 0.020301 1.645695 0.540269
v 0.001475 1.744338 0.563142
v -0.066466 1.685368 0.562334
v 0.294856 1.622328 0.536780
v -0.412121 1.580428 0.510866
v -0.076610 1.839191 0.565526
v -0.245833 1.177327 0.443757
v 0.184835 1.205764 0.460331
v -0.120646 0.574709 0.539685
v -0.108879 0.509406 0.596864
v -0.042268 0.528161 0.555187
v 0.019885 0.578515 0.454390
v 0.043977 0.620882 0.381746
v -0.129957 0.622300 0.451327
v -0.055217 0.646147 0.303569
v -0.204322 0.648639 0.373807
v -0.129957 0.622300 0.451327
v 0.021759 0.640705 0.338266
v -0.251920 0.634640 0.310304
v -0.176723 0.647207 0.285572
v -0.233735 0.469938 0.630260
v -0.188848 0.506797 0.615646
v -0.361526 0.579421 0.372140
v -0.315828 0.618355 0.362612
v -0.315024 0.401446 0.643295
v -0.280908 0.460315 0.639501
v -0.437562 0.508056 0.398302
v -0.399647 0.565323 0.400548
v 0.101458 0.607053 0.339606
v 0.083249 0.622927 0.303172
v 0.138181 0.589662 0.262533
v 0.156303 0.573864 0.298793
v 0.444594 1.790686 -0.466454
v 0.357558 1.744644 -0.588251
v 0.297255 1.694232 -0.501996
v 0.292625 1.624420 -0.332785
v 0.322592 1.556629 -0.240269
v 0.539583 1.700839 -0.364513
v 0.503061 1.518702 -0.200142
v 0.677153 1.673649 -0.321889
v 0.539583 1.700839 -0.364513
v 0.384272 1.527033 -0.201840
v 0.755392 1.536442 -0.341537
v 0.672308 1.501080 -0.267895
v 0.482150 1.783586 -0.701310
v 0.440026 1.771922 -0.636796
v 0.839123 1.597875 -0.479626
v 0.792685 1.590552 -0.417273
v 0.576842 1.789209 -0.827067
v 0.538358 1.790736 -0.751794
v 0.917004 1.610352 -0.616963
v 0.869483 1.617406 -0.545101
v 0.104543 1.235230 -0.119203
v 0.135105 1.219170 -0.100301
v 0.182897 1.315290 -0.079787
v 0.140312 1.337668 -0.106125
v 0.255219 1.492534 -0.171050
v 0.305793 1.465958 -0.139771
v 0.234904 1.391934 -0.096122
v 0.190354 1.415345 -0.123675
v 0.702515 1.064557 -0.234658
v 0.697833 1.031407 -0.306841
v 0.621890 1.043595 -0.276261
v 0.537977 1.060753 -0.178418
v 0.499086 1.074828 -0.102123
v 0.693305 1.071854 -0.133453
v 0.579597 1.051706 0.006053
v 0.749302 1.054042 -0.031592
v 0.693305 1.071854 -0.133453
v 0.511697 1.072403 -0.048760
v 0.776796 1.011380 0.043225
v 0.696229 1.025810 0.053263
v 0.826775 0.988856 -0.318439
v 0.782887 1.022528 -0.308051
v 0.896375 0.968162 -0.003877
v 0.853424 1.005561 0.001369
v 0.902164 0.921580 -0.323594
v 0.875275 0.976073 -0.318500
v 0.969854 0.904025 -0.024320
v 0.940663 0.959957 -0.026627
v 0.427529 1.057567 -0.073983
v 0.437584 1.054976 -0.029477
v 0.366251 1.021272 -0.005313
v 0.356244 1.023851 -0.049605
v 0.312045 0.951253 0.016555
v 0.302038 0.953832 -0.027737
v -0.342862 1.380319 0.114893
v -0.348154 1.385330 0.097980
v -0.349112 1.370157 0.087587
v -0.349112 1.370157 0.087587
v -0.344411 1.355767 0.098076
v -0.340548 1.362048 0.114953
v -0.210174 1.379617 0.082689
v -0.214256 1.400366 0.076169
v -0.338158 1.388365 0.112935
v -0.333295 1.362666 0.120961
v -0.337328 1.346414 0.099760
v -0.344990 1.361576 0.078870
v -0.219595 1.378748 0.048586
v -0.213385 1.366460 0.065511
v -0.345731 1.387285 0.087039
v -0.220242 1.399547 0.055235
v -0.344990 1.361576 0.078870
v -0.219595 1.378748 0.048586
v -0.359039 1.267141 0.183493
v -0.337750 1.373674 0.102532
v -0.363579 1.409430 0.230546
v -0.403635 1.490818 0.120294
v -0.425026 1.399480 0.004686
v -0.395356 1.265379 0.046374
v -0.097711 1.388926 0.004999
v -0.092391 1.389619 0.024068
v 0.026052 1.354508 -0.044021
v 0.020652 1.353845 -0.063910
v -0.097073 1.369963 -0.001104
v 0.021373 1.334048 -0.070325
v -0.091401 1.358740 0.014353
v -0.097073 1.369963 -0.001104
v 0.021373 1.334048 -0.070325
v 0.027305 1.322309 -0.054161
v -0.088524 1.370743 0.030040
v 0.030250 1.334849 -0.037757
v 0.016789 2.067909 0.566380
v -0.000989 2.065179 0.559978
v -0.006880 2.048060 0.566043
v -0.006880 2.048060 0.566043
v 0.007257 2.040211 0.576193
v 0.021886 2.052478 0.576402
v 0.075967 1.996056 0.459742
v 0.064129 2.010788 0.446736
v 0.016660 2.071343 0.557125
v 0.031159 2.053150 0.573350
v 0.014938 2.030761 0.577832
v -0.009492 2.034978 0.565007
v 0.043062 1.981321 0.452934
v 0.062858 1.977902 0.463326
v -0.008510 2.059993 0.552520
v 0.043858 2.001600 0.442883
v -0.009492 2.034978 0.565007
v 0.043062 1.981321 0.452934
v 0.083062 2.020652 0.678094
v 0.011537 2.054045 0.561913
v 0.089678 2.160250 0.610054
v -0.039287 2.183432 0.541226
v -0.126814 2.058942 0.566972
v -0.048578 1.962144 0.648517
v 0.084187 1.916563 0.342328
v 0.102578 1.924945 0.345966
v 0.130922 1.812756 0.256553
v 0.111823 1.803999 0.252616
v 0.083460 1.898033 0.351442
v 0.111063 1.784610 0.262073
v 0.101539 1.894909 0.360932
v 0.083460 1.898033 0.351442
v 0.111063 1.784610 0.262073
v 0.129972 1.781340 0.272000
v 0.113476 1.911502 0.357706
v 0.142416 1.798708 0.268677
v -0.437936 0.904371 0.189730
v -0.366489 0.803031 0.288057
v -0.274216 0.871165 0.260748
v -0.190792 0.986377 0.142446
v -0.145135 1.026943 0.039410
v -0.417988 0.924993 0.024688
v -0.231269 0.994128 -0.127521
v -0.482862 0.911106 -0.107711
v -0.417988 0.924993 0.024688
v -0.158099 1.029457 -0.038765
v -0.437558 0.810433 -0.224651
v -0.343261 0.880859 -0.221726
v -0.497967 0.688794 0.277619
v -0.450133 0.750699 0.268725
v -0.562498 0.696202 -0.182005
v -0.515340 0.759411 -0.184510
v -0.587030 0.556887 0.277159
v -0.549516 0.632996 0.267199
v -0.647322 0.562111 -0.161237
v -0.608408 0.640297 -0.160235
v 0.258425 1.046349 -0.036235
v 0.253005 1.046844 -0.075629
v 0.153670 1.094651 -0.069258
v 0.161222 1.093961 -0.014365
v -0.040952 1.076209 0.018474
v -0.049921 1.077028 -0.046717
v 0.059567 1.100799 -0.057525
v 0.067468 1.100077 -0.000098
v 0.040814 0.159703 -0.010404
v 0.038089 0.123009 0.039904
v 0.129171 0.000000 -0.003174
v 0.149151 0.000000 -0.096900
v 0.038089 0.123009 0.039904
v -0.013204 0.089477 0.051278
v 0.038230 0.000000 0.026473
v 0.129171 0.000000 -0.003174
v -0.013204 0.089477 0.051278
v -0.061772 0.092638 0.012345
v -0.032729 0.000000 -0.037606
v -0.061772 0.092638 0.012345
v -0.059049 0.129332 -0.037964
v -0.012749 0.000000 -0.131332
v -0.059049 0.129332 -0.037964
v -0.007755 0.162865 -0.049338
v 0.078191 0.000000 -0.160979
v -0.007755 0.162865 -0.049338
v 0.040814 0.159703 -0.010404
v 0.257701 1.995387 0.108608
v 0.272257 1.997409 0.107392
v 0.264715 1.914151 0.199481
v 0.241903 1.919197 0.191185
v 0.278600 2.009210 0.113553
v 0.273999 1.926791 0.218686
v 0.264715 1.914151 0.199481
v 0.270389 2.018986 0.120930
v 0.260468 1.944476 0.229592
v 0.273999 1.926791 0.218686
v 0.255835 2.016963 0.122147
v 0.237656 1.949521 0.221295
v 0.260468 1.944476 0.229592
v 0.249490 2.005163 0.115985
v 0.228373 1.936881 0.202092
v 0.237656 1.949521 0.221295
v 0.257701 1.995387 0.108608
v 0.241903 1.919197 0.191185
v 0.228373 1.936881 0.202092
v 0.189131 1.818006 0.248068
v 0.169415 1.835899 0.230483
v 0.191129 1.822712 0.279563
v 0.189131 1.818006 0.248068
v 0.173413 1.845310 0.293473
v 0.191129 1.822712 0.279563
v 0.153696 1.863204 0.275888
v 0.173413 1.845310 0.293473
v 0.151698 1.858497 0.244393
v 0.153696 1.863204 0.275888
v 0.169415 1.835899 0.230483
v 0.151698 1.858497 0.244393
v 0.097641 1.735397 0.241712
v 0.081969 1.757897 0.223607
v 0.090394 1.732002 0.273580
v 0.097641 1.735397 0.241712
v 0.067475 1.751106 0.287342
v 0.090394 1.732002 0.273580
v 0.051804 1.773606 0.269238
v 0.067475 1.751106 0.287342
v 0.059051 1.777001 0.237370
v 0.051804 1.773606 0.269238
v 0.081969 1.757897 0.223607
v 0.059051 1.777001 0.237370
v 0.030652 1.643409 0.189969
v 0.012424 1.668755 0.168821
v 0.014413 1.629654 0.221099
v 0.030652 1.643409 0.189969
v -0.020053 1.641245 0.231081
v 0.014413 1.629654 0.221099
v -0.038282 1.666591 0.209932
v -0.020053 1.641245 0.231081
v -0.022043 1.680346 0.178802
v -0.038282 1.666591 0.209932
v 0.012424 1.668755 0.168821
v -0.022043 1.680346 0.178802
v 0.005682 1.544535 0.107964
v -0.016069 1.570175 0.080978
v -0.015613 1.520482 0.136714
v 0.005682 1.544535 0.107964
v -0.058660 1.522064 0.138478
v -0.015613 1.520482 0.136714
v -0.080412 1.547704 0.111492
v -0.058660 1.522064 0.138478
v -0.059116 1.571757 0.082741
v -0.080412 1.547704 0.111492
v -0.016069 1.570175 0.080978
v -0.059116 1.571757 0.082741
v 0.027103 1.447964 0.023978
v 0.003658 1.469271 -0.013814
v 0.003341 1.415666 0.052683
v 0.027103 1.447964 0.023978
v -0.043864 1.404673 0.043597
v 0.003341 1.415666 0.052683
v -0.067309 1.425979 0.005804
v -0.043864 1.404673 0.043597
v -0.043548 1.458278 -0.022900
v -0.067309 1.425979 0.005804
v 0.003658 1.469271 -0.013814
v -0.043548 1.458278 -0.022900
v 0.083861 1.349867 -0.041597
v 0.066918 1.359968 -0.086794
v 0.059871 1.317750 -0.012880
v 0.083861 1.349867 -0.041597
v 0.018939 1.295731 -0.029358
v 0.059871 1.317750 -0.012880
v 0.001996 1.305832 -0.074556
v 0.018939 1.295731 -0.029358
v 0.025986 1.337950 -0.103273
v 0.001996 1.305832 -0.074556
v 0.066918 1.359968 -0.086794
v 0.025986 1.337950 -0.103273
v 0.168765 1.248456 -0.070167
v 0.162553 1.245656 -0.119008
v 0.140442 1.221494 -0.040124
v 0.168765 1.248456 -0.070167
v 0.105907 1.191731 -0.058922
v 0.140442 1.221494 -0.040124
v 0.099695 1.188931 -0.107762
v 0.105907 1.191731 -0.058922
v 0.128019 1.215894 -0.137805
v 0.099695 1.188931 -0.107762
v 0.162553 1.245656 -0.119008
v 0.128019 1.215894 -0.137805
v 0.260428 1.142359 -0.051013
v 0.265009 1.127037 -0.097661
v 0.224000 1.124834 -0.022769
v 0.260428 1.142359 -0.051013
v 0.192153 1.091989 -0.041174
v 0.224000 1.124834 -0.022769
v 0.196734 1.076668 -0.087823
v 0.192153 1.091989 -0.041174
v 0.233162 1.094192 -0.116066
v 0.196734 1.076668 -0.087823
v 0.265009 1.127037 -0.097661
v 0.233162 1.094192 -0.116066
v 0.333176 1.031118 0.014987
v 0.344388 1.005759 -0.025793
v 0.288884 1.025718 0.035983
v 0.333176 1.031118 0.014987
v 0.255804 0.994959 0.016200
v 0.288884 1.025718 0.035983
v 0.267015 0.969599 -0.024579
v 0.255804 0.994959 0.016200
v 0.311307 0.974999 -0.045576
v 0.267015 0.969599 -0.024579
v 0.344388 1.005759 -0.025793
v 0.311307 0.974999 -0.045576
v 0.363627 0.915254 0.112747
v 0.376628 0.883846 0.077021
v 0.315947 0.922645 0.122934
v 0.363627 0.915254 0.112747
v 0.281267 0.898627 0.097394
v 0.315947 0.922645 0.122934
v 0.294268 0.867219 0.061669
v 0.281267 0.898627 0.097394
v 0.341948 0.859829 0.051482
v 0.294268 0.867219 0.061669
v 0.376628 0.883846 0.077021
v 0.341948 0.859829 0.051482
v 0.339579 0.795620 0.215647
v 0.352539 0.762914 0.181090
v 0.294143 0.814789 0.215651
v 0.339579 0.795620 0.215647
v 0.261668 0.801252 0.181099
v 0.294143 0.814789 0.215651
v 0.274628 0.768546 0.146542
v 0.261668 0.801252 0.181099
v 0.320063 0.749377 0.146538
v 0.274628 0.768546 0.146542
v 0.352539 0.762914 0.181090
v 0.320063 0.749377 0.146538
v 0.265519 0.673770 0.293661
v 0.280948 0.644881 0.256794
v 0.225361 0.701799 0.287873
v 0.265519 0.673770 0.293661
v 0.200633 0.700940 0.245216
v 0.225361 0.701799 0.287873
v 0.216062 0.672052 0.208348
v 0.200633 0.700940 0.245216
v 0.256220 0.644023 0.214138
v 0.216062 0.672052 0.208348
v 0.280948 0.644881 0.256794
v 0.256220 0.644023 0.214138
v 0.162055 0.551795 0.323488
v 0.184617 0.531277 0.284736
v 0.125631 0.584287 0.316455
v 0.162055 0.551795 0.323488
v 0.111771 0.596260 0.270671
v 0.125631 0.584287 0.316455
v 0.134332 0.575742 0.231917
v 0.111771 0.596260 0.270671
v 0.170756 0.543251 0.238950
v 0.134332 0.575742 0.231917
v 0.184617 0.531277 0.284736
v 0.170756 0.543251 0.238950
v 0.059479 0.431927 0.297327
v 0.091704 0.422782 0.261136
v 0.022544 0.463768 0.289990
v 0.059479 0.431927 0.297327
v 0.017836 0.486464 0.246465
v 0.022544 0.463768 0.289990
v 0.050060 0.477319 0.210275
v 0.017836 0.486464 0.246465
v 0.086994 0.445478 0.217610
v 0.050060 0.477319 0.210275
v 0.091704 0.422782 0.261136
v 0.086994 0.445478 0.217610
v -0.013590 0.314915 0.224778
v 0.028424 0.321347 0.200122
v -0.053826 0.341309 0.213994
v -0.013590 0.314915 0.224778
v -0.053775 0.371533 0.175030
v -0.053826 0.341309 0.213994
v -0.013489 0.375364 0.146848
v -0.053775 0.371533 0.175030
v 0.026745 0.348971 0.157631
v -0.013489 0.375364 0.146848
v 0.028424 0.321347 0.200122
v 0.026745 0.348971 0.157631
v -0.040696 0.201749 0.129670
v 0.004419 0.218444 0.111127
v -0.084861 0.219630 0.109983
v -0.040696 0.201749 0.129670
v -0.083912 0.254205 0.071752
v -0.084861 0.219630 0.109983
v -0.038798 0.270899 0.053209
v -0.083912 0.254205 0.071752
v 0.005368 0.253020 0.072897
v -0.038798 0.270899 0.053209
v 0.004419 0.218444 0.111127
v 0.005368 0.253020 0.072897
v 0.202752 3.391234 0.027072
v 0.226279 3.391234 0.110043
v 0.221380 0.000000 0.109058
v 0.202752 0.000000 0.027072
v 0.119133 3.391234 0.005962
v 0.202752 3.391234 0.027072
v 0.202752 0.000000 0.027072
v 0.119134 0.000000 0.005962
v 0.059042 3.391234 0.067823
v 0.059042 0.000000 0.067823
v 0.082570 3.391234 0.150793
v 0.082570 0.000000 0.150793
v 0.166188 3.391234 0.171903
v 0.166188 0.000000 0.171903
v -0.292456 1.986243 0.379322
v -0.501232 2.117032 0.337154
v -0.565209 1.988147 0.315567
v -0.464757 1.954810 0.354303
v -0.292456 1.986243 0.379322
v -0.172184 2.014262 0.366207
v -0.377661 2.185441 0.260172
v -0.501232 2.117032 0.337154
v -0.145695 2.150924 0.239212
v -0.340523 2.298193 0.181422
v -0.377661 2.185441 0.260172
v -0.130289 2.062920 0.325807
v -0.286348 2.294640 0.044120
v -0.340523 2.298193 0.181422
v -0.145695 2.150924 0.239212
v -0.202394 2.245565 0.100859
v -0.501232 2.117032 0.337154
v -0.640460 2.171254 0.255659
v -0.685407 2.055128 0.220994
v -0.624866 2.042845 0.263865
v -0.435553 2.330698 -0.021788
v -0.479711 2.347550 0.099964
v -0.340523 2.298193 0.181422
v -0.378779 2.316116 0.025476
v -0.640460 2.171254 0.255659
v -0.753181 2.179018 0.109629
v -0.794949 2.081650 0.119532
v -0.733476 2.081369 0.172249
v -0.556717 2.343063 -0.113389
v -0.610758 2.324752 -0.030245
v -0.479711 2.347550 0.099964
v -0.500289 2.336953 -0.053193
v 0.054264 1.731681 0.258357
v 0.083664 1.763939 0.229652
v 0.052735 1.857515 0.293637
v 0.017461 1.818813 0.328076
v -0.083132 1.955491 0.378914
v -0.047689 1.994378 0.344310
v 0.005814 1.926843 0.323488
v -0.029459 1.888141 0.357928
v 0.665617 1.064887 0.583894
v 0.762809 1.076761 0.546235
v 0.691156 1.072345 0.464044
v 0.540473 1.028040 0.395309
v 0.433317 0.993354 0.375155
v 0.547956 1.004565 0.607583
v 0.364008 0.890836 0.506396
v 0.472113 0.913189 0.707265
v 0.547956 1.004565 0.607583
v 0.382380 0.953861 0.408052
v 0.429752 0.813164 0.756337
v 0.376964 0.825421 0.662083
v 0.854890 1.032144 0.693922
v 0.804343 1.064604 0.650358
v 0.556784 0.792284 0.880375
v 0.509790 0.832418 0.837171
v 0.934042 0.957099 0.770709
v 0.882824 1.016071 0.751665
v 0.649659 0.731253 0.950455
v 0.604579 0.796965 0.926418
v 0.384882 0.957209 0.290641
v 0.342574 0.923646 0.317361
v 0.309020 0.871641 0.227896
v 0.351125 0.905044 0.201303
v 0.308092 0.779615 0.150491
v 0.350197 0.813018 0.123899
v 0.295666 1.806666 0.557162
v 0.426255 1.756839 0.743894
v 0.524545 1.726957 0.655107
v 0.452934 1.769223 0.590703
v 0.295666 1.806666 0.557162
v 0.181186 1.804619 0.539239
v 0.289442 1.697253 0.760221
v 0.426255 1.756839 0.743894
v 0.099937 1.693894 0.649058
v 0.211441 1.631238 0.845258
v 0.289442 1.697253 0.760221
v 0.124702 1.772115 0.566899
v 0.154439 1.507576 0.824208
v 0.211441 1.631238 0.845258
v 0.099937 1.693894 0.649058
v 0.104053 1.564721 0.751856
v 0.426255 1.756839 0.743894
v 0.520364 1.672726 0.840302
v 0.596704 1.632618 0.755961
v 0.552465 1.676540 0.723747
v 0.264799 1.436491 0.908298
v 0.307216 1.546974 0.937445
v 0.211441 1.631238 0.845258
v 0.224978 1.484125 0.875386
v 0.520364 1.672726 0.840302
v 0.602420 1.528828 0.887730
v 0.673231 1.531108 0.818146
v 0.624830 1.584716 0.795906
v 0.357112 1.342721 0.962251
v 0.417065 1.415213 0.964767
v 0.307216 1.546974 0.937445
v 0.315723 1.402674 0.936686
v 0.075728 1.710462 0.216218
v 0.036720 1.687250 0.233999
v 0.036079 1.748019 0.325274
v 0.082879 1.775868 0.303940
v 0.126081 1.820849 0.457050
v 0.079055 1.792867 0.478486
v 0.054801 1.774922 0.401464
v 0.101600 1.802771 0.380130
v -0.764972 1.355245 -0.339738
v -0.773619 1.171038 -0.319375
v -0.660680 1.196454 -0.243825
v -0.489825 1.322716 -0.200066
v -0.372531 1.396699 -0.222167
v -0.632006 1.464607 -0.434247
v -0.344394 1.518471 -0.407534
v -0.605232 1.569577 -0.569927
v -0.632006 1.464607 -0.434247
v -0.331574 1.454269 -0.282567
v -0.492619 1.533576 -0.716797
v -0.398044 1.541056 -0.616542
v -0.902734 1.151065 -0.476786
v -0.845163 1.183334 -0.412245
v -0.651532 1.477152 -0.832793
v -0.598814 1.506904 -0.762846
v -1.000000 1.087561 -0.622820
v -0.950137 1.137906 -0.552028
v -0.759384 1.396371 -0.963330
v -0.715424 1.440909 -0.882279
v 0.064525 1.246287 -0.085793
v 0.086148 1.274060 -0.116372
v -0.007993 1.362931 -0.116207
v -0.038121 1.324232 -0.073597
v -0.254429 1.395973 -0.152102
v -0.218647 1.441932 -0.202704
v -0.104858 1.410654 -0.143644
v -0.136378 1.370169 -0.099068
v -0.047259 1.508256 0.449059
v -0.062814 1.502023 0.447543
v -0.061534 1.485499 0.444649
v -0.061534 1.485499 0.444649
v -0.045189 1.481519 0.444375
v -0.036367 1.495584 0.447099
v -0.031343 1.520037 0.325901
v -0.048423 1.530791 0.327069
v -0.051750 1.514087 0.444417
v -0.030683 1.500700 0.443115
v -0.036866 1.477165 0.438988
v -0.061404 1.475708 0.438080
v -0.056228 1.499810 0.321774
v -0.036345 1.500989 0.322508
v -0.070526 1.498333 0.441637
v -0.063595 1.518124 0.324707
v -0.061404 1.475708 0.438080
v -0.056228 1.499810 0.321774
v 0.057209 1.458234 0.486752
v -0.050365 1.498204 0.440370
v 0.007824 1.584309 0.507459
v -0.122339 1.577686 0.502348
v -0.154368 1.447519 0.479327
v -0.043373 1.378497 0.468851
v -0.056996 1.511246 0.203710
v -0.043182 1.522718 0.205974
v -0.035945 1.488062 0.082066
v -0.050344 1.476173 0.079580
v -0.050292 1.494538 0.200982
v -0.043361 1.458719 0.076670
v -0.032133 1.495614 0.201652
v -0.050292 1.494538 0.200982
v -0.043361 1.458719 0.076670
v -0.024368 1.459842 0.077370
v -0.027576 1.512989 0.204797
v -0.019615 1.477990 0.080711
f 1 2 3
f 4 5 6
f 7 8 9
f 10 11 12
f 13 14 15
f 16 17 18
f 19 20 21
f 22 5 4
f 23 24 25
f 26 27 28
f 11 29 12
f 30 31 32
f 33 34 35
f 36 37 38
f 39 40 41
f 42 43 44
f 45 46 47
f 48 49 50
f 51 34 33
f 52 53 54
f 55 56 57
f 40 58 41
f 59 60 61
f 62 63 64
f 65 66 67
f 68 69 70
f 71 72 73
f 74 75 76
f 77 78 79
f 80 63 62
f 81 82 83
f 84 85 86
f 69 87 70
f 88 89 90
f 89 91 90
f 92 93 90
f 93 94 90
f 90 94 88
f 95 96 97
f 98 99 100
f 101 102 103
f 104 105 106
f 107 108 109
f 110 111 112
f 113 114 115
f 116 117 118
f 119 120 121
f 122 123 124
f 125 104 106
f 120 125 106
f 126 101 103
f 117 126 103
f 127 95 97
f 123 127 97
f 128 98 100
f 111 128 100
f 129 107 109
f 114 129 109
f 130 131 132
f 131 133 132
f 134 135 132
f 135 136 132
f 132 136 130
f 137 138 139
f 140 141 142
f 143 144 145
f 146 147 148
f 149 150 151
f 152 153 154
f 155 156 157
f 158 159 160
f 161 162 163
f 164 165 166
f 167 146 148
f 162 167 148
f 168 143 145
f 159 168 145
f 169 137 139
f 165 169 139
f 170 140 142
f 153 170 142
f 171 149 151
f 156 171 151
f 172 173 174
f 175 176 177
f 178 179 180
f 181 182 183
f 184 185 186
f 187 188 189
f 190 191 192
f 193 176 175
f 194 195 196
f 197 198 199
f 182 200 183
f 201 202 203
f 204 205 206
f 201 207 208
f 201 208 209
f 210 211 212
f 213 214 215
f 210 216 217
f 210 217 218
f 219 220 221
f 222 223 224
f 225 226 227
f 228 229 230
f 231 232 233
f 234 235 236
f 237 238 239
f 240 223 222
f 241 242 243
f 244 245 246
f 229 247 230
f 248 249 250
f 251 252 253
f 254 255 256
f 257 258 259
f 260 261 262
f 263 264 265
f 266 267 268
f 269 252 251
f 270 271 272
f 273 274 275
f 258 276 259
f 277 278 279
f 280 281 282
f 283 284 285
f 286 287 288
f 289 290 291
f 292 293 294
f 295 296 297
f 298 281 280
f 299 300 301
f 302 303 304
f 287 305 288
f 306 307 308
f 309 310 311
f 312 313 314
f 315 316 317
f 318 319 320
f 321 322 323
f 324 325 326
f 327 310 309
f 328 329 330
f 331 332 333
f 316 334 317
f 335 336 337
f 336 338 337
f 339 340 337
f 340 341 337
f 337 341 335
f 342 343 344
f 345 346 347
f 348 349 350
f 351 352 353
f 354 355 356
f 357 358 359
f 360 361 362
f 363 364 365
f 366 367 368
f 369 370 371
f 372 351 353
f 367 372 353
f 373 348 350
f 364 373 350
f 374 342 344
f 370 374 344
f 375 345 347
f 358 375 347
f 376 354 356
f 361 376 356
f 377 378 379
f 377 379 380
f 380 381 382
f 380 382 377
f 383 384 385
f 383 385 386
f 387 384 383
f 387 383 388
f 4 389 390
f 4 390 22
f 391 24 23
f 391 23 392
f 28 393 394
f 28 394 26
f 395 29 11
f 395 11 396
f 397 398 21
f 397 21 20
f 399 398 397
f 399 397 400
f 401 402 403
f 401 403 404
f 404 405 406
f 404 406 401
f 407 408 409
f 407 409 410
f 411 408 407
f 411 407 412
f 33 413 414
f 33 414 51
f 415 53 52
f 415 52 416
f 57 417 418
f 57 418 55
f 419 58 40
f 419 40 420
f 421 422 423
f 421 423 424
f 425 426 50
f 425 50 49
f 427 426 425
f 427 425 428
f 423 427 428
f 423 428 424
f 429 430 431
f 429 431 432
f 432 433 434
f 432 434 429
f 435 436 437
f 435 437 438
f 439 436 435
f 439 435 440
f 62 441 442
f 62 442 80
f 443 82 81
f 443 81 444
f 86 445 446
f 86 446 84
f 447 87 69
f 447 69 448
f 449 450 79
f 449 79 78
f 451 450 449
f 451 449 452
f 453 451 452
f 453 452 454
f 455 456 89
f 455 89 88
f 456 457 91
f 456 91 89
f 458 459 93
f 458 93 92
f 459 460 94
f 459 94 93
f 94 460 455
f 94 455 88
f 461 462 463
f 461 463 464
f 465 466 467
f 465 467 468
f 464 465 468
f 464 468 461
f 469 463 462
f 469 462 470
f 471 469 470
f 471 470 472
f 473 119 121
f 473 121 474
f 105 475 474
f 105 474 121
f 475 122 124
f 475 124 474
f 96 476 474
f 96 474 124
f 476 116 118
f 476 118 474
f 102 477 474
f 102 474 118
f 478 113 115
f 478 115 474
f 108 473 474
f 108 474 115
f 477 110 112
f 477 112 474
f 99 478 474
f 99 474 112
f 479 480 481
f 479 481 482
f 483 479 482
f 483 482 484
f 485 486 487
f 485 487 488
f 489 485 488
f 489 488 490
f 490 481 480
f 490 480 489
f 470 462 480
f 470 480 479
f 472 470 479
f 472 479 483
f 468 467 486
f 468 486 485
f 461 468 485
f 461 485 489
f 489 480 462
f 489 462 461
f 491 492 131
f 491 131 130
f 492 493 133
f 492 133 131
f 494 495 135
f 494 135 134
f 495 496 136
f 495 136 135
f 136 496 491
f 136 491 130
f 497 498 499
f 497 499 500
f 501 502 503
f 501 503 504
f 500 501 504
f 500 504 497
f 505 499 498
f 505 498 506
f 507 505 506
f 507 506 508
f 509 161 163
f 509 163 510
f 147 511 510
f 147 510 163
f 511 164 166
f 511 166 510
f 138 512 510
f 138 510 166
f 512 158 160
f 512 160 510
f 144 513 510
f 144 510 160
f 514 155 157
f 514 157 510
f 150 509 510
f 150 510 157
f 513 152 154
f 513 154 510
f 141 514 510
f 141 510 154
f 515 516 517
f 515 517 518
f 519 515 518
f 519 518 520
f 521 522 523
f 521 523 524
f 525 521 524
f 525 524 526
f 526 517 516
f 526 516 525
f 506 498 516
f 506 516 515
f 508 506 515
f 508 515 519
f 504 503 522
f 504 522 521
f 497 504 521
f 497 521 525
f 525 516 498
f 525 498 497
f 527 528 529
f 527 529 530
f 530 531 532
f 530 532 527
f 533 534 535
f 533 535 536
f 537 534 533
f 537 533 538
f 175 539 540
f 175 540 193
f 541 195 194
f 541 194 542
f 199 543 544
f 199 544 197
f 545 200 182
f 545 182 546
f 547 548 549
f 547 549 550
f 551 552 192
f 551 192 191
f 553 552 551
f 553 551 554
f 549 553 554
f 549 554 550
f 555 556 557
f 555 557 558
f 559 560 561
f 559 561 562
f 563 564 565
f 563 565 561
f 566 567 568
f 566 568 565
f 569 570 571
f 569 571 568
f 572 573 558
f 572 558 571
f 574 575 576
f 574 576 577
f 575 578 579
f 575 579 580
f 578 581 582
f 578 582 583
f 581 584 585
f 581 585 586
f 584 587 588
f 584 588 589
f 587 590 591
f 587 591 592
f 577 576 593
f 577 593 594
f 580 579 595
f 580 595 596
f 583 582 597
f 583 597 598
f 586 585 599
f 586 599 600
f 589 588 601
f 589 601 602
f 592 591 603
f 592 603 604
f 594 593 605
f 594 605 606
f 596 595 607
f 596 607 608
f 598 597 609
f 598 609 610
f 600 599 611
f 600 611 612
f 602 601 613
f 602 613 614
f 604 603 615
f 604 615 616
f 606 605 617
f 606 617 618
f 608 607 619
f 608 619 620
f 610 609 621
f 610 621 622
f 612 611 623
f 612 623 624
f 614 613 625
f 614 625 626
f 616 615 627
f 616 627 628
f 618 617 629
f 618 629 630
f 620 619 631
f 620 631 632
f 622 621 633
f 622 633 634
f 624 623 635
f 624 635 636
f 626 625 637
f 626 637 638
f 628 627 639
f 628 639 640
f 630 629 641
f 630 641 642
f 632 631 643
f 632 643 644
f 634 633 645
f 634 645 646
f 636 635 647
f 636 647 648
f 638 637 649
f 638 649 650
f 640 639 651
f 640 651 652
f 642 641 653
f 642 653 654
f 644 643 655
f 644 655 656
f 646 645 657
f 646 657 658
f 648 647 659
f 648 659 660
f 650 649 661
f 650 661 662
f 652 651 663
f 652 663 664
f 654 653 665
f 654 665 666
f 656 655 667
f 656 667 668
f 658 657 669
f 658 669 670
f 660 659 671
f 660 671 672
f 662 661 673
f 662 673 674
f 664 663 675
f 664 675 676
f 666 665 677
f 666 677 678
f 668 667 679
f 668 679 680
f 670 669 681
f 670 681 682
f 672 671 683
f 672 683 684
f 674 673 685
f 674 685 686
f 676 675 687
f 676 687 688
f 678 677 689
f 678 689 690
f 680 679 691
f 680 691 692
f 682 681 693
f 682 693 694
f 684 683 695
f 684 695 696
f 686 685 697
f 686 697 698
f 688 687 699
f 688 699 700
f 690 689 701
f 690 701 702
f 692 691 703
f 692 703 704
f 694 693 705
f 694 705 706
f 696 695 707
f 696 707 708
f 698 697 709
f 698 709 710
f 700 699 711
f 700 711 712
f 702 701 713
f 702 713 714
f 704 703 715
f 704 715 716
f 706 705 717
f 706 717 718
f 708 707 719
f 708 719 720
f 710 709 721
f 710 721 722
f 712 711 723
f 712 723 724
f 714 713 725
f 714 725 726
f 716 715 727
f 716 727 728
f 718 717 729
f 718 729 730
f 720 719 731
f 720 731 732
f 722 721 733
f 722 733 734
f 724 723 735
f 724 735 736
f 726 725 737
f 726 737 738
f 728 727 739
f 728 739 740
f 730 729 741
f 730 741 742
f 732 731 743
f 732 743 744
f 734 733 745
f 734 745 746
f 736 735 747
f 736 747 748
f 738 737 749
f 738 749 750
f 740 739 751
f 740 751 752
f 742 741 753
f 742 753 754
f 744 743 755
f 744 755 756
f 746 745 757
f 746 757 758
f 748 747 759
f 748 759 760
f 750 749 761
f 750 761 762
f 752 751 763
f 752 763 764
f 754 753 765
f 754 765 766
f 756 755 767
f 756 767 768
f 758 757 769
f 758 769 770
f 760 759 771
f 760 771 772
f 762 761 773
f 762 773 774
f 764 763 775
f 764 775 776
f 766 765 777
f 766 777 778
f 768 767 779
f 768 779 780
f 770 769 781
f 770 781 782
f 772 771 783
f 772 783 784
f 774 773 560
f 774 560 559
f 776 775 564
f 776 564 563
f 778 777 567
f 778 567 566
f 780 779 570
f 780 570 569
f 782 781 573
f 782 573 572
f 784 783 556
f 784 556 555
f 785 786 787
f 785 787 788
f 789 790 791
f 789 791 792
f 793 789 792
f 793 792 794
f 795 793 794
f 795 794 796
f 797 795 796
f 797 796 798
f 786 797 798
f 786 798 787
f 799 800 801
f 799 801 802
f 803 804 805
f 803 805 806
f 807 808 809
f 807 809 810
f 811 812 813
f 811 813 814
f 815 816 817
f 815 817 818
f 819 820 821
f 819 821 822
f 823 824 825
f 823 825 826
f 827 828 829
f 827 829 830
f 831 832 833
f 831 833 834
f 835 836 239
f 835 239 238
f 837 836 835
f 837 835 838
f 833 837 838
f 833 838 834
f 839 840 841
f 839 841 842
f 842 843 844
f 842 844 839
f 845 846 847
f 845 847 848
f 849 846 845
f 849 845 850
f 251 851 852
f 251 852 269
f 853 271 270
f 853 270 854
f 275 855 856
f 275 856 273
f 857 276 258
f 857 258 858
f 859 860 268
f 859 268 267
f 861 860 859
f 861 859 862
f 863 861 862
f 863 862 864
f 865 866 867
f 865 867 868
f 869 870 871
f 869 871 872
f 873 874 875
f 873 875 876
f 877 878 879
f 877 879 880
f 881 882 883
f 881 883 884
f 885 886 887
f 885 887 888
f 889 890 891
f 889 891 892
f 893 894 895
f 893 895 896
f 897 898 899
f 897 899 900
f 901 902 297
f 901 297 296
f 903 902 901
f 903 901 904
f 899 903 904
f 899 904 900
f 905 906 907
f 905 907 908
f 908 909 910
f 908 910 905
f 911 912 913
f 911 913 914
f 915 912 911
f 915 911 916
f 309 917 918
f 309 918 327
f 919 329 328
f 919 328 920
f 333 921 922
f 333 922 331
f 923 334 316
f 923 316 924
f 925 926 927
f 925 927 928
f 929 930 326
f 929 326 325
f 931 930 929
f 931 929 932
f 927 931 932
f 927 932 928
f 933 934 336
f 933 336 335
f 934 935 338
f 934 338 336
f 936 937 340
f 936 340 339
f 937 938 341
f 937 341 340
f 341 938 933
f 341 933 335
f 939 940 941
f 939 941 942
f 943 944 945
f 943 945 946
f 942 943 946
f 942 946 939
f 947 941 940
f 947 940 948
f 949 947 948
f 949 948 950
f 951 366 368
f 951 368 952
f 352 953 952
f 352 952 368
f 953 369 371
f 953 371 952
f 343 954 952
f 343 952 371
f 954 363 365
f 954 365 952
f 349 955 952
f 349 952 365
f 956 360 362
f 956 362 952
f 355 951 952
f 355 952 362
f 955 357 359
f 955 359 952
f 346 956 952
f 346 952 359
f 957 958 959
f 957 959 960
f 961 957 960
f 961 960 962
f 963 964 965
f 963 965 966
f 967 963 966
f 967 966 968
f 968 959 958
f 968 958 967
f 948 940 958
f 948 958 957
f 950 948 957
f 950 957 961
f 946 945 964
f 946 964 963
f 939 946 963
f 939 963 967
f 967 958 940
f 967 940 939
