# converted by scripts/glb-to-obj.mjs
o .art-assets/wheat/quaternius-wheat
v -0.999998 0.000000 0.565999
v -1.000000 0.000000 0.565999
v -1.000000 0.000000 0.565997
v -1.000000 0.000000 0.565992
v -1.000000 0.000000 0.565999
v -0.999998 0.000000 0.565999
v -1.000000 0.000000 0.565999
v -1.000000 0.000000 0.565999
v -1.000000 0.000000 0.565999
v -1.000000 0.000000 0.565999
v -1.000000 0.000000 0.565999
v -0.999992 0.000001 0.565999
v -1.000000 0.000000 0.565999
v -1.000000 0.000000 0.565999
v -1.000000 0.000000 0.565999
v -1.000000 0.000001 0.565999
v -1.000000 0.000000 0.565999
v -1.000000 0.000000 0.565999
v -1.000000 0.000000 0.565999
v -1.000000 0.000000 0.565999
v -1.000000 0.000000 0.565999
v -1.000000 0.000001 0.565999
v -1.000000 0.000001 0.565999
v -1.000000 0.000030 0.565999
v -0.998654 0.000000 0.565999
v -1.000000 0.000000 0.564656
v -1.000000 0.000000 0.565999
v -1.000000 0.000000 0.564656
v -1.000000 0.000000 0.564198
v -1.000000 0.000000 0.565999
v -1.000000 0.000000 0.565999
v -1.000000 0.000000 0.565999
v -0.998199 0.000000 0.565999
v -1.000000 0.021492 0.565999
v -1.000000 0.000000 0.565999
v -1.000000 0.021492 0.565999
v -1.000000 0.001801 0.565999
v -1.000000 0.000000 -0.564927
v -1.000000 0.000000 0.536157
v -1.000000 0.001801 0.565999
v -0.998199 0.000000 0.565999
v -1.000000 0.000000 0.565999
v -1.000000 0.000000 0.565999
v -0.999992 0.000000 0.565999
v -1.000000 0.000000 0.565999
v -1.000000 0.000000 0.565999
v -1.000000 0.000000 0.565999
v -1.000000 0.000000 0.564198
v -1.000000 0.000000 0.565992
v -1.000000 0.000000 0.565999
v -1.000000 0.000000 0.565999
v -0.999920 0.000000 0.565999
v -1.000000 0.000000 0.565999
v -1.000000 0.000000 0.565999
v -1.000000 0.000000 0.565999
v -1.000000 0.000000 0.565999
v -1.000000 0.000000 0.565999
v -1.000000 0.000000 0.565999
v -1.000000 0.000000 0.565999
v -1.000000 0.000000 0.565999
v -1.000000 0.000000 0.565999
v -1.000000 0.000000 0.565999
v -1.000000 0.000000 0.565999
v -1.000000 0.000000 0.565998
v -0.999995 0.000000 0.565997
v -1.000000 0.000000 0.565999
v -0.999993 0.000001 0.565999
v -1.000000 0.000000 0.565999
v -1.000000 0.000000 0.565999
v -1.000000 0.000117 0.565999
v -1.000000 0.000000 0.565999
v -1.000000 0.000000 0.565999
v -1.000000 0.000000 0.565999
v -1.000000 0.000001 0.565999
v -0.999993 0.000000 0.565999
v -1.000000 0.000002 0.565999
v -1.000000 0.000000 0.565999
v -1.000000 0.000000 0.565999
v -1.000000 0.000000 0.565999
v -1.000000 0.000008 0.565999
v -1.000000 0.000000 0.565999
v -0.999995 0.000002 0.565999
v -1.000000 0.000000 0.565999
v -1.000000 0.000000 0.565999
v -1.000000 0.000000 0.565997
v -0.999998 0.000002 0.565999
v -1.000000 0.000000 0.565999
v -0.999998 0.000000 0.565999
v -0.999883 0.000000 0.565999
v -1.000000 0.000000 0.565999
v -1.000000 0.000000 0.565999
v -1.000000 0.000001 0.565971
v -0.999542 0.000002 0.565999
v -1.000000 0.000000 0.565999
v -1.000000 0.000000 0.565999
v -1.000000 0.000000 0.565997
v -1.000000 0.000000 0.565999
v -1.000000 0.000000 0.565999
v -1.000000 0.000002 0.565999
v -1.000000 0.000000 0.565999
v -1.000000 0.000008 0.565999
v -1.000000 0.000000 0.565999
v -1.000000 0.000005 0.565999
v -1.000000 0.000002 0.565999
v -1.000000 0.000000 0.565999
v -1.000000 0.000000 0.565999
v -1.000000 0.000458 0.565999
v -1.000000 0.007205 0.565999
v -1.000000 0.000000 0.565999
v -1.000000 0.000002 0.565999
v -1.000000 0.000001 0.565999
v -0.999970 0.000000 0.565999
v -1.000000 0.000000 0.565999
v -1.000000 0.000001 0.565971
v -1.000000 0.000008 0.565999
v -1.000000 0.000000 0.565999
v -1.000000 0.000000 0.565999
v -1.000000 0.000000 0.565999
v -1.000000 0.000000 0.558196
v -1.000000 0.000000 0.565999
v -1.000000 0.082016 0.565999
v -1.000000 0.000000 0.565999
v -1.000000 0.000000 0.565999
v -1.000000 0.000000 0.565999
v -1.000000 0.000000 0.565999
v -1.000000 0.000000 0.565999
v -1.000000 0.000000 -0.564916
v -1.000000 0.000000 0.565999
v -1.000000 0.000000 0.565880
v -0.992773 0.000002 0.565999
v -1.000000 0.000000 0.565999
v -1.000000 0.000000 0.565999
v -0.999992 0.000000 0.565999
v -1.000000 0.000000 0.565999
v -1.000000 0.000000 0.565999
v -0.999998 0.000000 0.564248
v -1.000000 0.000000 0.565919
v -1.000000 0.000000 0.565999
v -1.000000 0.000006 0.565999
v -0.998136 0.000000 0.565999
v -0.999995 0.000000 0.564135
v -1.000000 0.001864 0.565994
v -1.000000 0.000000 0.565999
v -1.000000 0.000000 0.565999
v -1.000000 0.000000 0.565999
v -1.000000 0.000000 0.565999
v -1.000000 0.000000 0.565999
v -1.000000 0.000000 0.565999
v -1.000000 0.000000 0.565999
v -1.000000 0.000000 0.482076
v -1.000000 0.000000 0.565999
v -1.000000 0.000000 0.565999
v -1.000000 0.000000 0.565999
v -1.000000 0.000000 0.565723
v -1.000000 0.000008 0.565999
v -1.000000 0.000000 0.565999
v -1.000000 0.000000 0.565999
v -1.000000 0.000000 0.565999
v -1.000000 0.000000 0.565999
v 1.000000 0.000000 0.565999
v -0.999970 0.000000 0.565999
v -1.000000 0.000007 0.565999
v -0.999920 0.000000 0.565999
v -1.000000 0.000000 0.565999
v -0.999993 0.000005 0.565999
v -1.000000 0.000000 0.565997
v -0.999993 0.000000 0.565999
v -1.000000 0.000001 0.565999
v -1.000000 0.000000 0.565999
v -0.998199 0.000000 0.565999
v -1.000000 0.000006 0.565999
v -0.998136 0.000000 0.565999
v 0.326915 0.000000 0.565999
v -1.000000 0.000000 0.565999
v -1.000000 0.000000 0.565999
v -1.000000 0.000007 0.565999
v -0.918070 0.000000 0.565999
v -1.000000 0.000000 0.565999
v -1.000000 0.000000 0.565999
v -1.000000 0.000000 0.565999
v -1.000000 0.000000 0.565999
v -1.000000 0.000028 0.565999
v -1.000000 0.000000 0.565999
v -0.999992 0.000000 0.565999
v -1.000000 0.000000 0.565999
v -0.999972 0.000458 0.565999
v -1.000000 0.000000 0.565999
v -1.000000 0.007227 0.565999
v -1.000000 0.000000 0.565999
v -1.000000 0.000000 0.558772
v -0.999993 0.000005 0.565999
v -1.000000 0.000000 0.565999
v -1.000000 0.000000 0.565999
v -1.000000 0.000008 0.565999
v -1.000000 0.000000 0.565999
v -1.000000 0.000000 0.565991
v -1.000000 0.000000 0.565999
v -1.000000 0.000000 0.565999
v -1.000000 0.000028 0.495346
v -1.000000 0.000000 0.565999
v -1.000000 0.000000 0.565992
v -1.000000 0.000000 0.565999
v -1.000000 0.000000 0.565999
v -1.000000 0.000000 0.565999
v -1.000000 0.000000 -0.564630
v -1.000000 0.000000 0.565999
v -1.000000 0.000000 0.565999
v -1.000000 0.000000 0.565999
v -1.000000 0.000000 0.565999
v 0.131998 0.000000 0.565999
v -1.000000 0.070746 0.565999
v -1.000000 0.000000 0.565999
v -1.000000 0.000000 0.565999
v -1.000000 0.000000 0.565999
v -1.000000 0.000008 0.565999
v -1.000000 0.000028 0.565999
v -1.000000 0.000000 0.565541
v -1.000000 0.000000 0.565999
v -1.000000 0.000000 0.565999
v -1.000000 0.000000 0.565999
v -1.000000 0.000005 0.565999
v -1.000000 0.000000 0.565999
v -1.000000 0.000000 0.565992
v -1.000000 0.000000 0.565999
v -1.000000 0.007227 0.565999
v -1.000000 0.000000 0.565992
v -1.000000 0.000000 0.565999
v -1.000000 0.000000 0.565999
v -1.000000 0.000000 0.565999
v -1.000000 0.000000 0.565999
v -1.000000 0.000000 0.565999
v -1.000000 0.000000 0.565999
v -1.000000 0.001801 0.565999
v -1.000000 0.000000 0.565999
v -1.000000 0.000000 0.565999
v -1.000000 0.000000 0.565999
v -1.000000 0.000000 0.565999
v -1.000000 0.000000 0.565999
v -1.000000 0.000000 -0.565999
v -1.000000 0.006790 0.565999
v -1.000000 0.000000 0.565999
v -1.000000 0.000000 0.565999
v -1.000000 0.000000 0.565999
v -1.000000 0.000001 0.565971
v -0.999542 0.000000 0.565999
v -1.000000 0.000000 0.565999
v -1.000000 0.000000 0.565999
v -0.999998 0.000000 0.565999
v -1.000000 0.000000 0.565999
v -1.000000 0.000000 0.565999
v -1.000000 0.000000 0.565999
v -1.000000 0.000000 0.565999
v -1.000000 0.000000 0.565999
v -0.998169 0.081930 0.565997
v -1.000000 0.000000 0.565999
v -0.999999 0.000000 0.565999
v -1.000000 0.000000 0.565999
v -1.000000 0.000000 0.565999
v -1.000000 0.000000 0.565997
v -1.000000 0.000000 0.565999
v -1.000000 0.000002 0.565999
v -0.918070 0.000000 0.565999
v -1.000000 0.000000 0.565999
v -1.000000 0.000000 0.565999
v -1.000000 0.000000 0.565999
v -1.000000 0.000000 0.565999
v -1.000000 0.000000 0.565999
v -1.000000 0.000000 0.565999
v -1.000000 0.000000 0.565999
v -1.000000 0.000000 0.565992
v -1.000000 0.000000 0.565999
v -1.000000 0.000030 0.565999
v -1.000000 0.000001 0.565999
v -1.000000 0.000000 0.565999
v -1.000000 1.133021 0.565999
v -1.000000 0.000000 0.565997
v -1.000000 0.000000 0.565999
v -1.000000 0.000000 0.565992
v -1.000000 0.000000 0.565883
v -0.929254 0.000000 0.565999
v -1.000000 0.000000 0.565999
v -1.000000 0.000001 0.565999
v -0.999992 0.000000 0.565999
v -1.000000 0.000000 0.565999
v -1.000000 0.000000 0.565999
v -1.000000 0.000000 0.565999
v -1.000000 0.000000 0.565999
v -1.000000 0.000000 0.565999
v -1.000000 0.000000 0.565999
v -1.000000 0.000000 0.565999
v -1.000000 0.000000 0.565999
v -1.000000 0.000000 0.565999
v -1.000000 0.000000 0.565999
v -0.999993 0.000000 0.565999
v -1.000000 0.000000 0.565999
v -1.000000 0.000001 0.565999
v -1.000000 0.000000 0.565999
v -1.000000 0.000000 0.565999
v -1.000000 0.000000 0.565999
v -1.000000 0.070653 0.565999
v -1.000000 0.000000 0.565999
v -1.000000 0.000002 0.565994
v -1.000000 0.000000 0.565999
v -1.000000 0.000000 0.565999
v -1.000000 0.000000 0.565992
v -1.000000 0.000000 0.565999
v -1.000000 0.000000 0.565999
v -1.000000 0.000000 0.565999
v -1.000000 0.000000 0.565999
v -1.000000 0.000000 0.565999
v -1.000000 0.000000 0.565999
v -1.000000 0.000000 0.565999
v -1.000000 0.000000 0.565999
v -1.000000 0.000000 0.565999
v -1.000000 0.000000 0.565999
v -1.000000 0.000000 0.565999
v -1.000000 0.000000 0.565999
v -1.000000 0.000000 0.565999
v -1.000000 0.000000 0.565999
v -1.000000 0.000000 0.565999
v -1.000000 0.000000 0.565999
v -1.000000 0.000000 0.565999
v -1.000000 0.000000 0.565999
v -1.000000 0.000000 0.565999
v -1.000000 0.000000 0.565999
v -1.000000 0.000000 0.565999
v -1.000000 0.000000 0.565999
v -1.000000 0.000000 0.565999
v -1.000000 0.000000 0.565999
v -1.000000 0.000000 0.565999
v -1.000000 0.000000 0.565999
v -1.000000 0.000000 0.565999
v -1.000000 0.000000 0.565999
v -1.000000 0.000000 0.565999
v -1.000000 0.000000 0.565999
v -1.000000 0.000000 0.565999
v -1.000000 0.000000 0.565999
v -1.000000 0.000000 0.565999
v -1.000000 0.000000 0.565999
v -1.000000 0.000000 0.565999
v -1.000000 0.000000 0.565999
v -1.000000 0.000000 0.565999
v -1.000000 0.000000 0.565999
v -1.000000 0.000000 0.565999
v -1.000000 0.000000 0.565999
v -1.000000 0.000000 0.565999
v -1.000000 0.000000 0.565999
v -1.000000 0.000000 0.565999
v -1.000000 0.000000 0.565999
v -1.000000 0.000000 0.565999
v -1.000000 0.000000 0.565999
v -1.000000 0.000000 0.565999
v -1.000000 0.000000 0.565999
v -1.000000 0.000000 0.565999
v -1.000000 0.000000 0.565999
v -1.000000 0.000000 0.565999
v -1.000000 0.000000 0.565999
v -1.000000 0.000000 0.565999
v -1.000000 0.000000 0.565999
v -1.000000 0.000000 0.565999
v -1.000000 0.000000 0.565999
v -1.000000 0.000000 0.565999
v -1.000000 0.000000 0.565999
v -1.000000 0.000000 0.565999
v -1.000000 0.000000 0.565999
v -1.000000 0.000000 0.565999
v -1.000000 0.000000 0.565999
v -1.000000 0.000000 0.565999
v -1.000000 0.000000 0.565999
v -1.000000 0.000000 0.565999
v -1.000000 0.000000 0.565999
v -1.000000 0.000000 0.565999
v -1.000000 0.000000 0.565999
v -1.000000 0.000000 0.565999
v -1.000000 0.000000 0.565999
v -1.000000 0.000000 0.565999
v -1.000000 0.000000 0.565999
v -1.000000 0.000000 0.565999
v -1.000000 0.000000 0.565999
v -1.000000 0.000000 0.565999
v -1.000000 0.000000 0.565999
v -1.000000 0.000000 0.565999
v -1.000000 0.000000 0.565999
v -1.000000 0.000000 0.565999
v -1.000000 0.000000 0.565999
v -1.000000 0.000000 0.565999
v -1.000000 0.000000 0.565999
v -1.000000 0.000000 0.565999
v -1.000000 0.000000 0.565999
v -1.000000 0.000000 0.565999
v -1.000000 0.000000 0.565999
v -1.000000 0.000000 0.565999
v -1.000000 0.000000 0.565999
v -1.000000 0.000000 0.565999
v -1.000000 0.000000 0.565999
v -1.000000 0.000000 0.565999
v -1.000000 0.000000 0.565999
v -1.000000 0.000000 0.565999
v -1.000000 0.000000 0.565999
v -1.000000 0.000000 0.565999
v -1.000000 0.000000 0.565999
v -1.000000 0.000000 0.565999
v -1.000000 0.000000 0.565999
v -1.000000 0.000000 0.565999
v -1.000000 0.000000 0.565999
v -1.000000 0.000000 0.565999
v -1.000000 0.000000 0.565999
v -1.000000 0.000000 0.565999
v -1.000000 0.000000 0.565999
v -1.000000 0.000000 0.565999
v -1.000000 0.000000 0.565999
v -1.000000 0.000000 0.565999
v -1.000000 0.000000 0.565999
v -1.000000 0.000000 0.565999
v -1.000000 0.000000 0.565999
v -1.000000 0.000000 0.565999
v -1.000000 0.000000 0.565999
v -1.000000 0.000000 0.565999
v -1.000000 0.000000 0.565999
v -1.000000 0.000000 0.565999
v -1.000000 0.000000 0.565999
v -1.000000 0.000000 0.565999
v -1.000000 0.000000 0.565999
v -1.000000 0.000000 0.565999
v -1.000000 0.000000 0.565999
v -1.000000 0.000000 0.565999
v -1.000000 0.000000 0.565999
v -1.000000 0.000000 0.565999
v -1.000000 0.000000 0.565999
v -1.000000 0.000000 0.565999
v -1.000000 0.000000 0.565999
v -1.000000 0.000000 0.565999
v -1.000000 0.000000 0.565999
v -1.000000 0.000000 0.565999
v -1.000000 0.000000 0.565999
v -1.000000 0.000000 0.565999
v -1.000000 0.000000 0.565999
v -1.000000 0.000000 0.565999
v -1.000000 0.000000 0.565999
v -1.000000 0.000000 0.565999
v -1.000000 0.000000 0.565999
v -1.000000 0.000000 0.565999
v -1.000000 0.000000 0.565999
v -1.000000 0.000000 0.565999
v -1.000000 0.000000 0.565999
v -1.000000 0.000000 0.565999
v -1.000000 0.000000 0.565999
v -1.000000 0.000000 0.565999
v -1.000000 0.000000 0.565999
v -1.000000 0.000000 0.565999
v -1.000000 0.000000 0.565999
v -1.000000 0.000000 0.565999
v -1.000000 0.000000 0.565999
v -1.000000 0.000000 0.565999
v -1.000000 0.000000 0.565999
v -1.000000 0.000000 0.565999
v -1.000000 0.000000 0.565999
v -1.000000 0.000000 0.565999
v -1.000000 0.000000 0.565999
v -1.000000 0.000000 0.565999
v -1.000000 0.000000 0.565999
v -1.000000 0.000000 0.565999
v -1.000000 0.000000 0.565999
v -1.000000 0.000000 0.565999
v -1.000000 0.000000 0.565999
v -1.000000 0.000000 0.565999
v -1.000000 0.000000 0.565999
v -1.000000 0.000000 0.565999
v -1.000000 0.000000 0.565999
v -1.000000 0.000000 0.565999
v -1.000000 0.000000 0.565999
v -1.000000 0.000000 0.565999
v -1.000000 0.000000 0.565999
v -1.000000 0.000000 0.565999
v -1.000000 0.000000 0.565999
v -1.000000 0.000000 0.565999
v -1.000000 0.000000 0.565999
v -1.000000 0.000000 0.565999
v -1.000000 0.000000 0.565999
v -1.000000 0.000000 0.565999
v -1.000000 0.000000 0.565999
v -1.000000 0.000000 0.565999
v -1.000000 0.000000 0.565999
v -1.000000 0.000000 0.565999
v -1.000000 0.000000 0.565999
v -1.000000 0.000000 0.565999
v -1.000000 0.000000 0.565999
v -1.000000 0.000000 0.565999
v -1.000000 0.000000 0.565999
v -1.000000 0.000000 0.565999
v -1.000000 0.000000 0.565999
v -1.000000 0.000000 0.565999
v -1.000000 0.000000 0.565999
v -1.000000 0.000000 0.565999
v -1.000000 0.000000 0.565999
v -1.000000 0.000000 0.565999
v -1.000000 0.000000 0.565999
v -1.000000 0.000000 0.565999
v -1.000000 0.000000 0.565999
v -1.000000 0.000000 0.565999
v -1.000000 0.000000 0.565999
v -1.000000 0.000000 0.565999
v -1.000000 0.000000 0.565999
v -1.000000 0.000000 0.565999
v -1.000000 0.000000 0.565999
v -1.000000 0.000000 0.565999
v -1.000000 0.000000 0.565999
v -1.000000 0.000000 0.565999
v -1.000000 0.000000 0.565999
v -1.000000 0.000000 0.565999
v -1.000000 0.000000 0.565999
v -1.000000 0.000000 0.565999
v -1.000000 0.000000 0.565999
v -1.000000 0.000000 0.565999
v -1.000000 0.000000 0.565999
v -1.000000 0.000000 0.565999
v -1.000000 0.000000 0.565999
v -1.000000 0.000000 0.565999
v -1.000000 0.000000 0.565999
v -1.000000 0.000000 0.565999
v -1.000000 0.000000 0.565999
v -1.000000 0.000000 0.565999
v -1.000000 0.000000 0.565999
v -1.000000 0.000000 0.565999
v -1.000000 0.000000 0.565999
v -1.000000 0.000000 0.565999
v -1.000000 0.000000 0.565999
v -1.000000 0.000000 0.565999
v -1.000000 0.000000 0.565999
v -1.000000 0.000000 0.565999
v -1.000000 0.000000 0.565999
v -1.000000 0.000000 0.565999
v -1.000000 0.000000 0.565999
v -1.000000 0.000000 0.565999
v -1.000000 0.000000 0.565999
v -1.000000 0.000000 0.565999
v -1.000000 0.000000 0.565999
v -1.000000 0.000000 0.565999
v -1.000000 0.000000 0.565999
v -1.000000 0.000000 0.565999
v -1.000000 0.000000 0.565999
v -1.000000 0.000000 0.565999
v -1.000000 0.000000 0.565999
v -1.000000 0.000000 0.565999
v -1.000000 0.000000 0.565999
v -1.000000 0.000000 0.565999
v -1.000000 0.000000 0.565999
v -1.000000 0.000000 0.565999
v -1.000000 0.000000 0.565999
v -1.000000 0.000000 0.565999
v -1.000000 0.000000 0.565999
v -1.000000 0.000000 0.565999
v -1.000000 0.000000 0.565999
v -1.000000 0.000000 0.565999
v -1.000000 0.000000 0.565999
v -1.000000 0.000000 0.565999
v -1.000000 0.000000 0.565999
v -1.000000 0.000000 0.565999
v -1.000000 0.000000 0.565999
v -1.000000 0.000000 0.565999
v -1.000000 0.000000 0.565999
v -1.000000 0.000000 0.565999
v -1.000000 0.000000 0.565999
v -1.000000 0.000000 0.565999
v -1.000000 0.000000 0.565999
v -1.000000 0.000000 0.565999
v -1.000000 0.000000 0.565999
v -1.000000 0.000000 0.565999
v -1.000000 0.000000 0.565999
v -1.000000 0.000000 0.565999
v -1.000000 0.000000 0.565999
v -1.000000 0.000000 0.565999
v -1.000000 0.000000 0.565999
v -1.000000 0.000000 0.565999
v -1.000000 0.000000 0.565999
v -1.000000 0.000000 0.565999
v -1.000000 0.000000 0.565999
v -1.000000 0.000000 0.565999
v -1.000000 0.000000 0.565999
v -1.000000 0.000000 0.565999
v -1.000000 0.000000 0.565999
v -1.000000 0.000000 0.565999
v -1.000000 0.000000 0.565999
v -1.000000 0.000000 0.565999
v -1.000000 0.000000 0.565999
v -1.000000 0.000000 0.565999
v -1.000000 0.000000 0.565999
v -1.000000 0.000000 0.565999
v -1.000000 0.000000 0.565999
v -1.000000 0.000000 0.565999
v -1.000000 0.000000 0.565999
v -1.000000 0.000000 0.565999
v -1.000000 0.000000 0.565999
v -1.000000 0.000000 0.565999
v -1.000000 0.000000 0.565999
v -1.000000 0.000000 0.565999
v -1.000000 0.000000 0.565999
v -1.000000 0.000000 0.565999
v -1.000000 0.000000 0.565999
v -1.000000 0.000000 0.565999
v -1.000000 0.000000 0.565999
v -1.000000 0.000000 0.565999
v -1.000000 0.000000 0.565999
v -1.000000 0.000000 0.565999
v -1.000000 0.000000 0.565999
v -1.000000 0.000000 0.565999
v -1.000000 0.000000 0.565999
v -1.000000 0.000000 0.565999
v -1.000000 0.000000 0.565999
v -1.000000 0.000000 0.565999
v -1.000000 0.000000 0.565999
v -1.000000 0.000000 0.565999
v -1.000000 0.000000 0.565999
v -1.000000 0.000000 0.565999
v -1.000000 0.000000 0.565999
v -1.000000 0.000000 0.565999
v -1.000000 0.000000 0.565999
v -1.000000 0.000000 0.565999
v -1.000000 0.000000 0.565999
v -1.000000 0.000000 0.565999
v -1.000000 0.000000 0.565999
v -1.000000 0.000000 0.565999
v -1.000000 0.000000 0.565999
v -1.000000 0.000000 0.565999
v -1.000000 0.000000 0.565999
v -1.000000 0.000000 0.565999
v -1.000000 0.000000 0.565999
v -1.000000 0.000000 0.565999
v -1.000000 0.000000 0.565999
v -1.000000 0.000000 0.565999
v -1.000000 0.000000 0.565999
v -1.000000 0.000000 0.565999
v -1.000000 0.000000 0.565999
v -1.000000 0.000000 0.565999
v -1.000000 0.000000 0.565999
v -1.000000 0.000000 0.565999
v -1.000000 0.000000 0.565999
v -1.000000 0.000000 0.565999
v -1.000000 0.000000 0.565999
v -1.000000 0.000000 0.565999
v -1.000000 0.000000 0.565999
v -1.000000 0.000000 0.565999
v -1.000000 0.000000 0.565999
v -1.000000 0.000000 0.565999
v -1.000000 0.000000 0.565999
v -1.000000 0.000000 0.565999
v -1.000000 0.000000 0.565999
v -1.000000 0.000000 0.565999
v -1.000000 0.000000 0.565999
v -1.000000 0.000000 0.565999
v -1.000000 0.000000 0.565999
v -1.000000 0.000000 0.565999
v -1.000000 0.000000 0.565999
v -1.000000 0.000000 0.565999
v -1.000000 0.000000 0.565999
v -1.000000 0.000000 0.565999
v -1.000000 0.000000 0.565999
v -1.000000 0.000000 0.565999
v -1.000000 0.000000 0.565999
v -1.000000 0.000000 0.565999
v -1.000000 0.000000 0.565999
v -1.000000 0.000000 0.565999
v -1.000000 0.000000 0.565999
v -1.000000 0.000000 0.565999
v -1.000000 0.000000 0.565999
v -1.000000 0.000000 0.565999
v -1.000000 0.000000 0.565999
v -1.000000 0.000000 0.565999
v -1.000000 0.000000 0.565999
v -1.000000 0.000000 0.565999
v -1.000000 0.000000 0.565999
v -1.000000 0.000000 0.565999
v -1.000000 0.000000 0.565999
v -1.000000 0.000000 0.565999
v -1.000000 0.000000 0.565999
v -1.000000 0.000000 0.565999
v -1.000000 0.000000 0.565999
v -1.000000 0.000000 0.565999
v -1.000000 0.000000 0.565999
v -1.000000 0.000000 0.565999
v -1.000000 0.000000 0.565999
v -1.000000 0.000000 0.565999
v -1.000000 0.000000 0.565999
v -1.000000 0.000000 0.565999
v -1.000000 0.000000 0.565999
v -1.000000 0.000000 0.565999
v -1.000000 0.000000 0.565999
v -1.000000 0.000000 0.565999
v -1.000000 0.000000 0.565999
v -1.000000 0.000000 0.565999
v -1.000000 0.000000 0.565999
v -1.000000 0.000000 0.565999
v -1.000000 0.000000 0.565999
v -1.000000 0.000000 0.565999
v -1.000000 0.000000 0.565999
v -1.000000 0.000000 0.565999
v -1.000000 0.000000 0.565999
v -1.000000 0.000000 0.565999
v -1.000000 0.000000 0.565999
v -1.000000 0.000000 0.565999
v -1.000000 0.000000 0.565999
v -1.000000 0.000000 0.565999
v -1.000000 0.000000 0.565999
v -1.000000 0.000000 0.565999
v -1.000000 0.000000 0.565999
v -1.000000 0.000000 0.565999
v -1.000000 0.000000 0.565999
v -1.000000 0.000000 0.565999
v -1.000000 0.000000 0.565999
v -1.000000 0.000000 0.565999
v -1.000000 0.000000 0.565999
v -1.000000 0.000000 0.565999
v -1.000000 0.000000 0.565999
v -1.000000 0.000000 0.565999
v -1.000000 0.000000 0.565999
v -1.000000 0.000000 0.565999
v -1.000000 0.000000 0.565999
v -1.000000 0.000000 0.565999
v -1.000000 0.000000 0.565999
v -1.000000 0.000000 0.565999
v -1.000000 0.000000 0.565999
v -1.000000 0.000000 0.565999
v -1.000000 0.000000 0.565999
v -1.000000 0.000000 0.565999
v -1.000000 0.000000 0.565999
v -1.000000 0.000000 0.565999
v -1.000000 0.000000 0.565999
v -1.000000 0.000000 0.565999
v -1.000000 0.000000 0.565999
v -1.000000 0.000000 0.565999
v -1.000000 0.000000 0.565999
v -1.000000 0.000000 0.565999
v -1.000000 0.000000 0.565999
v -1.000000 0.000000 0.565999
v -1.000000 0.000000 0.565999
v -1.000000 0.000000 0.565999
v -1.000000 0.000000 0.565999
v -1.000000 0.000000 0.565999
v -1.000000 0.000000 0.565999
v -1.000000 0.000000 0.565999
v -1.000000 0.000000 0.565999
v -1.000000 0.000000 0.565999
v -1.000000 0.000000 0.565999
v -1.000000 0.000000 0.565999
v -1.000000 0.000000 0.565999
v -1.000000 0.000000 0.565999
v -1.000000 0.000000 0.565999
v -1.000000 0.000000 0.565999
v -1.000000 0.000000 0.565999
v -1.000000 0.000000 0.565999
v -1.000000 0.000000 0.565999
v -1.000000 0.000000 0.565999
v -1.000000 0.000000 0.565999
v -1.000000 0.000000 0.565999
v -1.000000 0.000000 0.565999
v -1.000000 0.000000 0.565999
v -1.000000 0.000000 0.565999
v -1.000000 0.000000 0.565999
v -1.000000 0.000000 0.565999
v -1.000000 0.000000 0.565999
v -1.000000 0.000000 0.565999
v -1.000000 0.000000 0.565999
v -1.000000 0.000000 0.565999
v -1.000000 0.000000 0.565999
v -1.000000 0.000000 0.565999
v -1.000000 0.000000 0.565999
v -1.000000 0.000000 0.565999
v -1.000000 0.000000 0.565999
v -1.000000 0.000000 0.565999
v -1.000000 0.000000 0.565999
v -1.000000 0.000000 0.565999
v -1.000000 0.000000 0.565999
v -1.000000 0.000000 0.565999
v -1.000000 0.000000 0.565999
v -1.000000 0.000000 0.565999
v -1.000000 0.000000 0.565999
v -1.000000 0.000000 0.565999
v -1.000000 0.000000 0.565999
v -1.000000 0.000000 0.565999
v -1.000000 0.000000 0.565999
v -1.000000 0.000000 0.565999
v -1.000000 0.000000 0.565999
v -1.000000 0.000000 0.565999
v -1.000000 0.000000 0.565999
v -1.000000 0.000000 0.565999
v -1.000000 0.000000 0.565999
v -1.000000 0.000000 0.565999
v -1.000000 0.000000 0.565999
v -1.000000 0.000000 0.565999
v -1.000000 0.000000 0.565999
v -1.000000 0.000000 0.565999
v -1.000000 0.000000 0.565999
v -1.000000 0.000000 0.565999
v -1.000000 0.000000 0.565999
v -1.000000 0.000000 0.565999
v -1.000000 0.000000 0.565999
v -1.000000 0.000000 0.565999
v -1.000000 0.000000 0.565999
v -1.000000 0.000000 0.565999
v -1.000000 0.000000 0.565999
v -1.000000 0.000000 0.565999
v -1.000000 0.000000 0.565999
v -1.000000 0.000000 0.565999
v -1.000000 0.000000 0.565999
v -1.000000 0.000000 0.565999
v -1.000000 0.000000 0.565999
v -1.000000 0.000000 0.565999
v -1.000000 0.000000 0.565999
v -1.000000 0.000000 0.565999
v -1.000000 0.000000 0.565999
v -1.000000 0.000000 0.565999
v -1.000000 0.000000 0.565999
v -1.000000 0.000000 0.565999
v -1.000000 0.000000 0.565999
v -1.000000 0.000000 0.565999
v -1.000000 0.000000 0.565999
v -1.000000 0.000000 0.565999
v -1.000000 0.000000 0.565999
v -1.000000 0.000000 0.565999
v -1.000000 0.000000 0.565999
v -1.000000 0.000000 0.565999
v -1.000000 0.000000 0.565999
v -1.000000 0.000000 0.565999
v -1.000000 0.000000 0.565999
v -1.000000 0.000000 0.565999
v -1.000000 0.000000 0.565999
v -1.000000 0.000000 0.565999
v -1.000000 0.000000 0.565999
v -1.000000 0.000000 0.565999
v -1.000000 0.000000 0.565999
v -1.000000 0.000000 0.565999
v -1.000000 0.000000 0.565999
f 15649 30753 10785
f 30753 11315 30753
f 8314 8254 8313
f 8235 12922 8237
f 31353 15649 30753
f 10785 31265 11315
f 31009 8314 8254
f 8314 8235 12922
f 8237 31354 15649
f 31009 10785 31265
f 11315 31265 8315
f 8254 8315 8235
f 12923 2620 8225
f 28516 29551 8309
f 30840 15649 30497
f 10785 30753 11315
f 30497 8314 8254
f 8312 8235 12922
f 8237 31352 15649
f 30497 10785 31265
f 15155 8203 25377
f 28272 29812 29217
f 15649 23329 8203
f 8225 12577 11553
f 10273 31098 11041
f 31265 10619 8237
f 31097 11553 30497
f 11387 30753 8315
f 8236 31096 2605
f 8225 8225 31097
f 11041 30497 11387
f 12577 11553 10273
f 30841 11041 31265
f 10619 8237 31354
f 11553 30497 11385
f 8203 8225 30753
f 8315 8238 31096
f 8237 31354 11041
f 30497 11385 12577
f 11553 10273 30841
f 11041 31009 10618
f 2605 8225 15198
f 8203 12065 8240
f 8302 8254 8277
f 8235 8275 8235
f 8276 25385 27760
f 28022 11631 24942
f 28523 11379 26401
f 21613 8263 28516
f 30319 28262 26997
f 28272 2602 8225
f 23406 23857 15649
f 29217 12380 8286
f 8235 25460 27746
f 23398 23857 8252
f 23406 23858 15649
f 29217 13148 8286
f 8235 25460 27746
f 23398 23857 8252
f 23406 23859 15649
f 29217 13916 8286
f 8235 25460 27746
f 23398 23857 8252
f 23406 23860 15649
f 12321 2620 8225
f 23406 23861 15649
f 29217 12636 8286
f 8235 25460 27746
f 23398 23858 8252
f 23406 23862 15649
f 29217 13404 8286
f 8235 25460 27746
f 23398 23858 8252
f 23406 23863 15649
f 29217 14172 8286
f 8235 25460 27746
f 23398 23858 8252
f 23406 23864 15649
f 12321 2620 8225
f 23406 23865 15649
f 29217 12892 8286
f 8235 25460 27746
f 23398 23859 8252
f 23406 23866 15649
f 29217 13660 8286
f 8235 25460 27746
f 23398 23859 8252
f 23406 12338 8286
f 8254 23411 23865
f 10785 29473 24932
f 25965 12892 15198
f 27937 12636 23858
f 15649 12321 2620
f 8225 23406 12850
f 8286 8254 29301
f 28258 27764 29794
f 28522 23407 23857
f 8252 23406 13106
f 8286 8254 29301
f 28258 27764 29794
f 28522 23407 23858
f 8252 23406 13362
f 8286 8254 29301
f 28258 27764 29794
f 28522 23407 23859
f 8252 23406 13618
f 8286 8254 15154
f 8203 29217 29798
f 29302 8303 15214
f 32011 2571 30055
f 25455 26997 28272
f 27937 27766 26997
f 27761 10362 11362
f 25121 8234 8316
f 12080 24865 10785
f 25121 8237 28516
f 30061 28270 27950
f 27234 29296 8203
f 25377 28272 29812
f 28449 29814 15649
f 28193 30566 17953
f 28525 29794 12852
f 29250 24947 10362
f 13874 15146 8203
f 26145 29296 10273
f 25965 8309 28516
f 30061 28270 15649
f 12321 8252 28516
f 30061 28270 15393
f 13345 8252 28516
f 30061 28270 11052
f 8234 2684 8225
f 8225 28519 8307
f 27689 29798 29217
f 30576 15649 12321
f 8252 28531 8312
f 8253 15157 29217
f 30576 11052 8234
f 2684 8225 8225
f 8225 25965 8309
f 30068 8302 8254
f 15153 8203 8225
f 8225 26145 29296
f 10273 25965 8309
f 8300 8254 15153
f 27425 15393 13345
f 8252 11116 10540
f 29473 28022 11041
f 8254 23394 8300
f 8235 8245 8236
f 28531 23928 10785
f 25121 25436 27760
f 28022 8303 8235
f 8245 8236 23916
f 2620 8225 8225
f 8225 30064 23413
f 28516 30061 28270
f 10785 13345 11041
f 29217 30576 8286
f 8254 30068 15214
f 8203 8225 32033
f 8203 32033 8203
f 29217 29798 29302
f 8303 30064 15221
f 32011 2571 28516
f 29551 8309 24945
f 25971 29807 8308
f 8254 25967 8312
f 24910 10353 15146
f 10251 29547 28272
f 28207 25712 29542
f 16161 8256 23900
f 11818 28519 17779
f 25442 10345 28201
f 25712 11366 26913
f 25711 30822 8234
f 15934 31521 26145
f 29296 10273 28516
f 29551 8309 26724
f 27754 8293 26224
f 28193 25712 11878
f 26724 27754 29285
f 28262 16161 8256
f 23900 8234 24945
f 25971 29807 11892
f 25972 10357 26724
f 27754 11365 26913
f 25711 30822 15146
f 32033 15146 26123
f 28278 29796 28522
f 8303 26724 26978
f 19823 29794 26995
f 10361 28527 25957
f 28234 25957 10617
f 31521 8203 25377
f 28272 29812 28193
f 25712 8294 8254
f 29547 28272 28207
f 25712 29542 28252
f 25712 18790 25711
f 30822 15198 8203
f 25377 28272 29812
f 27681 25456 27746
f 15649 28193 25712
f 19814 29794 26995
f 10361 28527 25957
f 15146 8203 25377
f 28272 29812 28705
f 29282 28262 8309
f 8254 24945 25971
f 29807 11892 25960
f 10357 28527 25957
f 28234 25957 10617
f 2620 8225 25971
f 30069 28275 28705
f 29282 28262 8309
f 15678 8254 28278
f 25957 26983 25967
f 8293 8256 28525
f 24932 8301 8251
f 30062 29805 28778
f 31085 25385 24937
f 28266 24910 29301
f 30826 28713 29282
f 28262 10613 8237
f 28525 24932 10605
f 2620 2686 12043
f 8240 26951 25711
f 29729 25961 26145
f 29290 29812 28193
f 25712 8294 27000
f 26741 24865 27937
f 29542 11369 26145
f 27760 28525 27000
f 26479 29729 25961
f 29473 25956 25967
f 25633 26214 30050
f 29805 2607 28516
f 29551 8309 25460
f 28262 20070 25712
f 29542 15649 10273
f 29547 28272 29487
f 25956 25967 8308
f 16192 23329 10590
f 27228 28532 11887
f 25460 28262 8294
f 16192 12321 16222
f 28207 25712 29542
f 16161 8256 27177
f 28532 11887 28527
f 25957 8308 16192
f 23329 10590 27951
f 28770 10281 11360
f 26913 8234 15934
f 26913 15146 27659
f 29798 27937 29542
f 20073 25712 18790
f 25711 30822 15649
f 11553 15154 25355
f 28272 29812 29473
f 24949 27492 15649
f 23329 11823 29487
f 25956 25967 28495
f 25957 23924 2620
f 26744 27754 8294
f 29481 24949 27492
f 27695 28262 29800
f 8297 9767 27937
f 29542 20073 25712
f 18790 25711 30822
f 15393 12321 8234
f 2684 8225 28516
f 29551 8309 28266
f 25957 8313 8254
f 29812 25442 11884
f 26740 26218 10357
f 15146 8203 26913
f 8295 27177 28532
f 11887 28527 25957
f 23412 28266 25957
f 23929 27951 29542
f 8297 15650 8254
f 28278 25957 26983
f 25967 10597 27937
f 29542 20073 25712
f 18790 25711 30822
f 15649 26913 25711
f 30822 2620 8225
f 27750 25972 29473
f 24949 27492 28719
f 29558 10345 11823
f 10287 29547 28272
f 28207 25712 29542
f 26972 25711 30822
f 11870 26724 27754
f 29285 28262 16161
f 8256 23900 10538
f 2620 2686 26218
f 10273 25966 26740
f 28495 25957 28234
f 25957 8313 8253
f 10545 29729 29289
f 30576 28193 30566
f 17697 29299 29296
f 8745 28495 27937
f 29542 8297 28519
f 28278 8805 15146
f 25355 28272 29812
f 30497 29296 25709
f 15649 25377 24937
f 28266 24910 29301
f 30826 27945 29542
f 20073 25712 18790
f 25711 30822 15146
f 2571 28516 29551
f 8309 29297 28010
f 29802 30314 8294
f 8254 29547 28272
f 27951 29542 25961
f 23412 29547 28272
f 28207 25712 29542
f 27996 29542 20073
f 25712 18790 25711
f 30822 11870 25966
f 26740 11870 29297
f 28010 29802 30314
f 29542 12380 15198
f 26891 8295 28713
f 26995 26990 26997
f 25975 27951 25712
f 8294 15650 8254
f 28278 25957 26983
f 25967 8293 9767
f 28705 26995 26990
f 26997 25975 27951
f 25712 8294 15650
f 8254 10549 29729
f 29289 30576 28193
f 30566 17697 29299
f 29296 8745 28240
f 31085 29729 26995
f 28258 27752 8294
f 29297 28010 29802
f 30314 29542 29473
f 28790 28529 29811
f 25702 10531 2620
f 28516 29551 8309
f 28529 26996 26997
f 28272 8308 8254
f 26999 30566 28713
f 26995 26990 26997
f 25975 24879 29813
f 26995 30051 25973
f 11892 20305 18772
f 18773 20048 15146
f 2571 12080 21537
f 24947 29551 28519
f 28019 8237 26741
f 28262 28193 29296
f 24942 26989 25979
f 8251 25956 29807
f 29286 30753 31280
f 8237 24931 25972
f 31009 24865 8309
f 11313 29473 24932
f 25965 29473 8304
f 24942 8313 28521
f 26995 28539 29807
f 27746 25889 29817
f 28262 8309 8254
f 11827 27659 29798
f 27937 28266 8281
f 8254 28234 26983
f 26991 31093 8237
f 26990 22895 15649
f 18721 26223 28266
f 29802 11386 27937
f 28266 8283 8254
f 28234 26983 26991
f 31093 8237 24942
f 22649 15649 11553
f 28234 26983 26991
f 31093 8237 24942
f 22905 15649 11553
f 28234 26983 26991
f 31093 8237 24942
f 23161 15649 11553
f 28234 26983 26991
f 31093 2620 28516
f 29551 8309 29301
f 28258 26228 29296
f 25966 8293 8254
f 23900 2620 28519
f 8307 27689 29798
f 26913 15649 12321
f 8252 8298 8253
f 28529 26996 26997
f 28272 11892 28516
f 28278 15221 26913
f 11052 8234 2684
f 8225 28516 29551
f 8309 30833 15649
f 28705 29552 29802
f 28522 29551 26159
f 28525 29794 23412
f 8298 8235 23860
f 8237 31089 15649
f 28705 29552 29802
